<svg xmlns="http://www.w3.org/2000/svg" viewBox="0 0 800 420" width="800" height="420" font-family="ui-monospace,SFMono-Regular,Menlo,monospace"><rect width="800" height="420" fill="#0B0B12"/><text x="74" y="26" font-size="18" fill="#C8C8D2" font-weight="600">60 sessions later: middle result</text><text x="74" y="48" font-size="14" fill="#8E8EA0">WTI crude oil · band from whole quarters resampled</text><line x1="74" x2="774" y1="286.8" y2="286.8" stroke="#1C1C26"/><text x="66" y="291.8" font-size="14" fill="#8E8EA0" text-anchor="end">-10%</text><line x1="74" x2="774" y1="207.2" y2="207.2" stroke="#1C1C26"/><text x="66" y="212.2" font-size="14" fill="#8E8EA0" text-anchor="end">0%</text><line x1="74" x2="774" y1="127.7" y2="127.7" stroke="#1C1C26"/><text x="66" y="132.7" font-size="14" fill="#8E8EA0" text-anchor="end">+10%</text><line y1="66" y2="362" x1="80.9" x2="80.9" stroke="#1C1C26"/><text y="382" x="80.9" font-size="14" fill="#8E8EA0" text-anchor="middle">1</text><line y1="66" y2="362" x1="143.3" x2="143.3" stroke="#1C1C26"/><text y="382" x="143.3" font-size="14" fill="#8E8EA0" text-anchor="middle">10</text><line y1="66" y2="362" x1="212.6" x2="212.6" stroke="#1C1C26"/><text y="382" x="212.6" font-size="14" fill="#8E8EA0" text-anchor="middle">20</text><line y1="66" y2="362" x1="281.9" x2="281.9" stroke="#1C1C26"/><text y="382" x="281.9" font-size="14" fill="#8E8EA0" text-anchor="middle">30</text><line y1="66" y2="362" x1="351.2" x2="351.2" stroke="#1C1C26"/><text y="382" x="351.2" font-size="14" fill="#8E8EA0" text-anchor="middle">40</text><line y1="66" y2="362" x1="420.5" x2="420.5" stroke="#1C1C26"/><text y="382" x="420.5" font-size="14" fill="#8E8EA0" text-anchor="middle">50</text><line y1="66" y2="362" x1="489.8" x2="489.8" stroke="#1C1C26"/><text y="382" x="489.8" font-size="14" fill="#8E8EA0" text-anchor="middle">60</text><line y1="66" y2="362" x1="559.1" x2="559.1" stroke="#1C1C26"/><text y="382" x="559.1" font-size="14" fill="#8E8EA0" text-anchor="middle">70</text><line y1="66" y2="362" x1="628.5" x2="628.5" stroke="#1C1C26"/><text y="382" x="628.5" font-size="14" fill="#8E8EA0" text-anchor="middle">80</text><line y1="66" y2="362" x1="697.8" x2="697.8" stroke="#1C1C26"/><text y="382" x="697.8" font-size="14" fill="#8E8EA0" text-anchor="middle">90</text><line y1="66" y2="362" x1="767.1" x2="767.1" stroke="#1C1C26"/><text y="382" x="767.1" font-size="14" fill="#8E8EA0" text-anchor="middle">100</text><rect x="74" y="66" width="700" height="296" fill="none" stroke="#34343F"/><text x="424" y="408" font-size="14" fill="#B4B4C6" text-anchor="middle">rung of the day's RSI (1 = most oversold 1% of days)</text><text transform="translate(18 214) rotate(-90)" font-size="14" fill="#B4B4C6" text-anchor="middle">change %</text><line x1="74" x2="774" y1="186.0" y2="186.0" stroke="#00FFA3" stroke-width="2" stroke-dasharray="8 6"/><line x1="80.9" x2="80.9" y1="346.1" y2="118.8" stroke="#00FFA3" stroke-opacity="0.35" stroke-width="4"/><circle cx="80.9" cy="182.2" r="3.4" fill="#00FFA3"/><line x1="87.9" x2="87.9" y1="191.2" y2="125.9" stroke="#00FFA3" stroke-opacity="0.35" stroke-width="4"/><circle cx="87.9" cy="172.9" r="3.4" fill="#00FFA3"/><line x1="94.8" x2="94.8" y1="284.2" y2="145.8" stroke="#00FFA3" stroke-opacity="0.35" stroke-width="4"/><circle cx="94.8" cy="203.7" r="3.4" fill="#00FFA3"/><line x1="101.7" x2="101.7" y1="284.4" y2="81.9" stroke="#00FFA3" stroke-opacity="0.35" stroke-width="4"/><circle cx="101.7" cy="177.6" r="3.4" fill="#00FFA3"/><line x1="108.7" x2="108.7" y1="218.1" y2="87.5" stroke="#00FFA3" stroke-opacity="0.35" stroke-width="4"/><circle cx="108.7" cy="174.1" r="3.4" fill="#00FFA3"/><line x1="115.6" x2="115.6" y1="251.7" y2="120.5" stroke="#00FFA3" stroke-opacity="0.35" stroke-width="4"/><circle cx="115.6" cy="157.9" r="3.4" fill="#00FFA3"/><line x1="122.5" x2="122.5" y1="242.2" y2="131.5" stroke="#00FFA3" stroke-opacity="0.35" stroke-width="4"/><circle cx="122.5" cy="184.2" r="3.4" fill="#00FFA3"/><line x1="129.4" x2="129.4" y1="234.2" y2="103.8" stroke="#00FFA3" stroke-opacity="0.35" stroke-width="4"/><circle cx="129.4" cy="148.7" r="3.4" fill="#00FFA3"/><line x1="136.4" x2="136.4" y1="214.2" y2="136.9" stroke="#00FFA3" stroke-opacity="0.35" stroke-width="4"/><circle cx="136.4" cy="175.8" r="3.4" fill="#00FFA3"/><line x1="143.3" x2="143.3" y1="216.1" y2="113.5" stroke="#00FFA3" stroke-opacity="0.35" stroke-width="4"/><circle cx="143.3" cy="161.4" r="3.4" fill="#00FFA3"/><line x1="150.2" x2="150.2" y1="256.7" y2="152.6" stroke="#FF2D55" stroke-opacity="0.35" stroke-width="4"/><circle cx="150.2" cy="228.6" r="3.4" fill="#FF2D55"/><line x1="157.2" x2="157.2" y1="272.1" y2="144.9" stroke="#FF2D55" stroke-opacity="0.35" stroke-width="4"/><circle cx="157.2" cy="216.7" r="3.4" fill="#FF2D55"/><line x1="164.1" x2="164.1" y1="206.6" y2="108.2" stroke="#00FFA3" stroke-opacity="0.35" stroke-width="4"/><circle cx="164.1" cy="167.6" r="3.4" fill="#00FFA3"/><line x1="171.0" x2="171.0" y1="201.2" y2="112.7" stroke="#00FFA3" stroke-opacity="0.35" stroke-width="4"/><circle cx="171.0" cy="140.6" r="3.4" fill="#00FFA3"/><line x1="178.0" x2="178.0" y1="223.1" y2="114.3" stroke="#00FFA3" stroke-opacity="0.35" stroke-width="4"/><circle cx="178.0" cy="176.1" r="3.4" fill="#00FFA3"/><line x1="184.9" x2="184.9" y1="237.4" y2="167.3" stroke="#00FFA3" stroke-opacity="0.35" stroke-width="4"/><circle cx="184.9" cy="199.9" r="3.4" fill="#00FFA3"/><line x1="191.8" x2="191.8" y1="209.8" y2="114.2" stroke="#00FFA3" stroke-opacity="0.35" stroke-width="4"/><circle cx="191.8" cy="162.2" r="3.4" fill="#00FFA3"/><line x1="198.8" x2="198.8" y1="237.9" y2="133.9" stroke="#00FFA3" stroke-opacity="0.35" stroke-width="4"/><circle cx="198.8" cy="186.0" r="3.4" fill="#00FFA3"/><line x1="205.7" x2="205.7" y1="237.0" y2="176.2" stroke="#00FFA3" stroke-opacity="0.35" stroke-width="4"/><circle cx="205.7" cy="201.0" r="3.4" fill="#00FFA3"/><line x1="212.6" x2="212.6" y1="228.0" y2="146.0" stroke="#00FFA3" stroke-opacity="0.35" stroke-width="4"/><circle cx="212.6" cy="188.5" r="3.4" fill="#00FFA3"/><line x1="219.5" x2="219.5" y1="227.5" y2="132.4" stroke="#00FFA3" stroke-opacity="0.35" stroke-width="4"/><circle cx="219.5" cy="189.0" r="3.4" fill="#00FFA3"/><line x1="226.5" x2="226.5" y1="201.9" y2="113.7" stroke="#00FFA3" stroke-opacity="0.35" stroke-width="4"/><circle cx="226.5" cy="158.4" r="3.4" fill="#00FFA3"/><line x1="233.4" x2="233.4" y1="170.9" y2="108.2" stroke="#00FFA3" stroke-opacity="0.35" stroke-width="4"/><circle cx="233.4" cy="147.4" r="3.4" fill="#00FFA3"/><line x1="240.3" x2="240.3" y1="223.0" y2="97.2" stroke="#00FFA3" stroke-opacity="0.35" stroke-width="4"/><circle cx="240.3" cy="178.0" r="3.4" fill="#00FFA3"/><line x1="247.3" x2="247.3" y1="211.1" y2="119.3" stroke="#00FFA3" stroke-opacity="0.35" stroke-width="4"/><circle cx="247.3" cy="160.0" r="3.4" fill="#00FFA3"/><line x1="254.2" x2="254.2" y1="241.8" y2="158.1" stroke="#FF2D55" stroke-opacity="0.35" stroke-width="4"/><circle cx="254.2" cy="207.9" r="3.4" fill="#FF2D55"/><line x1="261.1" x2="261.1" y1="238.8" y2="117.1" stroke="#00FFA3" stroke-opacity="0.35" stroke-width="4"/><circle cx="261.1" cy="163.3" r="3.4" fill="#00FFA3"/><line x1="268.1" x2="268.1" y1="205.4" y2="144.3" stroke="#00FFA3" stroke-opacity="0.35" stroke-width="4"/><circle cx="268.1" cy="181.3" r="3.4" fill="#00FFA3"/><line x1="275.0" x2="275.0" y1="168.5" y2="91.4" stroke="#00FFA3" stroke-opacity="0.35" stroke-width="4"/><circle cx="275.0" cy="132.1" r="3.4" fill="#00FFA3"/><line x1="281.9" x2="281.9" y1="240.5" y2="146.6" stroke="#00FFA3" stroke-opacity="0.35" stroke-width="4"/><circle cx="281.9" cy="181.7" r="3.4" fill="#00FFA3"/><line x1="288.9" x2="288.9" y1="175.7" y2="123.8" stroke="#00FFA3" stroke-opacity="0.35" stroke-width="4"/><circle cx="288.9" cy="139.5" r="3.4" fill="#00FFA3"/><line x1="295.8" x2="295.8" y1="205.1" y2="112.9" stroke="#00FFA3" stroke-opacity="0.35" stroke-width="4"/><circle cx="295.8" cy="176.0" r="3.4" fill="#00FFA3"/><line x1="302.7" x2="302.7" y1="196.7" y2="137.8" stroke="#00FFA3" stroke-opacity="0.35" stroke-width="4"/><circle cx="302.7" cy="166.3" r="3.4" fill="#00FFA3"/><line x1="309.6" x2="309.6" y1="265.4" y2="163.2" stroke="#00FFA3" stroke-opacity="0.35" stroke-width="4"/><circle cx="309.6" cy="188.1" r="3.4" fill="#00FFA3"/><line x1="316.6" x2="316.6" y1="199.5" y2="133.0" stroke="#00FFA3" stroke-opacity="0.35" stroke-width="4"/><circle cx="316.6" cy="166.3" r="3.4" fill="#00FFA3"/><line x1="323.5" x2="323.5" y1="207.4" y2="143.4" stroke="#00FFA3" stroke-opacity="0.35" stroke-width="4"/><circle cx="323.5" cy="164.2" r="3.4" fill="#00FFA3"/><line x1="330.4" x2="330.4" y1="225.5" y2="152.0" stroke="#00FFA3" stroke-opacity="0.35" stroke-width="4"/><circle cx="330.4" cy="188.6" r="3.4" fill="#00FFA3"/><line x1="337.4" x2="337.4" y1="224.2" y2="175.0" stroke="#00FFA3" stroke-opacity="0.35" stroke-width="4"/><circle cx="337.4" cy="200.6" r="3.4" fill="#00FFA3"/><line x1="344.3" x2="344.3" y1="182.3" y2="146.5" stroke="#00FFA3" stroke-opacity="0.35" stroke-width="4"/><circle cx="344.3" cy="160.2" r="3.4" fill="#00FFA3"/><line x1="351.2" x2="351.2" y1="229.9" y2="152.7" stroke="#00FFA3" stroke-opacity="0.35" stroke-width="4"/><circle cx="351.2" cy="186.6" r="3.4" fill="#00FFA3"/><line x1="358.2" x2="358.2" y1="191.8" y2="93.6" stroke="#00FFA3" stroke-opacity="0.35" stroke-width="4"/><circle cx="358.2" cy="157.8" r="3.4" fill="#00FFA3"/><line x1="365.1" x2="365.1" y1="244.2" y2="137.9" stroke="#00FFA3" stroke-opacity="0.35" stroke-width="4"/><circle cx="365.1" cy="198.2" r="3.4" fill="#00FFA3"/><line x1="372.0" x2="372.0" y1="197.0" y2="142.3" stroke="#00FFA3" stroke-opacity="0.35" stroke-width="4"/><circle cx="372.0" cy="171.0" r="3.4" fill="#00FFA3"/><line x1="379.0" x2="379.0" y1="208.5" y2="102.8" stroke="#00FFA3" stroke-opacity="0.35" stroke-width="4"/><circle cx="379.0" cy="169.0" r="3.4" fill="#00FFA3"/><line x1="385.9" x2="385.9" y1="233.0" y2="180.6" stroke="#00FFA3" stroke-opacity="0.35" stroke-width="4"/><circle cx="385.9" cy="190.6" r="3.4" fill="#00FFA3"/><line x1="392.8" x2="392.8" y1="241.4" y2="127.1" stroke="#00FFA3" stroke-opacity="0.35" stroke-width="4"/><circle cx="392.8" cy="180.1" r="3.4" fill="#00FFA3"/><line x1="399.7" x2="399.7" y1="195.3" y2="134.0" stroke="#00FFA3" stroke-opacity="0.35" stroke-width="4"/><circle cx="399.7" cy="168.3" r="3.4" fill="#00FFA3"/><line x1="406.7" x2="406.7" y1="212.1" y2="119.2" stroke="#00FFA3" stroke-opacity="0.35" stroke-width="4"/><circle cx="406.7" cy="144.9" r="3.4" fill="#00FFA3"/><line x1="413.6" x2="413.6" y1="259.7" y2="151.7" stroke="#00FFA3" stroke-opacity="0.35" stroke-width="4"/><circle cx="413.6" cy="177.6" r="3.4" fill="#00FFA3"/><line x1="420.5" x2="420.5" y1="230.4" y2="160.9" stroke="#00FFA3" stroke-opacity="0.35" stroke-width="4"/><circle cx="420.5" cy="199.2" r="3.4" fill="#00FFA3"/><line x1="427.5" x2="427.5" y1="207.4" y2="141.9" stroke="#00FFA3" stroke-opacity="0.35" stroke-width="4"/><circle cx="427.5" cy="181.4" r="3.4" fill="#00FFA3"/><line x1="434.4" x2="434.4" y1="240.3" y2="151.7" stroke="#00FFA3" stroke-opacity="0.35" stroke-width="4"/><circle cx="434.4" cy="197.3" r="3.4" fill="#00FFA3"/><line x1="441.3" x2="441.3" y1="263.7" y2="184.4" stroke="#FF2D55" stroke-opacity="0.35" stroke-width="4"/><circle cx="441.3" cy="240.0" r="3.4" fill="#FF2D55"/><line x1="448.3" x2="448.3" y1="205.6" y2="111.4" stroke="#00FFA3" stroke-opacity="0.35" stroke-width="4"/><circle cx="448.3" cy="144.4" r="3.4" fill="#00FFA3"/><line x1="455.2" x2="455.2" y1="183.9" y2="123.2" stroke="#00FFA3" stroke-opacity="0.35" stroke-width="4"/><circle cx="455.2" cy="151.8" r="3.4" fill="#00FFA3"/><line x1="462.1" x2="462.1" y1="233.9" y2="174.5" stroke="#00FFA3" stroke-opacity="0.35" stroke-width="4"/><circle cx="462.1" cy="196.4" r="3.4" fill="#00FFA3"/><line x1="469.0" x2="469.0" y1="217.7" y2="160.5" stroke="#00FFA3" stroke-opacity="0.35" stroke-width="4"/><circle cx="469.0" cy="185.1" r="3.4" fill="#00FFA3"/><line x1="476.0" x2="476.0" y1="217.0" y2="140.7" stroke="#00FFA3" stroke-opacity="0.35" stroke-width="4"/><circle cx="476.0" cy="173.3" r="3.4" fill="#00FFA3"/><line x1="482.9" x2="482.9" y1="258.2" y2="163.6" stroke="#FF2D55" stroke-opacity="0.35" stroke-width="4"/><circle cx="482.9" cy="214.8" r="3.4" fill="#FF2D55"/><line x1="489.8" x2="489.8" y1="206.9" y2="150.6" stroke="#00FFA3" stroke-opacity="0.35" stroke-width="4"/><circle cx="489.8" cy="176.1" r="3.4" fill="#00FFA3"/><line x1="496.8" x2="496.8" y1="190.1" y2="138.1" stroke="#00FFA3" stroke-opacity="0.35" stroke-width="4"/><circle cx="496.8" cy="162.0" r="3.4" fill="#00FFA3"/><line x1="503.7" x2="503.7" y1="235.2" y2="155.8" stroke="#00FFA3" stroke-opacity="0.35" stroke-width="4"/><circle cx="503.7" cy="190.5" r="3.4" fill="#00FFA3"/><line x1="510.6" x2="510.6" y1="222.8" y2="128.0" stroke="#00FFA3" stroke-opacity="0.35" stroke-width="4"/><circle cx="510.6" cy="168.4" r="3.4" fill="#00FFA3"/><line x1="517.6" x2="517.6" y1="255.1" y2="195.0" stroke="#FF2D55" stroke-opacity="0.35" stroke-width="4"/><circle cx="517.6" cy="228.3" r="3.4" fill="#FF2D55"/><line x1="524.5" x2="524.5" y1="203.3" y2="146.7" stroke="#00FFA3" stroke-opacity="0.35" stroke-width="4"/><circle cx="524.5" cy="166.5" r="3.4" fill="#00FFA3"/><line x1="531.4" x2="531.4" y1="228.6" y2="153.8" stroke="#00FFA3" stroke-opacity="0.35" stroke-width="4"/><circle cx="531.4" cy="175.8" r="3.4" fill="#00FFA3"/><line x1="538.4" x2="538.4" y1="276.0" y2="188.1" stroke="#FF2D55" stroke-opacity="0.35" stroke-width="4"/><circle cx="538.4" cy="235.8" r="3.4" fill="#FF2D55"/><line x1="545.3" x2="545.3" y1="202.3" y2="151.5" stroke="#00FFA3" stroke-opacity="0.35" stroke-width="4"/><circle cx="545.3" cy="169.5" r="3.4" fill="#00FFA3"/><line x1="552.2" x2="552.2" y1="238.8" y2="167.6" stroke="#FF2D55" stroke-opacity="0.35" stroke-width="4"/><circle cx="552.2" cy="209.2" r="3.4" fill="#FF2D55"/><line x1="559.1" x2="559.1" y1="189.4" y2="148.4" stroke="#00FFA3" stroke-opacity="0.35" stroke-width="4"/><circle cx="559.1" cy="168.6" r="3.4" fill="#00FFA3"/><line x1="566.1" x2="566.1" y1="240.3" y2="136.8" stroke="#00FFA3" stroke-opacity="0.35" stroke-width="4"/><circle cx="566.1" cy="198.0" r="3.4" fill="#00FFA3"/><line x1="573.0" x2="573.0" y1="220.4" y2="158.1" stroke="#00FFA3" stroke-opacity="0.35" stroke-width="4"/><circle cx="573.0" cy="200.2" r="3.4" fill="#00FFA3"/><line x1="579.9" x2="579.9" y1="211.8" y2="142.0" stroke="#00FFA3" stroke-opacity="0.35" stroke-width="4"/><circle cx="579.9" cy="188.1" r="3.4" fill="#00FFA3"/><line x1="586.9" x2="586.9" y1="213.9" y2="133.9" stroke="#00FFA3" stroke-opacity="0.35" stroke-width="4"/><circle cx="586.9" cy="179.2" r="3.4" fill="#00FFA3"/><line x1="593.8" x2="593.8" y1="249.7" y2="155.9" stroke="#00FFA3" stroke-opacity="0.35" stroke-width="4"/><circle cx="593.8" cy="196.1" r="3.4" fill="#00FFA3"/><line x1="600.7" x2="600.7" y1="247.8" y2="172.2" stroke="#FF2D55" stroke-opacity="0.35" stroke-width="4"/><circle cx="600.7" cy="213.1" r="3.4" fill="#FF2D55"/><line x1="607.7" x2="607.7" y1="231.2" y2="127.9" stroke="#00FFA3" stroke-opacity="0.35" stroke-width="4"/><circle cx="607.7" cy="160.9" r="3.4" fill="#00FFA3"/><line x1="614.6" x2="614.6" y1="257.0" y2="177.6" stroke="#00FFA3" stroke-opacity="0.35" stroke-width="4"/><circle cx="614.6" cy="203.7" r="3.4" fill="#00FFA3"/><line x1="621.5" x2="621.5" y1="233.7" y2="164.4" stroke="#FF2D55" stroke-opacity="0.35" stroke-width="4"/><circle cx="621.5" cy="208.0" r="3.4" fill="#FF2D55"/><line x1="628.5" x2="628.5" y1="231.4" y2="186.2" stroke="#00FFA3" stroke-opacity="0.35" stroke-width="4"/><circle cx="628.5" cy="203.7" r="3.4" fill="#00FFA3"/><line x1="635.4" x2="635.4" y1="233.6" y2="148.0" stroke="#00FFA3" stroke-opacity="0.35" stroke-width="4"/><circle cx="635.4" cy="202.6" r="3.4" fill="#00FFA3"/><line x1="642.3" x2="642.3" y1="241.0" y2="175.0" stroke="#FF2D55" stroke-opacity="0.35" stroke-width="4"/><circle cx="642.3" cy="210.7" r="3.4" fill="#FF2D55"/><line x1="649.2" x2="649.2" y1="208.9" y2="157.8" stroke="#00FFA3" stroke-opacity="0.35" stroke-width="4"/><circle cx="649.2" cy="179.7" r="3.4" fill="#00FFA3"/><line x1="656.2" x2="656.2" y1="162.3" y2="126.0" stroke="#00FFA3" stroke-opacity="0.35" stroke-width="4"/><circle cx="656.2" cy="144.4" r="3.4" fill="#00FFA3"/><line x1="663.1" x2="663.1" y1="225.1" y2="161.3" stroke="#00FFA3" stroke-opacity="0.35" stroke-width="4"/><circle cx="663.1" cy="204.8" r="3.4" fill="#00FFA3"/><line x1="670.0" x2="670.0" y1="216.6" y2="162.4" stroke="#00FFA3" stroke-opacity="0.35" stroke-width="4"/><circle cx="670.0" cy="196.0" r="3.4" fill="#00FFA3"/><line x1="677.0" x2="677.0" y1="258.3" y2="209.9" stroke="#FF2D55" stroke-opacity="0.35" stroke-width="4"/><circle cx="677.0" cy="231.4" r="3.4" fill="#FF2D55"/><line x1="683.9" x2="683.9" y1="231.0" y2="152.2" stroke="#00FFA3" stroke-opacity="0.35" stroke-width="4"/><circle cx="683.9" cy="194.4" r="3.4" fill="#00FFA3"/><line x1="690.8" x2="690.8" y1="253.9" y2="162.4" stroke="#00FFA3" stroke-opacity="0.35" stroke-width="4"/><circle cx="690.8" cy="205.6" r="3.4" fill="#00FFA3"/><line x1="697.8" x2="697.8" y1="236.2" y2="179.4" stroke="#00FFA3" stroke-opacity="0.35" stroke-width="4"/><circle cx="697.8" cy="205.5" r="3.4" fill="#00FFA3"/><line x1="704.7" x2="704.7" y1="220.4" y2="179.6" stroke="#00FFA3" stroke-opacity="0.35" stroke-width="4"/><circle cx="704.7" cy="199.0" r="3.4" fill="#00FFA3"/><line x1="711.6" x2="711.6" y1="242.5" y2="167.7" stroke="#FF2D55" stroke-opacity="0.35" stroke-width="4"/><circle cx="711.6" cy="208.8" r="3.4" fill="#FF2D55"/><line x1="718.6" x2="718.6" y1="221.9" y2="144.9" stroke="#00FFA3" stroke-opacity="0.35" stroke-width="4"/><circle cx="718.6" cy="175.4" r="3.4" fill="#00FFA3"/><line x1="725.5" x2="725.5" y1="232.8" y2="174.3" stroke="#FF2D55" stroke-opacity="0.35" stroke-width="4"/><circle cx="725.5" cy="213.6" r="3.4" fill="#FF2D55"/><line x1="732.4" x2="732.4" y1="243.9" y2="167.0" stroke="#FF2D55" stroke-opacity="0.35" stroke-width="4"/><circle cx="732.4" cy="218.1" r="3.4" fill="#FF2D55"/><line x1="739.3" x2="739.3" y1="231.7" y2="178.9" stroke="#00FFA3" stroke-opacity="0.35" stroke-width="4"/><circle cx="739.3" cy="204.4" r="3.4" fill="#00FFA3"/><line x1="746.3" x2="746.3" y1="239.5" y2="179.5" stroke="#FF2D55" stroke-opacity="0.35" stroke-width="4"/><circle cx="746.3" cy="214.1" r="3.4" fill="#FF2D55"/><line x1="753.2" x2="753.2" y1="236.0" y2="189.6" stroke="#FF2D55" stroke-opacity="0.35" stroke-width="4"/><circle cx="753.2" cy="218.4" r="3.4" fill="#FF2D55"/><line x1="760.1" x2="760.1" y1="230.2" y2="154.0" stroke="#00FFA3" stroke-opacity="0.35" stroke-width="4"/><circle cx="760.1" cy="198.3" r="3.4" fill="#00FFA3"/><line x1="767.1" x2="767.1" y1="234.8" y2="178.9" stroke="#FF2D55" stroke-opacity="0.35" stroke-width="4"/><circle cx="767.1" cy="218.2" r="3.4" fill="#FF2D55"/><rect x="572.7" y="134.0" width="196.3" height="18" fill="#0B0B12" opacity="0.85"/><text x="766.0" y="147.0" font-size="13" fill="#C8C8D2" text-anchor="end">dashed = any day: +2.67%</text></svg>