<svg xmlns="http://www.w3.org/2000/svg" viewBox="0 0 800 420" width="800" height="420" font-family="ui-monospace,SFMono-Regular,Menlo,monospace"><rect width="800" height="420" fill="#0B0B12"/><text x="74" y="26" font-size="18" fill="#C8C8D2" font-weight="600">Wait until back above the prior swing high</text><text x="74" y="48" font-size="14" fill="#8E8EA0">WTI crude oil · middle wait (Kaplan–Meier) · green = shorter than any day</text><line x1="74" x2="774" y1="362.0" y2="362.0" stroke="#1C1C26"/><text x="66" y="367.0" font-size="14" fill="#8E8EA0" text-anchor="end">0</text><line x1="74" x2="774" y1="329.9" y2="329.9" stroke="#1C1C26"/><text x="66" y="334.9" font-size="14" fill="#8E8EA0" text-anchor="end">1</text><line x1="74" x2="774" y1="311.2" y2="311.2" stroke="#1C1C26"/><text x="66" y="316.2" font-size="14" fill="#8E8EA0" text-anchor="end">2</text><line x1="74" x2="774" y1="279.1" y2="279.1" stroke="#1C1C26"/><text x="66" y="284.1" font-size="14" fill="#8E8EA0" text-anchor="end">5</text><line x1="74" x2="774" y1="251.1" y2="251.1" stroke="#1C1C26"/><text x="66" y="256.1" font-size="14" fill="#8E8EA0" text-anchor="end">10</text><line x1="74" x2="774" y1="221.2" y2="221.2" stroke="#1C1C26"/><text x="66" y="226.2" font-size="14" fill="#8E8EA0" text-anchor="end">20</text><line x1="74" x2="774" y1="180.1" y2="180.1" stroke="#1C1C26"/><text x="66" y="185.1" font-size="14" fill="#8E8EA0" text-anchor="end">50</text><line x1="74" x2="774" y1="148.5" y2="148.5" stroke="#1C1C26"/><text x="66" y="153.5" font-size="14" fill="#8E8EA0" text-anchor="end">100</text><line x1="74" x2="774" y1="116.7" y2="116.7" stroke="#1C1C26"/><text x="66" y="121.7" font-size="14" fill="#8E8EA0" text-anchor="end">200</text><line x1="74" x2="774" y1="74.4" y2="74.4" stroke="#1C1C26"/><text x="66" y="79.4" font-size="14" fill="#8E8EA0" text-anchor="end">500</text><line y1="66" y2="362" x1="80.9" x2="80.9" stroke="#1C1C26"/><text y="382" x="80.9" font-size="14" fill="#8E8EA0" text-anchor="middle">1</text><line y1="66" y2="362" x1="143.3" x2="143.3" stroke="#1C1C26"/><text y="382" x="143.3" font-size="14" fill="#8E8EA0" text-anchor="middle">10</text><line y1="66" y2="362" x1="212.6" x2="212.6" stroke="#1C1C26"/><text y="382" x="212.6" font-size="14" fill="#8E8EA0" text-anchor="middle">20</text><line y1="66" y2="362" x1="281.9" x2="281.9" stroke="#1C1C26"/><text y="382" x="281.9" font-size="14" fill="#8E8EA0" text-anchor="middle">30</text><line y1="66" y2="362" x1="351.2" x2="351.2" stroke="#1C1C26"/><text y="382" x="351.2" font-size="14" fill="#8E8EA0" text-anchor="middle">40</text><line y1="66" y2="362" x1="420.5" x2="420.5" stroke="#1C1C26"/><text y="382" x="420.5" font-size="14" fill="#8E8EA0" text-anchor="middle">50</text><line y1="66" y2="362" x1="489.8" x2="489.8" stroke="#1C1C26"/><text y="382" x="489.8" font-size="14" fill="#8E8EA0" text-anchor="middle">60</text><line y1="66" y2="362" x1="559.1" x2="559.1" stroke="#1C1C26"/><text y="382" x="559.1" font-size="14" fill="#8E8EA0" text-anchor="middle">70</text><line y1="66" y2="362" x1="628.5" x2="628.5" stroke="#1C1C26"/><text y="382" x="628.5" font-size="14" fill="#8E8EA0" text-anchor="middle">80</text><line y1="66" y2="362" x1="697.8" x2="697.8" stroke="#1C1C26"/><text y="382" x="697.8" font-size="14" fill="#8E8EA0" text-anchor="middle">90</text><line y1="66" y2="362" x1="767.1" x2="767.1" stroke="#1C1C26"/><text y="382" x="767.1" font-size="14" fill="#8E8EA0" text-anchor="middle">100</text><rect x="74" y="66" width="700" height="296" fill="none" stroke="#34343F"/><text x="424" y="408" font-size="14" fill="#B4B4C6" text-anchor="middle">rung of the day's RSI (1 = most oversold 1% of days)</text><text transform="translate(18 214) rotate(-90)" font-size="14" fill="#B4B4C6" text-anchor="middle">sessions (log)</text><line x1="74" x2="774" y1="228.3" y2="228.3" stroke="#00FFA3" stroke-width="2" stroke-dasharray="8 6"/><circle cx="80.9" cy="79.9" r="3.4" fill="#FF2D55"/><circle cx="87.9" cy="102.3" r="3.4" fill="#FF2D55"/><circle cx="94.8" cy="101.5" r="3.4" fill="#FF2D55"/><circle cx="101.7" cy="102.7" r="3.4" fill="#FF2D55"/><circle cx="108.7" cy="108.4" r="3.4" fill="#FF2D55"/><circle cx="115.6" cy="103.5" r="3.4" fill="#FF2D55"/><circle cx="122.5" cy="138.3" r="3.4" fill="#FF2D55"/><circle cx="129.4" cy="110.8" r="3.4" fill="#FF2D55"/><circle cx="136.4" cy="127.2" r="3.4" fill="#FF2D55"/><circle cx="143.3" cy="118.3" r="3.4" fill="#FF2D55"/><circle cx="150.2" cy="113.1" r="3.4" fill="#FF2D55"/><circle cx="157.2" cy="113.3" r="3.4" fill="#FF2D55"/><circle cx="164.1" cy="112.3" r="3.4" fill="#FF2D55"/><circle cx="171.0" cy="155.9" r="3.4" fill="#FF2D55"/><circle cx="178.0" cy="159.9" r="3.4" fill="#FF2D55"/><circle cx="184.9" cy="128.7" r="3.4" fill="#FF2D55"/><circle cx="191.8" cy="161.6" r="3.4" fill="#FF2D55"/><circle cx="198.8" cy="114.4" r="3.4" fill="#FF2D55"/><circle cx="205.7" cy="147.6" r="3.4" fill="#FF2D55"/><circle cx="212.6" cy="154.3" r="3.4" fill="#FF2D55"/><circle cx="219.5" cy="154.9" r="3.4" fill="#FF2D55"/><circle cx="226.5" cy="177.5" r="3.4" fill="#FF2D55"/><circle cx="233.4" cy="182.0" r="3.4" fill="#FF2D55"/><circle cx="240.3" cy="171.8" r="3.4" fill="#FF2D55"/><circle cx="247.3" cy="174.2" r="3.4" fill="#FF2D55"/><circle cx="254.2" cy="159.9" r="3.4" fill="#FF2D55"/><circle cx="261.1" cy="192.5" r="3.4" fill="#FF2D55"/><circle cx="268.1" cy="180.1" r="3.4" fill="#FF2D55"/><circle cx="275.0" cy="203.1" r="3.4" fill="#FF2D55"/><circle cx="281.9" cy="190.2" r="3.4" fill="#FF2D55"/><circle cx="288.9" cy="182.0" r="3.4" fill="#FF2D55"/><circle cx="295.8" cy="200.2" r="3.4" fill="#FF2D55"/><circle cx="302.7" cy="209.5" r="3.4" fill="#FF2D55"/><circle cx="309.6" cy="179.2" r="3.4" fill="#FF2D55"/><circle cx="316.6" cy="201.7" r="3.4" fill="#FF2D55"/><circle cx="323.5" cy="192.5" r="3.4" fill="#FF2D55"/><circle cx="330.4" cy="204.6" r="3.4" fill="#FF2D55"/><circle cx="337.4" cy="192.5" r="3.4" fill="#FF2D55"/><circle cx="344.3" cy="206.2" r="3.4" fill="#FF2D55"/><circle cx="351.2" cy="185.9" r="3.4" fill="#FF2D55"/><circle cx="358.2" cy="233.7" r="3.4" fill="#00FFA3"/><circle cx="365.1" cy="213.1" r="3.4" fill="#FF2D55"/><circle cx="372.0" cy="197.5" r="3.4" fill="#FF2D55"/><circle cx="379.0" cy="223.4" r="3.4" fill="#FF2D55"/><circle cx="385.9" cy="211.3" r="3.4" fill="#FF2D55"/><circle cx="392.8" cy="204.6" r="3.4" fill="#FF2D55"/><circle cx="399.7" cy="228.3" r="3.4" fill="#00FFA3"/><circle cx="406.7" cy="223.4" r="3.4" fill="#FF2D55"/><circle cx="413.6" cy="215.0" r="3.4" fill="#FF2D55"/><circle cx="420.5" cy="219.0" r="3.4" fill="#FF2D55"/><circle cx="427.5" cy="211.3" r="3.4" fill="#FF2D55"/><circle cx="434.4" cy="265.8" r="3.4" fill="#00FFA3"/><circle cx="441.3" cy="230.9" r="3.4" fill="#00FFA3"/><circle cx="448.3" cy="228.3" r="3.4" fill="#00FFA3"/><circle cx="455.2" cy="247.0" r="3.4" fill="#00FFA3"/><circle cx="462.1" cy="233.7" r="3.4" fill="#00FFA3"/><circle cx="469.0" cy="260.3" r="3.4" fill="#00FFA3"/><circle cx="476.0" cy="239.9" r="3.4" fill="#00FFA3"/><circle cx="482.9" cy="239.9" r="3.4" fill="#00FFA3"/><circle cx="489.8" cy="239.9" r="3.4" fill="#00FFA3"/><circle cx="496.8" cy="272.0" r="3.4" fill="#00FFA3"/><circle cx="503.7" cy="260.3" r="3.4" fill="#00FFA3"/><circle cx="510.6" cy="279.1" r="3.4" fill="#00FFA3"/><circle cx="517.6" cy="297.9" r="3.4" fill="#00FFA3"/><circle cx="524.5" cy="272.0" r="3.4" fill="#00FFA3"/><circle cx="531.4" cy="247.0" r="3.4" fill="#00FFA3"/><circle cx="538.4" cy="287.5" r="3.4" fill="#00FFA3"/><circle cx="545.3" cy="279.1" r="3.4" fill="#00FFA3"/><circle cx="552.2" cy="279.1" r="3.4" fill="#00FFA3"/><circle cx="559.1" cy="329.9" r="3.4" fill="#00FFA3"/><circle cx="566.1" cy="287.5" r="3.4" fill="#00FFA3"/><circle cx="573.0" cy="329.9" r="3.4" fill="#00FFA3"/><circle cx="579.9" cy="329.9" r="3.4" fill="#00FFA3"/><circle cx="586.9" cy="311.2" r="3.4" fill="#00FFA3"/><circle cx="593.8" cy="362.0" r="3.4" fill="#00FFA3"/><circle cx="600.7" cy="329.9" r="3.4" fill="#00FFA3"/><circle cx="607.7" cy="362.0" r="3.4" fill="#00FFA3"/><circle cx="614.6" cy="329.9" r="3.4" fill="#00FFA3"/><circle cx="621.5" cy="362.0" r="3.4" fill="#00FFA3"/><circle cx="628.5" cy="362.0" r="3.4" fill="#00FFA3"/><circle cx="635.4" cy="362.0" r="3.4" fill="#00FFA3"/><circle cx="642.3" cy="362.0" r="3.4" fill="#00FFA3"/><circle cx="649.2" cy="362.0" r="3.4" fill="#00FFA3"/><circle cx="656.2" cy="362.0" r="3.4" fill="#00FFA3"/><circle cx="663.1" cy="362.0" r="3.4" fill="#00FFA3"/><circle cx="670.0" cy="362.0" r="3.4" fill="#00FFA3"/><circle cx="677.0" cy="362.0" r="3.4" fill="#00FFA3"/><circle cx="683.9" cy="362.0" r="3.4" fill="#00FFA3"/><circle cx="690.8" cy="362.0" r="3.4" fill="#00FFA3"/><circle cx="697.8" cy="362.0" r="3.4" fill="#00FFA3"/><circle cx="704.7" cy="362.0" r="3.4" fill="#00FFA3"/><circle cx="711.6" cy="362.0" r="3.4" fill="#00FFA3"/><circle cx="718.6" cy="362.0" r="3.4" fill="#00FFA3"/><circle cx="725.5" cy="362.0" r="3.4" fill="#00FFA3"/><circle cx="732.4" cy="362.0" r="3.4" fill="#00FFA3"/><circle cx="739.3" cy="362.0" r="3.4" fill="#00FFA3"/><circle cx="746.3" cy="362.0" r="3.4" fill="#00FFA3"/><circle cx="753.2" cy="362.0" r="3.4" fill="#00FFA3"/><circle cx="760.1" cy="362.0" r="3.4" fill="#00FFA3"/><circle cx="767.1" cy="362.0" r="3.4" fill="#00FFA3"/><rect x="604.4" y="176.3" width="164.6" height="18" fill="#0B0B12" opacity="0.85"/><text x="766.0" y="189.3" font-size="13" fill="#C8C8D2" text-anchor="end">dashed = any day: 17</text></svg>