<svg xmlns="http://www.w3.org/2000/svg" viewBox="0 0 800 420" width="800" height="420" font-family="ui-monospace,SFMono-Regular,Menlo,monospace"><rect width="800" height="420" fill="#0B0B12"/><text x="74" y="26" font-size="18" fill="#C8C8D2" font-weight="600">60 sessions later: middle result</text><text x="74" y="48" font-size="14" fill="#8E8EA0">US dollar index · band from whole quarters resampled</text><line x1="74" x2="774" y1="347.4" y2="347.4" stroke="#1C1C26"/><text x="66" y="352.4" font-size="14" fill="#8E8EA0" text-anchor="end">-3%</text><line x1="74" x2="774" y1="304.2" y2="304.2" stroke="#1C1C26"/><text x="66" y="309.2" font-size="14" fill="#8E8EA0" text-anchor="end">-2%</text><line x1="74" x2="774" y1="260.9" y2="260.9" stroke="#1C1C26"/><text x="66" y="265.9" font-size="14" fill="#8E8EA0" text-anchor="end">-1%</text><line x1="74" x2="774" y1="217.7" y2="217.7" stroke="#1C1C26"/><text x="66" y="222.7" font-size="14" fill="#8E8EA0" text-anchor="end">0%</text><line x1="74" x2="774" y1="174.4" y2="174.4" stroke="#1C1C26"/><text x="66" y="179.4" font-size="14" fill="#8E8EA0" text-anchor="end">+1%</text><line x1="74" x2="774" y1="131.2" y2="131.2" stroke="#1C1C26"/><text x="66" y="136.2" font-size="14" fill="#8E8EA0" text-anchor="end">+2%</text><line x1="74" x2="774" y1="87.9" y2="87.9" stroke="#1C1C26"/><text x="66" y="92.9" font-size="14" fill="#8E8EA0" text-anchor="end">+3%</text><line y1="66" y2="362" x1="80.9" x2="80.9" stroke="#1C1C26"/><text y="382" x="80.9" font-size="14" fill="#8E8EA0" text-anchor="middle">1</text><line y1="66" y2="362" x1="143.3" x2="143.3" stroke="#1C1C26"/><text y="382" x="143.3" font-size="14" fill="#8E8EA0" text-anchor="middle">10</text><line y1="66" y2="362" x1="212.6" x2="212.6" stroke="#1C1C26"/><text y="382" x="212.6" font-size="14" fill="#8E8EA0" text-anchor="middle">20</text><line y1="66" y2="362" x1="281.9" x2="281.9" stroke="#1C1C26"/><text y="382" x="281.9" font-size="14" fill="#8E8EA0" text-anchor="middle">30</text><line y1="66" y2="362" x1="351.2" x2="351.2" stroke="#1C1C26"/><text y="382" x="351.2" font-size="14" fill="#8E8EA0" text-anchor="middle">40</text><line y1="66" y2="362" x1="420.5" x2="420.5" stroke="#1C1C26"/><text y="382" x="420.5" font-size="14" fill="#8E8EA0" text-anchor="middle">50</text><line y1="66" y2="362" x1="489.8" x2="489.8" stroke="#1C1C26"/><text y="382" x="489.8" font-size="14" fill="#8E8EA0" text-anchor="middle">60</text><line y1="66" y2="362" x1="559.1" x2="559.1" stroke="#1C1C26"/><text y="382" x="559.1" font-size="14" fill="#8E8EA0" text-anchor="middle">70</text><line y1="66" y2="362" x1="628.5" x2="628.5" stroke="#1C1C26"/><text y="382" x="628.5" font-size="14" fill="#8E8EA0" text-anchor="middle">80</text><line y1="66" y2="362" x1="697.8" x2="697.8" stroke="#1C1C26"/><text y="382" x="697.8" font-size="14" fill="#8E8EA0" text-anchor="middle">90</text><line y1="66" y2="362" x1="767.1" x2="767.1" stroke="#1C1C26"/><text y="382" x="767.1" font-size="14" fill="#8E8EA0" text-anchor="middle">100</text><rect x="74" y="66" width="700" height="296" fill="none" stroke="#34343F"/><text x="424" y="408" font-size="14" fill="#B4B4C6" text-anchor="middle">rung of the day's RSI (1 = most oversold 1% of days)</text><text transform="translate(18 214) rotate(-90)" font-size="14" fill="#B4B4C6" text-anchor="middle">change %</text><line x1="74" x2="774" y1="216.4" y2="216.4" stroke="#00FFA3" stroke-width="2" stroke-dasharray="8 6"/><line x1="80.9" x2="80.9" y1="340.1" y2="232.0" stroke="#FF2D55" stroke-opacity="0.35" stroke-width="4"/><circle cx="80.9" cy="320.6" r="3.4" fill="#FF2D55"/><line x1="87.9" x2="87.9" y1="254.4" y2="213.4" stroke="#FF2D55" stroke-opacity="0.35" stroke-width="4"/><circle cx="87.9" cy="226.3" r="3.4" fill="#FF2D55"/><line x1="94.8" x2="94.8" y1="242.8" y2="181.3" stroke="#00FFA3" stroke-opacity="0.35" stroke-width="4"/><circle cx="94.8" cy="204.3" r="3.4" fill="#00FFA3"/><line x1="101.7" x2="101.7" y1="255.3" y2="198.2" stroke="#FF2D55" stroke-opacity="0.35" stroke-width="4"/><circle cx="101.7" cy="219.8" r="3.4" fill="#FF2D55"/><line x1="108.7" x2="108.7" y1="299.9" y2="244.9" stroke="#FF2D55" stroke-opacity="0.35" stroke-width="4"/><circle cx="108.7" cy="272.6" r="3.4" fill="#FF2D55"/><line x1="115.6" x2="115.6" y1="311.5" y2="242.8" stroke="#FF2D55" stroke-opacity="0.35" stroke-width="4"/><circle cx="115.6" cy="276.1" r="3.4" fill="#FF2D55"/><line x1="122.5" x2="122.5" y1="295.5" y2="203.8" stroke="#FF2D55" stroke-opacity="0.35" stroke-width="4"/><circle cx="122.5" cy="257.0" r="3.4" fill="#FF2D55"/><line x1="129.4" x2="129.4" y1="297.7" y2="222.4" stroke="#FF2D55" stroke-opacity="0.35" stroke-width="4"/><circle cx="129.4" cy="262.2" r="3.4" fill="#FF2D55"/><line x1="136.4" x2="136.4" y1="346.1" y2="242.8" stroke="#FF2D55" stroke-opacity="0.35" stroke-width="4"/><circle cx="136.4" cy="286.9" r="3.4" fill="#FF2D55"/><line x1="143.3" x2="143.3" y1="251.8" y2="194.8" stroke="#FF2D55" stroke-opacity="0.35" stroke-width="4"/><circle cx="143.3" cy="219.8" r="3.4" fill="#FF2D55"/><line x1="150.2" x2="150.2" y1="320.6" y2="215.9" stroke="#FF2D55" stroke-opacity="0.35" stroke-width="4"/><circle cx="150.2" cy="238.0" r="3.4" fill="#FF2D55"/><line x1="157.2" x2="157.2" y1="294.7" y2="219.0" stroke="#FF2D55" stroke-opacity="0.35" stroke-width="4"/><circle cx="157.2" cy="249.3" r="3.4" fill="#FF2D55"/><line x1="164.1" x2="164.1" y1="262.7" y2="186.5" stroke="#00FFA3" stroke-opacity="0.35" stroke-width="4"/><circle cx="164.1" cy="212.1" r="3.4" fill="#00FFA3"/><line x1="171.0" x2="171.0" y1="285.6" y2="208.2" stroke="#FF2D55" stroke-opacity="0.35" stroke-width="4"/><circle cx="171.0" cy="261.8" r="3.4" fill="#FF2D55"/><line x1="178.0" x2="178.0" y1="294.7" y2="198.2" stroke="#FF2D55" stroke-opacity="0.35" stroke-width="4"/><circle cx="178.0" cy="234.1" r="3.4" fill="#FF2D55"/><line x1="184.9" x2="184.9" y1="273.0" y2="199.5" stroke="#FF2D55" stroke-opacity="0.35" stroke-width="4"/><circle cx="184.9" cy="237.6" r="3.4" fill="#FF2D55"/><line x1="191.8" x2="191.8" y1="298.1" y2="221.1" stroke="#FF2D55" stroke-opacity="0.35" stroke-width="4"/><circle cx="191.8" cy="249.7" r="3.4" fill="#FF2D55"/><line x1="198.8" x2="198.8" y1="232.4" y2="162.7" stroke="#00FFA3" stroke-opacity="0.35" stroke-width="4"/><circle cx="198.8" cy="213.8" r="3.4" fill="#00FFA3"/><line x1="205.7" x2="205.7" y1="260.1" y2="198.2" stroke="#FF2D55" stroke-opacity="0.35" stroke-width="4"/><circle cx="205.7" cy="227.6" r="3.4" fill="#FF2D55"/><line x1="212.6" x2="212.6" y1="276.5" y2="200.4" stroke="#FF2D55" stroke-opacity="0.35" stroke-width="4"/><circle cx="212.6" cy="237.1" r="3.4" fill="#FF2D55"/><line x1="219.5" x2="219.5" y1="260.9" y2="183.9" stroke="#00FFA3" stroke-opacity="0.35" stroke-width="4"/><circle cx="219.5" cy="216.8" r="3.4" fill="#00FFA3"/><line x1="226.5" x2="226.5" y1="232.4" y2="182.6" stroke="#00FFA3" stroke-opacity="0.35" stroke-width="4"/><circle cx="226.5" cy="216.8" r="3.4" fill="#00FFA3"/><line x1="233.4" x2="233.4" y1="269.1" y2="200.8" stroke="#FF2D55" stroke-opacity="0.35" stroke-width="4"/><circle cx="233.4" cy="236.7" r="3.4" fill="#FF2D55"/><line x1="240.3" x2="240.3" y1="259.2" y2="189.6" stroke="#FF2D55" stroke-opacity="0.35" stroke-width="4"/><circle cx="240.3" cy="235.4" r="3.4" fill="#FF2D55"/><line x1="247.3" x2="247.3" y1="256.6" y2="204.7" stroke="#FF2D55" stroke-opacity="0.35" stroke-width="4"/><circle cx="247.3" cy="235.0" r="3.4" fill="#FF2D55"/><line x1="254.2" x2="254.2" y1="238.0" y2="177.0" stroke="#00FFA3" stroke-opacity="0.35" stroke-width="4"/><circle cx="254.2" cy="203.8" r="3.4" fill="#00FFA3"/><line x1="261.1" x2="261.1" y1="251.8" y2="178.7" stroke="#00FFA3" stroke-opacity="0.35" stroke-width="4"/><circle cx="261.1" cy="211.6" r="3.4" fill="#00FFA3"/><line x1="268.1" x2="268.1" y1="257.0" y2="195.6" stroke="#FF2D55" stroke-opacity="0.35" stroke-width="4"/><circle cx="268.1" cy="225.9" r="3.4" fill="#FF2D55"/><line x1="275.0" x2="275.0" y1="275.2" y2="196.5" stroke="#FF2D55" stroke-opacity="0.35" stroke-width="4"/><circle cx="275.0" cy="222.0" r="3.4" fill="#FF2D55"/><line x1="281.9" x2="281.9" y1="248.8" y2="187.0" stroke="#00FFA3" stroke-opacity="0.35" stroke-width="4"/><circle cx="281.9" cy="217.7" r="3.4" fill="#00FFA3"/><line x1="288.9" x2="288.9" y1="241.0" y2="195.2" stroke="#00FFA3" stroke-opacity="0.35" stroke-width="4"/><circle cx="288.9" cy="214.6" r="3.4" fill="#00FFA3"/><line x1="295.8" x2="295.8" y1="219.4" y2="151.1" stroke="#00FFA3" stroke-opacity="0.35" stroke-width="4"/><circle cx="295.8" cy="199.9" r="3.4" fill="#00FFA3"/><line x1="302.7" x2="302.7" y1="244.9" y2="191.3" stroke="#FF2D55" stroke-opacity="0.35" stroke-width="4"/><circle cx="302.7" cy="220.7" r="3.4" fill="#FF2D55"/><line x1="309.6" x2="309.6" y1="280.4" y2="217.7" stroke="#FF2D55" stroke-opacity="0.35" stroke-width="4"/><circle cx="309.6" cy="248.4" r="3.4" fill="#FF2D55"/><line x1="316.6" x2="316.6" y1="251.0" y2="182.2" stroke="#FF2D55" stroke-opacity="0.35" stroke-width="4"/><circle cx="316.6" cy="234.1" r="3.4" fill="#FF2D55"/><line x1="323.5" x2="323.5" y1="228.5" y2="164.9" stroke="#00FFA3" stroke-opacity="0.35" stroke-width="4"/><circle cx="323.5" cy="193.5" r="3.4" fill="#00FFA3"/><line x1="330.4" x2="330.4" y1="243.2" y2="185.7" stroke="#FF2D55" stroke-opacity="0.35" stroke-width="4"/><circle cx="330.4" cy="225.0" r="3.4" fill="#FF2D55"/><line x1="337.4" x2="337.4" y1="256.6" y2="184.4" stroke="#00FFA3" stroke-opacity="0.35" stroke-width="4"/><circle cx="337.4" cy="212.9" r="3.4" fill="#00FFA3"/><line x1="344.3" x2="344.3" y1="251.4" y2="180.9" stroke="#00FFA3" stroke-opacity="0.35" stroke-width="4"/><circle cx="344.3" cy="217.2" r="3.4" fill="#00FFA3"/><line x1="351.2" x2="351.2" y1="224.2" y2="189.1" stroke="#00FFA3" stroke-opacity="0.35" stroke-width="4"/><circle cx="351.2" cy="211.6" r="3.4" fill="#00FFA3"/><line x1="358.2" x2="358.2" y1="252.7" y2="170.5" stroke="#00FFA3" stroke-opacity="0.35" stroke-width="4"/><circle cx="358.2" cy="216.4" r="3.4" fill="#00FFA3"/><line x1="365.1" x2="365.1" y1="247.1" y2="192.2" stroke="#FF2D55" stroke-opacity="0.35" stroke-width="4"/><circle cx="365.1" cy="220.7" r="3.4" fill="#FF2D55"/><line x1="372.0" x2="372.0" y1="260.9" y2="208.2" stroke="#FF2D55" stroke-opacity="0.35" stroke-width="4"/><circle cx="372.0" cy="237.6" r="3.4" fill="#FF2D55"/><line x1="379.0" x2="379.0" y1="251.0" y2="184.8" stroke="#00FFA3" stroke-opacity="0.35" stroke-width="4"/><circle cx="379.0" cy="217.7" r="3.4" fill="#00FFA3"/><line x1="385.9" x2="385.9" y1="256.6" y2="201.2" stroke="#FF2D55" stroke-opacity="0.35" stroke-width="4"/><circle cx="385.9" cy="223.7" r="3.4" fill="#FF2D55"/><line x1="392.8" x2="392.8" y1="251.8" y2="188.3" stroke="#FF2D55" stroke-opacity="0.35" stroke-width="4"/><circle cx="392.8" cy="220.7" r="3.4" fill="#FF2D55"/><line x1="399.7" x2="399.7" y1="230.7" y2="156.7" stroke="#00FFA3" stroke-opacity="0.35" stroke-width="4"/><circle cx="399.7" cy="196.9" r="3.4" fill="#00FFA3"/><line x1="406.7" x2="406.7" y1="249.3" y2="170.5" stroke="#00FFA3" stroke-opacity="0.35" stroke-width="4"/><circle cx="406.7" cy="206.9" r="3.4" fill="#00FFA3"/><line x1="413.6" x2="413.6" y1="242.8" y2="178.7" stroke="#00FFA3" stroke-opacity="0.35" stroke-width="4"/><circle cx="413.6" cy="217.2" r="3.4" fill="#00FFA3"/><line x1="420.5" x2="420.5" y1="255.7" y2="162.3" stroke="#00FFA3" stroke-opacity="0.35" stroke-width="4"/><circle cx="420.5" cy="202.5" r="3.4" fill="#00FFA3"/><line x1="427.5" x2="427.5" y1="225.5" y2="164.9" stroke="#00FFA3" stroke-opacity="0.35" stroke-width="4"/><circle cx="427.5" cy="194.3" r="3.4" fill="#00FFA3"/><line x1="434.4" x2="434.4" y1="253.1" y2="160.6" stroke="#00FFA3" stroke-opacity="0.35" stroke-width="4"/><circle cx="434.4" cy="211.6" r="3.4" fill="#00FFA3"/><line x1="441.3" x2="441.3" y1="232.0" y2="160.1" stroke="#00FFA3" stroke-opacity="0.35" stroke-width="4"/><circle cx="441.3" cy="199.5" r="3.4" fill="#00FFA3"/><line x1="448.3" x2="448.3" y1="223.7" y2="169.2" stroke="#00FFA3" stroke-opacity="0.35" stroke-width="4"/><circle cx="448.3" cy="197.3" r="3.4" fill="#00FFA3"/><line x1="455.2" x2="455.2" y1="209.5" y2="143.7" stroke="#00FFA3" stroke-opacity="0.35" stroke-width="4"/><circle cx="455.2" cy="157.1" r="3.4" fill="#00FFA3"/><line x1="462.1" x2="462.1" y1="261.4" y2="184.8" stroke="#FF2D55" stroke-opacity="0.35" stroke-width="4"/><circle cx="462.1" cy="219.0" r="3.4" fill="#FF2D55"/><line x1="469.0" x2="469.0" y1="198.2" y2="158.0" stroke="#00FFA3" stroke-opacity="0.35" stroke-width="4"/><circle cx="469.0" cy="184.8" r="3.4" fill="#00FFA3"/><line x1="476.0" x2="476.0" y1="232.8" y2="172.7" stroke="#00FFA3" stroke-opacity="0.35" stroke-width="4"/><circle cx="476.0" cy="196.0" r="3.4" fill="#00FFA3"/><line x1="482.9" x2="482.9" y1="226.3" y2="157.1" stroke="#00FFA3" stroke-opacity="0.35" stroke-width="4"/><circle cx="482.9" cy="199.9" r="3.4" fill="#00FFA3"/><line x1="489.8" x2="489.8" y1="222.0" y2="152.8" stroke="#00FFA3" stroke-opacity="0.35" stroke-width="4"/><circle cx="489.8" cy="183.9" r="3.4" fill="#00FFA3"/><line x1="496.8" x2="496.8" y1="231.1" y2="166.2" stroke="#00FFA3" stroke-opacity="0.35" stroke-width="4"/><circle cx="496.8" cy="200.8" r="3.4" fill="#00FFA3"/><line x1="503.7" x2="503.7" y1="237.6" y2="194.8" stroke="#FF2D55" stroke-opacity="0.35" stroke-width="4"/><circle cx="503.7" cy="218.5" r="3.4" fill="#FF2D55"/><line x1="510.6" x2="510.6" y1="233.7" y2="178.7" stroke="#00FFA3" stroke-opacity="0.35" stroke-width="4"/><circle cx="510.6" cy="209.9" r="3.4" fill="#00FFA3"/><line x1="517.6" x2="517.6" y1="218.5" y2="171.8" stroke="#00FFA3" stroke-opacity="0.35" stroke-width="4"/><circle cx="517.6" cy="197.3" r="3.4" fill="#00FFA3"/><line x1="524.5" x2="524.5" y1="227.2" y2="155.4" stroke="#00FFA3" stroke-opacity="0.35" stroke-width="4"/><circle cx="524.5" cy="200.4" r="3.4" fill="#00FFA3"/><line x1="531.4" x2="531.4" y1="227.2" y2="160.1" stroke="#00FFA3" stroke-opacity="0.35" stroke-width="4"/><circle cx="531.4" cy="183.1" r="3.4" fill="#00FFA3"/><line x1="538.4" x2="538.4" y1="243.6" y2="179.6" stroke="#00FFA3" stroke-opacity="0.35" stroke-width="4"/><circle cx="538.4" cy="216.4" r="3.4" fill="#00FFA3"/><line x1="545.3" x2="545.3" y1="254.9" y2="191.7" stroke="#FF2D55" stroke-opacity="0.35" stroke-width="4"/><circle cx="545.3" cy="224.2" r="3.4" fill="#FF2D55"/><line x1="552.2" x2="552.2" y1="250.6" y2="180.9" stroke="#00FFA3" stroke-opacity="0.35" stroke-width="4"/><circle cx="552.2" cy="202.5" r="3.4" fill="#00FFA3"/><line x1="559.1" x2="559.1" y1="243.2" y2="185.2" stroke="#00FFA3" stroke-opacity="0.35" stroke-width="4"/><circle cx="559.1" cy="211.2" r="3.4" fill="#00FFA3"/><line x1="566.1" x2="566.1" y1="248.8" y2="198.6" stroke="#FF2D55" stroke-opacity="0.35" stroke-width="4"/><circle cx="566.1" cy="228.1" r="3.4" fill="#FF2D55"/><line x1="573.0" x2="573.0" y1="247.1" y2="192.6" stroke="#FF2D55" stroke-opacity="0.35" stroke-width="4"/><circle cx="573.0" cy="226.3" r="3.4" fill="#FF2D55"/><line x1="579.9" x2="579.9" y1="260.1" y2="183.5" stroke="#FF2D55" stroke-opacity="0.35" stroke-width="4"/><circle cx="579.9" cy="224.6" r="3.4" fill="#FF2D55"/><line x1="586.9" x2="586.9" y1="231.5" y2="172.3" stroke="#00FFA3" stroke-opacity="0.35" stroke-width="4"/><circle cx="586.9" cy="201.2" r="3.4" fill="#00FFA3"/><line x1="593.8" x2="593.8" y1="258.8" y2="180.9" stroke="#00FFA3" stroke-opacity="0.35" stroke-width="4"/><circle cx="593.8" cy="216.8" r="3.4" fill="#00FFA3"/><line x1="600.7" x2="600.7" y1="242.3" y2="187.0" stroke="#00FFA3" stroke-opacity="0.35" stroke-width="4"/><circle cx="600.7" cy="216.8" r="3.4" fill="#00FFA3"/><line x1="607.7" x2="607.7" y1="254.0" y2="203.4" stroke="#FF2D55" stroke-opacity="0.35" stroke-width="4"/><circle cx="607.7" cy="233.2" r="3.4" fill="#FF2D55"/><line x1="614.6" x2="614.6" y1="233.2" y2="181.8" stroke="#00FFA3" stroke-opacity="0.35" stroke-width="4"/><circle cx="614.6" cy="215.1" r="3.4" fill="#00FFA3"/><line x1="621.5" x2="621.5" y1="254.9" y2="179.6" stroke="#FF2D55" stroke-opacity="0.35" stroke-width="4"/><circle cx="621.5" cy="221.1" r="3.4" fill="#FF2D55"/><line x1="628.5" x2="628.5" y1="260.9" y2="210.3" stroke="#FF2D55" stroke-opacity="0.35" stroke-width="4"/><circle cx="628.5" cy="244.5" r="3.4" fill="#FF2D55"/><line x1="635.4" x2="635.4" y1="231.1" y2="169.2" stroke="#00FFA3" stroke-opacity="0.35" stroke-width="4"/><circle cx="635.4" cy="199.1" r="3.4" fill="#00FFA3"/><line x1="642.3" x2="642.3" y1="260.1" y2="174.0" stroke="#00FFA3" stroke-opacity="0.35" stroke-width="4"/><circle cx="642.3" cy="204.7" r="3.4" fill="#00FFA3"/><line x1="649.2" x2="649.2" y1="238.9" y2="177.0" stroke="#00FFA3" stroke-opacity="0.35" stroke-width="4"/><circle cx="649.2" cy="203.0" r="3.4" fill="#00FFA3"/><line x1="656.2" x2="656.2" y1="270.4" y2="197.8" stroke="#FF2D55" stroke-opacity="0.35" stroke-width="4"/><circle cx="656.2" cy="244.1" r="3.4" fill="#FF2D55"/><line x1="663.1" x2="663.1" y1="212.5" y2="146.3" stroke="#00FFA3" stroke-opacity="0.35" stroke-width="4"/><circle cx="663.1" cy="176.2" r="3.4" fill="#00FFA3"/><line x1="670.0" x2="670.0" y1="261.8" y2="181.3" stroke="#00FFA3" stroke-opacity="0.35" stroke-width="4"/><circle cx="670.0" cy="214.6" r="3.4" fill="#00FFA3"/><line x1="677.0" x2="677.0" y1="235.0" y2="181.3" stroke="#00FFA3" stroke-opacity="0.35" stroke-width="4"/><circle cx="677.0" cy="211.6" r="3.4" fill="#00FFA3"/><line x1="683.9" x2="683.9" y1="245.4" y2="146.3" stroke="#00FFA3" stroke-opacity="0.35" stroke-width="4"/><circle cx="683.9" cy="190.4" r="3.4" fill="#00FFA3"/><line x1="690.8" x2="690.8" y1="242.3" y2="171.4" stroke="#00FFA3" stroke-opacity="0.35" stroke-width="4"/><circle cx="690.8" cy="209.0" r="3.4" fill="#00FFA3"/><line x1="697.8" x2="697.8" y1="249.7" y2="168.4" stroke="#00FFA3" stroke-opacity="0.35" stroke-width="4"/><circle cx="697.8" cy="207.3" r="3.4" fill="#00FFA3"/><line x1="704.7" x2="704.7" y1="254.0" y2="182.6" stroke="#00FFA3" stroke-opacity="0.35" stroke-width="4"/><circle cx="704.7" cy="215.9" r="3.4" fill="#00FFA3"/><line x1="711.6" x2="711.6" y1="243.2" y2="138.5" stroke="#00FFA3" stroke-opacity="0.35" stroke-width="4"/><circle cx="711.6" cy="189.1" r="3.4" fill="#00FFA3"/><line x1="718.6" x2="718.6" y1="249.3" y2="155.4" stroke="#00FFA3" stroke-opacity="0.35" stroke-width="4"/><circle cx="718.6" cy="201.2" r="3.4" fill="#00FFA3"/><line x1="725.5" x2="725.5" y1="235.8" y2="172.3" stroke="#00FFA3" stroke-opacity="0.35" stroke-width="4"/><circle cx="725.5" cy="193.5" r="3.4" fill="#00FFA3"/><line x1="732.4" x2="732.4" y1="279.1" y2="163.2" stroke="#00FFA3" stroke-opacity="0.35" stroke-width="4"/><circle cx="732.4" cy="209.5" r="3.4" fill="#00FFA3"/><line x1="739.3" x2="739.3" y1="250.1" y2="156.3" stroke="#00FFA3" stroke-opacity="0.35" stroke-width="4"/><circle cx="739.3" cy="181.8" r="3.4" fill="#00FFA3"/><line x1="746.3" x2="746.3" y1="187.8" y2="126.8" stroke="#00FFA3" stroke-opacity="0.35" stroke-width="4"/><circle cx="746.3" cy="161.0" r="3.4" fill="#00FFA3"/><line x1="753.2" x2="753.2" y1="182.6" y2="101.8" stroke="#00FFA3" stroke-opacity="0.35" stroke-width="4"/><circle cx="753.2" cy="129.9" r="3.4" fill="#00FFA3"/><line x1="760.1" x2="760.1" y1="256.2" y2="104.8" stroke="#00FFA3" stroke-opacity="0.35" stroke-width="4"/><circle cx="760.1" cy="194.8" r="3.4" fill="#00FFA3"/><line x1="767.1" x2="767.1" y1="298.6" y2="81.9" stroke="#00FFA3" stroke-opacity="0.35" stroke-width="4"/><circle cx="767.1" cy="176.2" r="3.4" fill="#00FFA3"/><rect x="572.7" y="164.4" width="196.3" height="18" fill="#0B0B12" opacity="0.85"/><text x="766.0" y="177.4" font-size="13" fill="#C8C8D2" text-anchor="end">dashed = any day: +0.03%</text></svg>