<svg xmlns="http://www.w3.org/2000/svg" viewBox="0 0 1600 560" width="1600" height="560" font-family="ui-monospace,SFMono-Regular,Menlo,monospace"><rect width="1600" height="560" fill="#0B0B12"/><text x="74" y="26" font-size="18" fill="#C8C8D2" font-weight="600">DIA (Dow fund): how long until back above the top it fell from — no next-leg cut-off</text><text x="74" y="48" font-size="14" fill="#8E8EA0">Share back above their own top, by sessions after the low. Not a new record (see 3b). Rank groups are display points; the scatter line is continuous.</text><line x1="74" x2="1574" y1="502.0" y2="502.0" stroke="#1C1C26"/><text x="66" y="507.0" font-size="14" fill="#8E8EA0" text-anchor="end">0%</text><line x1="74" x2="1574" y1="393.0" y2="393.0" stroke="#1C1C26"/><text x="66" y="398.0" font-size="14" fill="#8E8EA0" text-anchor="end">25%</text><line x1="74" x2="1574" y1="284.0" y2="284.0" stroke="#1C1C26"/><text x="66" y="289.0" font-size="14" fill="#8E8EA0" text-anchor="end">50%</text><line x1="74" x2="1574" y1="175.0" y2="175.0" stroke="#1C1C26"/><text x="66" y="180.0" font-size="14" fill="#8E8EA0" text-anchor="end">75%</text><line x1="74" x2="1574" y1="66.0" y2="66.0" stroke="#1C1C26"/><text x="66" y="71.0" font-size="14" fill="#8E8EA0" text-anchor="end">100%</text><line y1="66" y2="502" x1="74.0" x2="74.0" stroke="#1C1C26"/><text y="522" x="74.0" font-size="14" fill="#8E8EA0" text-anchor="middle">1</text><line y1="66" y2="502" x1="215.0" x2="215.0" stroke="#1C1C26"/><text y="522" x="215.0" font-size="14" fill="#8E8EA0" text-anchor="middle">2</text><line y1="66" y2="502" x1="297.5" x2="297.5" stroke="#1C1C26"/><text y="522" x="297.5" font-size="14" fill="#8E8EA0" text-anchor="middle">3</text><line y1="66" y2="502" x1="401.5" x2="401.5" stroke="#1C1C26"/><text y="522" x="401.5" font-size="14" fill="#8E8EA0" text-anchor="middle">5</text><line y1="66" y2="502" x1="542.5" x2="542.5" stroke="#1C1C26"/><text y="522" x="542.5" font-size="14" fill="#8E8EA0" text-anchor="middle">10</text><line y1="66" y2="502" x1="683.5" x2="683.5" stroke="#1C1C26"/><text y="522" x="683.5" font-size="14" fill="#8E8EA0" text-anchor="middle">20</text><line y1="66" y2="502" x1="766.0" x2="766.0" stroke="#1C1C26"/><text y="522" x="766.0" font-size="14" fill="#8E8EA0" text-anchor="middle">30</text><line y1="66" y2="502" x1="870.0" x2="870.0" stroke="#1C1C26"/><text y="522" x="870.0" font-size="14" fill="#8E8EA0" text-anchor="middle">50</text><line y1="66" y2="502" x1="1011.0" x2="1011.0" stroke="#1C1C26"/><text y="522" x="1011.0" font-size="14" fill="#8E8EA0" text-anchor="middle">100</text><line y1="66" y2="502" x1="1152.0" x2="1152.0" stroke="#1C1C26"/><text y="522" x="1152.0" font-size="14" fill="#8E8EA0" text-anchor="middle">200</text><line y1="66" y2="502" x1="1234.5" x2="1234.5" stroke="#1C1C26"/><text y="522" x="1234.5" font-size="14" fill="#8E8EA0" text-anchor="middle">300</text><line y1="66" y2="502" x1="1338.5" x2="1338.5" stroke="#1C1C26"/><text y="522" x="1338.5" font-size="14" fill="#8E8EA0" text-anchor="middle">500</text><line y1="66" y2="502" x1="1479.5" x2="1479.5" stroke="#1C1C26"/><text y="522" x="1479.5" font-size="14" fill="#8E8EA0" text-anchor="middle">1000</text><rect x="74" y="66" width="1500" height="436" fill="none" stroke="#34343F"/><text x="824" y="548" font-size="14" fill="#B4B4C6" text-anchor="middle">sessions after the low (log scale)</text><text transform="translate(18 284) rotate(-90)" font-size="14" fill="#B4B4C6" text-anchor="middle">% back above its own top</text><line x1="74" x2="1574" y1="284" y2="284" stroke="#34343F" stroke-dasharray="4 4"/><polyline points="74.0,502.0 74.0,502.0 74.0,498.9 215.0,498.9 215.0,495.5 297.5,495.5 297.5,475.8 356.1,475.8 356.1,450.1 401.5,450.1 401.5,430.5 438.6,430.5 438.6,401.3 469.9,401.3 469.9,384.7 497.1,384.7 497.1,375.1 521.1,375.1 521.1,362.0 542.5,362.0 542.5,355.5 561.9,355.5 561.9,349.0 579.6,349.0 579.6,332.8 595.9,332.8 595.9,319.8 611.0,319.8 611.0,310.2 625.0,310.2 625.0,300.1 638.1,300.1 638.1,290.5 650.5,290.5 650.5,280.9 662.1,280.9 662.1,270.9 683.5,270.9 683.5,254.8 693.5,254.8 693.5,251.3 720.6,251.3 720.6,244.8 744.6,244.8 744.6,241.7 752.0,241.7 752.0,238.7 759.1,238.7 759.1,232.1 766.0,232.1 766.0,225.6 772.7,225.6 772.7,219.0 779.2,219.0 779.2,215.5 791.5,215.5 791.5,212.5 803.1,212.5 803.1,209.0 814.1,209.0 814.1,206.0 819.4,206.0 819.4,199.4 839.3,199.4 839.3,192.9 848.5,192.9 848.5,186.3 853.0,186.3 853.0,183.3 857.4,183.3 857.4,173.3 889.4,173.3 889.4,170.2 903.6,170.2 903.6,166.7 913.7,166.7 913.7,163.7 929.5,163.7 929.5,160.2 932.5,160.2 932.5,150.6 947.0,150.6 947.0,147.5 1002.7,147.5 1002.7,144.0 1009.0,144.0 1009.0,141.0 1019.0,141.0 1019.0,137.5 1020.9,137.5 1020.9,134.5 1024.8,134.5 1024.8,131.0 1041.2,131.0 1041.2,127.9 1065.9,127.9 1065.9,124.4 1079.5,124.4 1079.5,121.4 1090.8,121.4 1090.8,117.9 1098.8,117.9 1098.8,114.8 1102.8,114.8 1102.8,111.3 1107.9,111.3 1107.9,108.3 1112.9,108.3 1112.9,105.2 1117.8,105.2 1117.8,101.8 1132.8,101.8 1132.8,98.7 1140.5,98.7 1140.5,95.2 1161.0,95.2 1161.0,92.2 1202.3,92.2 1202.3,88.7 1230.4,88.7 1230.4,85.6 1314.3,85.6 1314.3,82.1 1328.0,82.1 1328.0,79.1 1366.5,79.1 1366.5,75.6 1463.2,75.6 1463.2,72.5 1526.7,72.5 1526.7,69.1 1536.9,69.1 1536.9,66.0 1574.0,66.0" fill="none" stroke="#00FFA3" stroke-width="4"/><line x1="90" x2="136" y1="100" y2="100" stroke="#00FFA3" stroke-width="4"/><rect x="143.0" y="92.0" width="433.0" height="19" fill="#0B0B12" opacity="0.85"/><text x="146.0" y="106.0" font-size="14" fill="#C8C8D2" text-anchor="start">every pullback (134): half back by 17, 100% by now</text><polyline points="74.0,502.0 297.5,502.0 297.5,495.5 438.6,495.5 438.6,482.4 469.9,482.4 469.9,475.8 521.1,475.8 521.1,462.8 561.9,462.8 561.9,456.7 579.6,456.7 579.6,443.6 595.9,443.6 595.9,424.0 611.0,424.0 611.0,417.4 625.0,417.4 625.0,410.9 650.5,410.9 650.5,397.8 662.1,397.8 662.1,391.3 683.5,391.3 683.5,359.0 720.6,359.0 720.6,345.9 744.6,345.9 744.6,339.4 752.0,339.4 752.0,332.8 759.1,332.8 759.1,326.3 766.0,326.3 766.0,319.8 772.7,319.8 772.7,306.7 779.2,306.7 779.2,300.1 803.1,300.1 803.1,293.6 814.1,293.6 814.1,287.1 819.4,287.1 819.4,274.4 839.3,274.4 839.3,267.9 848.5,267.9 848.5,254.8 903.6,254.8 903.6,248.2 913.7,248.2 913.7,241.7 932.5,241.7 932.5,222.1 947.0,222.1 947.0,215.5 1002.7,215.5 1002.7,209.0 1009.0,209.0 1009.0,202.5 1020.9,202.5 1020.9,196.4 1024.8,196.4 1024.8,189.8 1041.2,189.8 1041.2,183.3 1065.9,183.3 1065.9,176.7 1079.5,176.7 1079.5,170.2 1090.8,170.2 1090.8,163.7 1098.8,163.7 1098.8,157.1 1102.8,157.1 1102.8,150.6 1107.9,150.6 1107.9,144.0 1112.9,144.0 1112.9,137.5 1117.8,137.5 1117.8,131.0 1132.8,131.0 1132.8,124.4 1140.5,124.4 1140.5,117.9 1161.0,117.9 1161.0,111.3 1230.4,111.3 1230.4,105.2 1314.3,105.2 1314.3,98.7 1328.0,98.7 1328.0,92.2 1366.5,92.2 1366.5,85.6 1463.2,85.6 1463.2,79.1 1526.7,79.1 1526.7,72.5 1536.9,72.5 1536.9,66.0 1574.0,66.0" fill="none" stroke="#00FFA3" stroke-width="2.8" stroke-dasharray="10 6"/><line x1="90" x2="136" y1="126" y2="126" stroke="#00FFA3" stroke-width="2.8" stroke-dasharray="10 6"/><rect x="143.0" y="118.0" width="561.1" height="19" fill="#0B0B12" opacity="0.85"/><text x="146.0" y="132.0" font-size="14" fill="#C8C8D2" text-anchor="start">display group: depth rank ≥ 50 (67): half back by 39, 100% by now</text><polyline points="74.0,502.0 438.6,502.0 438.6,489.4 521.1,489.4 521.1,476.3 579.6,476.3 579.6,463.6 595.9,463.6 595.9,450.6 683.5,450.6 683.5,437.9 759.1,437.9 759.1,425.3 766.0,425.3 766.0,412.2 772.7,412.2 772.7,399.5 779.2,399.5 779.2,386.5 803.1,386.5 803.1,373.8 814.1,373.8 814.1,360.7 819.4,360.7 819.4,348.1 839.3,348.1 839.3,335.4 903.6,335.4 903.6,322.4 932.5,322.4 932.5,296.6 1002.7,296.6 1002.7,284.0 1009.0,284.0 1009.0,271.4 1020.9,271.4 1020.9,258.3 1024.8,258.3 1024.8,245.6 1041.2,245.6 1041.2,232.6 1098.8,232.6 1098.8,219.9 1107.9,219.9 1107.9,207.3 1112.9,207.3 1112.9,194.2 1117.8,194.2 1117.8,181.5 1132.8,181.5 1132.8,168.5 1161.0,168.5 1161.0,155.8 1230.4,155.8 1230.4,142.7 1314.3,142.7 1314.3,130.1 1328.0,130.1 1328.0,117.4 1366.5,117.4 1366.5,104.4 1463.2,104.4 1463.2,91.7 1526.7,91.7 1526.7,78.6 1536.9,78.6 1536.9,66.0 1574.0,66.0" fill="none" stroke="#00FFA3" stroke-width="2.4" stroke-dasharray="3 5"/><line x1="90" x2="136" y1="152" y2="152" stroke="#00FFA3" stroke-width="2.4" stroke-dasharray="3 5"/><rect x="143.0" y="144.0" width="561.1" height="19" fill="#0B0B12" opacity="0.85"/><text x="146.0" y="158.0" font-size="14" fill="#C8C8D2" text-anchor="start">display group: depth rank ≥ 75 (34): half back by 96, 100% by now</text><polyline points="74.0,502.0 759.1,502.0 759.1,468.4 766.0,468.4 766.0,434.9 903.6,434.9 903.6,401.3 932.5,401.3 932.5,367.7 1002.7,367.7 1002.7,334.1 1041.2,334.1 1041.2,300.6 1107.9,300.6 1107.9,267.4 1112.9,267.4 1112.9,233.9 1161.0,233.9 1161.0,200.3 1230.4,200.3 1230.4,166.7 1366.5,166.7 1366.5,133.1 1463.2,133.1 1463.2,99.6 1526.7,99.6 1526.7,66.0 1574.0,66.0" fill="none" stroke="#00FFA3" stroke-width="2.2" stroke-dasharray="14 4 2 4"/><line x1="90" x2="136" y1="178" y2="178" stroke="#00FFA3" stroke-width="2.2" stroke-dasharray="14 4 2 4"/><rect x="143.0" y="170.0" width="569.6" height="19" fill="#0B0B12" opacity="0.85"/><text x="146.0" y="184.0" font-size="14" fill="#C8C8D2" text-anchor="start">display group: depth rank ≥ 90 (13): half back by 161, 100% by now</text></svg>