<svg xmlns="http://www.w3.org/2000/svg" viewBox="0 0 1600 620" width="1600" height="620" font-family="ui-monospace,SFMono-Regular,Menlo,monospace"><rect width="1600" height="620" fill="#0B0B12"/><text x="74" y="26" font-size="18" fill="#C8C8D2" font-weight="600">Nasdaq 100 index: every swing pullback — how deep, and how long until back above the top it fell from</text><text x="74" y="48" font-size="14" fill="#8E8EA0">251 swing pullbacks 1985–2026 (170 began below an earlier top) · green = back above own top · red ring = not yet · line = middle wait, at least this deep</text><line x1="74" x2="1574" y1="562.0" y2="562.0" stroke="#1C1C26"/><text x="66" y="567.0" font-size="14" fill="#8E8EA0" text-anchor="end">1</text><line x1="74" x2="1574" y1="522.3" y2="522.3" stroke="#1C1C26"/><text x="66" y="527.3" font-size="14" fill="#8E8EA0" text-anchor="end">2</text><line x1="74" x2="1574" y1="499.1" y2="499.1" stroke="#1C1C26"/><text x="66" y="504.1" font-size="14" fill="#8E8EA0" text-anchor="end">3</text><line x1="74" x2="1574" y1="469.8" y2="469.8" stroke="#1C1C26"/><text x="66" y="474.8" font-size="14" fill="#8E8EA0" text-anchor="end">5</text><line x1="74" x2="1574" y1="430.1" y2="430.1" stroke="#1C1C26"/><text x="66" y="435.1" font-size="14" fill="#8E8EA0" text-anchor="end">10</text><line x1="74" x2="1574" y1="390.4" y2="390.4" stroke="#1C1C26"/><text x="66" y="395.4" font-size="14" fill="#8E8EA0" text-anchor="end">20</text><line x1="74" x2="1574" y1="367.1" y2="367.1" stroke="#1C1C26"/><text x="66" y="372.1" font-size="14" fill="#8E8EA0" text-anchor="end">30</text><line x1="74" x2="1574" y1="337.9" y2="337.9" stroke="#1C1C26"/><text x="66" y="342.9" font-size="14" fill="#8E8EA0" text-anchor="end">50</text><line x1="74" x2="1574" y1="298.1" y2="298.1" stroke="#1C1C26"/><text x="66" y="303.1" font-size="14" fill="#8E8EA0" text-anchor="end">100</text><line x1="74" x2="1574" y1="258.4" y2="258.4" stroke="#1C1C26"/><text x="66" y="263.4" font-size="14" fill="#8E8EA0" text-anchor="end">200</text><line x1="74" x2="1574" y1="235.2" y2="235.2" stroke="#1C1C26"/><text x="66" y="240.2" font-size="14" fill="#8E8EA0" text-anchor="end">300</text><line x1="74" x2="1574" y1="205.9" y2="205.9" stroke="#1C1C26"/><text x="66" y="210.9" font-size="14" fill="#8E8EA0" text-anchor="end">500</text><line x1="74" x2="1574" y1="166.2" y2="166.2" stroke="#1C1C26"/><text x="66" y="171.2" font-size="14" fill="#8E8EA0" text-anchor="end">1000</text><line x1="74" x2="1574" y1="126.5" y2="126.5" stroke="#1C1C26"/><text x="66" y="131.5" font-size="14" fill="#8E8EA0" text-anchor="end">2000</text><line x1="74" x2="1574" y1="74.0" y2="74.0" stroke="#1C1C26"/><text x="66" y="79.0" font-size="14" fill="#8E8EA0" text-anchor="end">5000</text><line y1="66" y2="562" x1="178.5" x2="178.5" stroke="#1C1C26"/><text y="582" x="178.5" font-size="14" fill="#8E8EA0" text-anchor="middle">2%</text><line y1="66" y2="562" x1="345.7" x2="345.7" stroke="#1C1C26"/><text y="582" x="345.7" font-size="14" fill="#8E8EA0" text-anchor="middle">3%</text><line y1="66" y2="562" x1="556.2" x2="556.2" stroke="#1C1C26"/><text y="582" x="556.2" font-size="14" fill="#8E8EA0" text-anchor="middle">5%</text><line y1="66" y2="562" x1="842.0" x2="842.0" stroke="#1C1C26"/><text y="582" x="842.0" font-size="14" fill="#8E8EA0" text-anchor="middle">10%</text><line y1="66" y2="562" x1="1127.7" x2="1127.7" stroke="#1C1C26"/><text y="582" x="1127.7" font-size="14" fill="#8E8EA0" text-anchor="middle">20%</text><line y1="66" y2="562" x1="1294.8" x2="1294.8" stroke="#1C1C26"/><text y="582" x="1294.8" font-size="14" fill="#8E8EA0" text-anchor="middle">30%</text><line y1="66" y2="562" x1="1505.4" x2="1505.4" stroke="#1C1C26"/><text y="582" x="1505.4" font-size="14" fill="#8E8EA0" text-anchor="middle">50%</text><rect x="74" y="66" width="1500" height="496" fill="none" stroke="#34343F"/><text x="824" y="608" font-size="14" fill="#B4B4C6" text-anchor="middle">pullback depth, top to low (%, log scale; under 0.3% drawn at 0.3%)</text><text transform="translate(18 314) rotate(-90)" font-size="14" fill="#B4B4C6" text-anchor="middle">sessions from the low to back above its top (log)</text><line x1="754.6" x2="754.6" y1="66" y2="562" stroke="#FF2D55" stroke-opacity="0.45" stroke-dasharray="3 5"/><rect x="756.6" y="538.0" width="172.5" height="18" fill="#0B0B12" opacity="0.85"/><text x="759.6" y="551.0" font-size="13" fill="#FF2D55" text-anchor="start">deeper than 50%: 8.1%</text><line x1="939.2" x2="939.2" y1="66" y2="562" stroke="#FF2D55" stroke-opacity="0.45" stroke-dasharray="3 5"/><rect x="941.2" y="518.0" width="180.5" height="18" fill="#0B0B12" opacity="0.85"/><text x="944.2" y="531.0" font-size="13" fill="#FF2D55" text-anchor="start">deeper than 75%: 12.7%</text><line x1="1095.1" x2="1095.1" y1="66" y2="562" stroke="#FF2D55" stroke-opacity="0.45" stroke-dasharray="3 5"/><rect x="1097.1" y="538.0" width="180.5" height="18" fill="#0B0B12" opacity="0.85"/><text x="1100.1" y="551.0" font-size="13" fill="#FF2D55" text-anchor="start">deeper than 90%: 18.5%</text><line x1="1426.1" x2="1426.1" y1="66" y2="562" stroke="#FF2D55" stroke-opacity="0.45" stroke-dasharray="3 5"/><rect x="1243.6" y="518.0" width="180.5" height="18" fill="#0B0B12" opacity="0.85"/><text x="1421.1" y="531.0" font-size="13" fill="#FF2D55" text-anchor="end">deeper than 99%: 41.3%</text><circle cx="439.9" cy="459.3" r="4.2" fill="#00FFA3" fill-opacity="0.8"/><circle cx="702.5" cy="399.7" r="4.2" fill="#00FFA3" fill-opacity="0.8"/><circle cx="1027.6" cy="350.6" r="4.2" fill="#00FFA3" fill-opacity="0.8"/><circle cx="498.8" cy="410.8" r="4.2" fill="#00FFA3" fill-opacity="0.8"/><circle cx="511.9" cy="399.7" r="4.2" fill="#00FFA3" fill-opacity="0.8"/><circle cx="497.9" cy="430.1" r="4.2" fill="#00FFA3" fill-opacity="0.8"/><circle cx="1004.1" cy="292.2" r="4.2" fill="#00FFA3" fill-opacity="0.8"/><circle cx="938.2" cy="312.4" r="4.2" fill="#00FFA3" fill-opacity="0.8"/><circle cx="577.1" cy="469.8" r="4.2" fill="#00FFA3" fill-opacity="0.8"/><circle cx="668.2" cy="469.8" r="4.2" fill="#00FFA3" fill-opacity="0.8"/><circle cx="738.0" cy="355.1" r="4.2" fill="#00FFA3" fill-opacity="0.8"/><circle cx="647.6" cy="410.8" r="4.2" fill="#00FFA3" fill-opacity="0.8"/><circle cx="410.4" cy="482.6" r="4.2" fill="#00FFA3" fill-opacity="0.8"/><circle cx="726.7" cy="442.9" r="4.2" fill="#00FFA3" fill-opacity="0.8"/><circle cx="1423.7" cy="218.9" r="4.2" fill="#00FFA3" fill-opacity="0.8"/><circle cx="1035.7" cy="430.1" r="4.2" fill="#00FFA3" fill-opacity="0.8"/><circle cx="857.7" cy="387.6" r="4.2" fill="#00FFA3" fill-opacity="0.8"/><circle cx="676.3" cy="337.9" r="4.2" fill="#00FFA3" fill-opacity="0.8"/><circle cx="628.0" cy="356.7" r="4.2" fill="#00FFA3" fill-opacity="0.8"/><circle cx="718.4" cy="430.1" r="4.2" fill="#00FFA3" fill-opacity="0.8"/><circle cx="958.9" cy="293.2" r="4.2" fill="#00FFA3" fill-opacity="0.8"/><circle cx="480.4" cy="459.3" r="4.2" fill="#00FFA3" fill-opacity="0.8"/><circle cx="837.8" cy="350.6" r="4.2" fill="#00FFA3" fill-opacity="0.8"/><circle cx="710.5" cy="403.1" r="4.2" fill="#00FFA3" fill-opacity="0.8"/><circle cx="775.9" cy="352.1" r="4.2" fill="#00FFA3" fill-opacity="0.8"/><circle cx="373.6" cy="522.3" r="4.2" fill="#00FFA3" fill-opacity="0.8"/><circle cx="864.8" cy="271.6" r="4.2" fill="#00FFA3" fill-opacity="0.8"/><circle cx="842.0" cy="295.4" r="4.2" fill="#00FFA3" fill-opacity="0.8"/><circle cx="983.3" cy="313.9" r="4.2" fill="#00FFA3" fill-opacity="0.8"/><circle cx="526.3" cy="371.1" r="4.2" fill="#00FFA3" fill-opacity="0.8"/><circle cx="694.9" cy="436.1" r="4.2" fill="#00FFA3" fill-opacity="0.8"/><circle cx="519.2" cy="430.1" r="4.2" fill="#00FFA3" fill-opacity="0.8"/><circle cx="1348.1" cy="310.9" r="4.2" fill="#00FFA3" fill-opacity="0.8"/><circle cx="644.3" cy="450.5" r="4.2" fill="#00FFA3" fill-opacity="0.8"/><circle cx="673.2" cy="459.3" r="4.2" fill="#00FFA3" fill-opacity="0.8"/><circle cx="813.4" cy="311.7" r="4.2" fill="#00FFA3" fill-opacity="0.8"/><circle cx="647.6" cy="436.1" r="4.2" fill="#00FFA3" fill-opacity="0.8"/><circle cx="890.2" cy="361.7" r="4.2" fill="#00FFA3" fill-opacity="0.8"/><circle cx="505.4" cy="469.8" r="4.2" fill="#00FFA3" fill-opacity="0.8"/><circle cx="557.9" cy="379.9" r="4.2" fill="#00FFA3" fill-opacity="0.8"/><circle cx="538.6" cy="482.6" r="4.2" fill="#00FFA3" fill-opacity="0.8"/><circle cx="786.9" cy="379.9" r="4.2" fill="#00FFA3" fill-opacity="0.8"/><circle cx="764.7" cy="252.5" r="4.2" fill="#00FFA3" fill-opacity="0.8"/><circle cx="994.3" cy="268.8" r="4.2" fill="#00FFA3" fill-opacity="0.8"/><circle cx="875.2" cy="285.8" r="4.2" fill="#00FFA3" fill-opacity="0.8"/><circle cx="577.9" cy="430.1" r="4.2" fill="#00FFA3" fill-opacity="0.8"/><circle cx="832.8" cy="333.5" r="4.2" fill="#00FFA3" fill-opacity="0.8"/><circle cx="762.7" cy="424.6" r="4.2" fill="#00FFA3" fill-opacity="0.8"/><circle cx="845.3" cy="424.6" r="4.2" fill="#00FFA3" fill-opacity="0.8"/><circle cx="562.0" cy="410.8" r="4.2" fill="#00FFA3" fill-opacity="0.8"/><circle cx="929.3" cy="274.5" r="4.2" fill="#00FFA3" fill-opacity="0.8"/><circle cx="877.5" cy="396.4" r="4.2" fill="#00FFA3" fill-opacity="0.8"/><circle cx="652.8" cy="353.6" r="4.2" fill="#00FFA3" fill-opacity="0.8"/><circle cx="649.5" cy="390.4" r="4.2" fill="#00FFA3" fill-opacity="0.8"/><circle cx="609.5" cy="415.0" r="4.2" fill="#00FFA3" fill-opacity="0.8"/><circle cx="641.6" cy="482.6" r="4.2" fill="#00FFA3" fill-opacity="0.8"/><circle cx="644.3" cy="442.9" r="4.2" fill="#00FFA3" fill-opacity="0.8"/><circle cx="600.0" cy="393.3" r="4.2" fill="#00FFA3" fill-opacity="0.8"/><circle cx="1034.7" cy="262.0" r="4.2" fill="#00FFA3" fill-opacity="0.8"/><circle cx="712.8" cy="424.6" r="4.2" fill="#00FFA3" fill-opacity="0.8"/><circle cx="804.0" cy="355.1" r="4.2" fill="#00FFA3" fill-opacity="0.8"/><circle cx="720.1" cy="399.7" r="4.2" fill="#00FFA3" fill-opacity="0.8"/><circle cx="794.9" cy="377.6" r="4.2" fill="#00FFA3" fill-opacity="0.8"/><circle cx="512.8" cy="482.6" r="4.2" fill="#00FFA3" fill-opacity="0.8"/><circle cx="579.5" cy="450.5" r="4.2" fill="#00FFA3" fill-opacity="0.8"/><circle cx="685.4" cy="424.6" r="4.2" fill="#00FFA3" fill-opacity="0.8"/><circle cx="903.2" cy="387.6" r="4.2" fill="#00FFA3" fill-opacity="0.8"/><circle cx="785.5" cy="459.3" r="4.2" fill="#00FFA3" fill-opacity="0.8"/><circle cx="980.4" cy="399.7" r="4.2" fill="#00FFA3" fill-opacity="0.8"/><circle cx="1022.9" cy="399.7" r="4.2" fill="#00FFA3" fill-opacity="0.8"/><circle cx="824.3" cy="371.1" r="4.2" fill="#00FFA3" fill-opacity="0.8"/><circle cx="712.2" cy="403.1" r="4.2" fill="#00FFA3" fill-opacity="0.8"/><circle cx="741.1" cy="328.4" r="4.2" fill="#00FFA3" fill-opacity="0.8"/><circle cx="1054.4" cy="347.8" r="4.2" fill="#00FFA3" fill-opacity="0.8"/><circle cx="561.2" cy="450.5" r="4.2" fill="#00FFA3" fill-opacity="0.8"/><circle cx="704.3" cy="459.3" r="4.2" fill="#00FFA3" fill-opacity="0.8"/><circle cx="778.8" cy="396.4" r="4.2" fill="#00FFA3" fill-opacity="0.8"/><circle cx="1059.2" cy="361.7" r="4.2" fill="#00FFA3" fill-opacity="0.8"/><circle cx="519.2" cy="499.1" r="4.2" fill="#00FFA3" fill-opacity="0.8"/><circle cx="744.8" cy="355.1" r="4.2" fill="#00FFA3" fill-opacity="0.8"/><circle cx="1120.8" cy="313.1" r="4.2" fill="#00FFA3" fill-opacity="0.8"/><circle cx="970.2" cy="377.6" r="4.2" fill="#00FFA3" fill-opacity="0.8"/><circle cx="811.6" cy="459.3" r="4.2" fill="#00FFA3" fill-opacity="0.8"/><circle cx="715.6" cy="410.8" r="4.2" fill="#00FFA3" fill-opacity="0.8"/><circle cx="903.9" cy="442.9" r="4.2" fill="#00FFA3" fill-opacity="0.8"/><circle cx="956.1" cy="320.2" r="4.2" fill="#00FFA3" fill-opacity="0.8"/><circle cx="1154.4" cy="343.9" r="4.2" fill="#00FFA3" fill-opacity="0.8"/><circle cx="1215.7" cy="415.0" r="4.2" fill="#00FFA3" fill-opacity="0.8"/><circle cx="959.2" cy="371.1" r="4.2" fill="#00FFA3" fill-opacity="0.8"/><circle cx="958.9" cy="482.6" r="4.2" fill="#00FFA3" fill-opacity="0.8"/><circle cx="984.8" cy="379.9" r="4.2" fill="#00FFA3" fill-opacity="0.8"/><circle cx="983.6" cy="396.4" r="4.2" fill="#00FFA3" fill-opacity="0.8"/><circle cx="754.6" cy="436.1" r="4.2" fill="#00FFA3" fill-opacity="0.8"/><circle cx="883.9" cy="436.1" r="4.2" fill="#00FFA3" fill-opacity="0.8"/><circle cx="969.0" cy="442.9" r="4.2" fill="#00FFA3" fill-opacity="0.8"/><circle cx="1364.0" cy="85.3" r="4.2" fill="#00FFA3" fill-opacity="0.8"/><circle cx="1222.5" cy="399.7" r="4.2" fill="#00FFA3" fill-opacity="0.8"/><circle cx="821.7" cy="469.8" r="4.2" fill="#00FFA3" fill-opacity="0.8"/><circle cx="1090.4" cy="387.6" r="4.2" fill="#00FFA3" fill-opacity="0.8"/><circle cx="1428.5" cy="94.4" r="4.2" fill="#00FFA3" fill-opacity="0.8"/><circle cx="1297.7" cy="101.3" r="4.2" fill="#00FFA3" fill-opacity="0.8"/><circle cx="1516.4" cy="108.1" r="4.2" fill="#00FFA3" fill-opacity="0.8"/><circle cx="918.2" cy="396.4" r="4.2" fill="#00FFA3" fill-opacity="0.8"/><circle cx="1128.9" cy="140.3" r="4.2" fill="#00FFA3" fill-opacity="0.8"/><circle cx="1016.5" cy="145.2" r="4.2" fill="#00FFA3" fill-opacity="0.8"/><circle cx="1396.2" cy="151.4" r="4.2" fill="#00FFA3" fill-opacity="0.8"/><circle cx="851.3" cy="165.2" r="4.2" fill="#00FFA3" fill-opacity="0.8"/><circle cx="1171.5" cy="168.9" r="4.2" fill="#00FFA3" fill-opacity="0.8"/><circle cx="1257.5" cy="191.9" r="4.2" fill="#00FFA3" fill-opacity="0.8"/><circle cx="1376.7" cy="241.0" r="4.2" fill="#00FFA3" fill-opacity="0.8"/><circle cx="1210.3" cy="393.3" r="4.2" fill="#00FFA3" fill-opacity="0.8"/><circle cx="1020.2" cy="306.8" r="4.2" fill="#00FFA3" fill-opacity="0.8"/><circle cx="1009.4" cy="341.4" r="4.2" fill="#00FFA3" fill-opacity="0.8"/><circle cx="734.2" cy="406.8" r="4.2" fill="#00FFA3" fill-opacity="0.8"/><circle cx="680.6" cy="499.1" r="4.2" fill="#00FFA3" fill-opacity="0.8"/><circle cx="658.0" cy="382.4" r="4.2" fill="#00FFA3" fill-opacity="0.8"/><circle cx="711.1" cy="450.5" r="4.2" fill="#00FFA3" fill-opacity="0.8"/><circle cx="719.0" cy="450.5" r="4.2" fill="#00FFA3" fill-opacity="0.8"/><circle cx="666.3" cy="469.8" r="4.2" fill="#00FFA3" fill-opacity="0.8"/><circle cx="671.9" cy="379.9" r="4.2" fill="#00FFA3" fill-opacity="0.8"/><circle cx="591.8" cy="419.6" r="4.2" fill="#00FFA3" fill-opacity="0.8"/><circle cx="652.2" cy="259.3" r="4.2" fill="#00FFA3" fill-opacity="0.8"/><circle cx="851.7" cy="272.3" r="4.2" fill="#00FFA3" fill-opacity="0.8"/><circle cx="799.0" cy="371.1" r="4.2" fill="#00FFA3" fill-opacity="0.8"/><circle cx="996.3" cy="330.4" r="4.2" fill="#00FFA3" fill-opacity="0.8"/><circle cx="820.0" cy="258.1" r="4.2" fill="#00FFA3" fill-opacity="0.8"/><circle cx="518.3" cy="320.2" r="4.2" fill="#00FFA3" fill-opacity="0.8"/><circle cx="636.2" cy="343.9" r="4.2" fill="#00FFA3" fill-opacity="0.8"/><circle cx="708.8" cy="415.0" r="4.2" fill="#00FFA3" fill-opacity="0.8"/><circle cx="588.0" cy="469.8" r="4.2" fill="#00FFA3" fill-opacity="0.8"/><circle cx="534.2" cy="340.2" r="4.2" fill="#00FFA3" fill-opacity="0.8"/><circle cx="658.0" cy="406.8" r="4.2" fill="#00FFA3" fill-opacity="0.8"/><circle cx="542.8" cy="499.1" r="4.2" fill="#00FFA3" fill-opacity="0.8"/><circle cx="697.9" cy="261.7" r="4.2" fill="#00FFA3" fill-opacity="0.8"/><circle cx="487.3" cy="450.5" r="4.2" fill="#00FFA3" fill-opacity="0.8"/><circle cx="969.9" cy="296.5" r="4.2" fill="#00FFA3" fill-opacity="0.8"/><circle cx="801.3" cy="361.7" r="4.2" fill="#00FFA3" fill-opacity="0.8"/><circle cx="411.6" cy="375.3" r="4.2" fill="#00FFA3" fill-opacity="0.8"/><circle cx="548.8" cy="459.3" r="4.2" fill="#00FFA3" fill-opacity="0.8"/><circle cx="518.3" cy="396.4" r="4.2" fill="#00FFA3" fill-opacity="0.8"/><circle cx="728.3" cy="361.7" r="4.2" fill="#00FFA3" fill-opacity="0.8"/><circle cx="929.3" cy="375.3" r="4.2" fill="#00FFA3" fill-opacity="0.8"/><circle cx="902.1" cy="179.7" r="4.2" fill="#00FFA3" fill-opacity="0.8"/><circle cx="1172.8" cy="189.8" r="4.2" fill="#00FFA3" fill-opacity="0.8"/><circle cx="573.2" cy="442.9" r="4.2" fill="#00FFA3" fill-opacity="0.8"/><circle cx="990.6" cy="212.2" r="4.2" fill="#00FFA3" fill-opacity="0.8"/><circle cx="1431.3" cy="225.6" r="4.2" fill="#00FFA3" fill-opacity="0.8"/><circle cx="1240.7" cy="295.4" r="4.2" fill="#00FFA3" fill-opacity="0.8"/><circle cx="903.9" cy="410.8" r="4.2" fill="#00FFA3" fill-opacity="0.8"/><circle cx="1109.4" cy="396.4" r="4.2" fill="#00FFA3" fill-opacity="0.8"/><circle cx="675.7" cy="419.6" r="4.2" fill="#00FFA3" fill-opacity="0.8"/><circle cx="736.4" cy="459.3" r="4.2" fill="#00FFA3" fill-opacity="0.8"/><circle cx="601.5" cy="442.9" r="4.2" fill="#00FFA3" fill-opacity="0.8"/><circle cx="707.1" cy="450.5" r="4.2" fill="#00FFA3" fill-opacity="0.8"/><circle cx="461.2" cy="469.8" r="4.2" fill="#00FFA3" fill-opacity="0.8"/><circle cx="835.3" cy="387.6" r="4.2" fill="#00FFA3" fill-opacity="0.8"/><circle cx="1006.6" cy="292.2" r="4.2" fill="#00FFA3" fill-opacity="0.8"/><circle cx="988.5" cy="332.4" r="4.2" fill="#00FFA3" fill-opacity="0.8"/><circle cx="795.8" cy="430.1" r="4.2" fill="#00FFA3" fill-opacity="0.8"/><circle cx="574.0" cy="410.8" r="4.2" fill="#00FFA3" fill-opacity="0.8"/><circle cx="795.3" cy="371.1" r="4.2" fill="#00FFA3" fill-opacity="0.8"/><circle cx="505.4" cy="522.3" r="4.2" fill="#00FFA3" fill-opacity="0.8"/><circle cx="833.6" cy="410.8" r="4.2" fill="#00FFA3" fill-opacity="0.8"/><circle cx="1049.6" cy="291.7" r="4.2" fill="#00FFA3" fill-opacity="0.8"/><circle cx="937.6" cy="442.9" r="4.2" fill="#00FFA3" fill-opacity="0.8"/><circle cx="875.6" cy="358.3" r="4.2" fill="#00FFA3" fill-opacity="0.8"/><circle cx="610.3" cy="424.6" r="4.2" fill="#00FFA3" fill-opacity="0.8"/><circle cx="936.3" cy="332.4" r="4.2" fill="#00FFA3" fill-opacity="0.8"/><circle cx="196.7" cy="522.3" r="4.2" fill="#00FFA3" fill-opacity="0.8"/><circle cx="960.8" cy="292.2" r="4.2" fill="#00FFA3" fill-opacity="0.8"/><circle cx="487.3" cy="562.0" r="4.2" fill="#00FFA3" fill-opacity="0.8"/><circle cx="166.0" cy="482.6" r="4.2" fill="#00FFA3" fill-opacity="0.8"/><circle cx="391.2" cy="469.8" r="4.2" fill="#00FFA3" fill-opacity="0.8"/><circle cx="258.8" cy="522.3" r="4.2" fill="#00FFA3" fill-opacity="0.8"/><circle cx="524.6" cy="450.5" r="4.2" fill="#00FFA3" fill-opacity="0.8"/><circle cx="722.3" cy="419.6" r="4.2" fill="#00FFA3" fill-opacity="0.8"/><circle cx="352.5" cy="442.9" r="4.2" fill="#00FFA3" fill-opacity="0.8"/><circle cx="293.0" cy="469.8" r="4.2" fill="#00FFA3" fill-opacity="0.8"/><circle cx="627.3" cy="469.8" r="4.2" fill="#00FFA3" fill-opacity="0.8"/><circle cx="783.1" cy="365.2" r="4.2" fill="#00FFA3" fill-opacity="0.8"/><circle cx="444.2" cy="450.5" r="4.2" fill="#00FFA3" fill-opacity="0.8"/><circle cx="848.9" cy="419.6" r="4.2" fill="#00FFA3" fill-opacity="0.8"/><circle cx="627.3" cy="353.6" r="4.2" fill="#00FFA3" fill-opacity="0.8"/><circle cx="605.9" cy="396.4" r="4.2" fill="#00FFA3" fill-opacity="0.8"/><circle cx="515.6" cy="393.3" r="4.2" fill="#00FFA3" fill-opacity="0.8"/><circle cx="527.2" cy="339.0" r="4.2" fill="#00FFA3" fill-opacity="0.8"/><circle cx="409.2" cy="436.1" r="4.2" fill="#00FFA3" fill-opacity="0.8"/><circle cx="536.8" cy="450.5" r="4.2" fill="#00FFA3" fill-opacity="0.8"/><circle cx="1113.4" cy="339.0" r="4.2" fill="#00FFA3" fill-opacity="0.8"/><circle cx="795.3" cy="410.8" r="4.2" fill="#00FFA3" fill-opacity="0.8"/><circle cx="580.3" cy="424.6" r="4.2" fill="#00FFA3" fill-opacity="0.8"/><circle cx="597.0" cy="272.3" r="4.2" fill="#00FFA3" fill-opacity="0.8"/><circle cx="1011.6" cy="282.7" r="4.2" fill="#00FFA3" fill-opacity="0.8"/><circle cx="825.1" cy="406.8" r="4.2" fill="#00FFA3" fill-opacity="0.8"/><circle cx="657.4" cy="343.9" r="4.2" fill="#00FFA3" fill-opacity="0.8"/><circle cx="743.2" cy="436.1" r="4.2" fill="#00FFA3" fill-opacity="0.8"/><circle cx="440.9" cy="469.8" r="4.2" fill="#00FFA3" fill-opacity="0.8"/><circle cx="338.7" cy="450.5" r="4.2" fill="#00FFA3" fill-opacity="0.8"/><circle cx="586.4" cy="375.3" r="4.2" fill="#00FFA3" fill-opacity="0.8"/><circle cx="236.2" cy="459.3" r="4.2" fill="#00FFA3" fill-opacity="0.8"/><circle cx="511.0" cy="375.3" r="4.2" fill="#00FFA3" fill-opacity="0.8"/><circle cx="516.5" cy="450.5" r="4.2" fill="#00FFA3" fill-opacity="0.8"/><circle cx="473.4" cy="436.1" r="4.2" fill="#00FFA3" fill-opacity="0.8"/><circle cx="328.8" cy="442.9" r="4.2" fill="#00FFA3" fill-opacity="0.8"/><circle cx="344.3" cy="450.5" r="4.2" fill="#00FFA3" fill-opacity="0.8"/><circle cx="924.6" cy="393.3" r="4.2" fill="#00FFA3" fill-opacity="0.8"/><circle cx="917.8" cy="342.6" r="4.2" fill="#00FFA3" fill-opacity="0.8"/><circle cx="650.2" cy="430.1" r="4.2" fill="#00FFA3" fill-opacity="0.8"/><circle cx="549.6" cy="436.1" r="4.2" fill="#00FFA3" fill-opacity="0.8"/><circle cx="529.9" cy="390.4" r="4.2" fill="#00FFA3" fill-opacity="0.8"/><circle cx="439.9" cy="403.1" r="4.2" fill="#00FFA3" fill-opacity="0.8"/><circle cx="998.5" cy="289.6" r="4.2" fill="#00FFA3" fill-opacity="0.8"/><circle cx="866.0" cy="315.4" r="4.2" fill="#00FFA3" fill-opacity="0.8"/><circle cx="1061.9" cy="349.2" r="4.2" fill="#00FFA3" fill-opacity="0.8"/><circle cx="905.3" cy="384.9" r="4.2" fill="#00FFA3" fill-opacity="0.8"/><circle cx="768.1" cy="329.4" r="4.2" fill="#00FFA3" fill-opacity="0.8"/><circle cx="659.3" cy="430.1" r="4.2" fill="#00FFA3" fill-opacity="0.8"/><circle cx="1301.0" cy="336.7" r="4.2" fill="#00FFA3" fill-opacity="0.8"/><circle cx="684.2" cy="459.3" r="4.2" fill="#00FFA3" fill-opacity="0.8"/><circle cx="985.4" cy="337.9" r="4.2" fill="#00FFA3" fill-opacity="0.8"/><circle cx="850.9" cy="469.8" r="4.2" fill="#00FFA3" fill-opacity="0.8"/><circle cx="918.5" cy="375.3" r="4.2" fill="#00FFA3" fill-opacity="0.8"/><circle cx="742.7" cy="384.9" r="4.2" fill="#00FFA3" fill-opacity="0.8"/><circle cx="303.8" cy="522.3" r="4.2" fill="#00FFA3" fill-opacity="0.8"/><circle cx="769.1" cy="403.1" r="4.2" fill="#00FFA3" fill-opacity="0.8"/><circle cx="722.8" cy="205.7" r="4.2" fill="#00FFA3" fill-opacity="0.8"/><circle cx="1159.4" cy="213.0" r="4.2" fill="#00FFA3" fill-opacity="0.8"/><circle cx="1215.0" cy="241.4" r="4.2" fill="#00FFA3" fill-opacity="0.8"/><circle cx="992.9" cy="369.1" r="4.2" fill="#00FFA3" fill-opacity="0.8"/><circle cx="1201.3" cy="275.3" r="4.2" fill="#00FFA3" fill-opacity="0.8"/><circle cx="797.6" cy="469.8" r="4.2" fill="#00FFA3" fill-opacity="0.8"/><circle cx="927.0" cy="390.4" r="4.2" fill="#00FFA3" fill-opacity="0.8"/><circle cx="807.6" cy="450.5" r="4.2" fill="#00FFA3" fill-opacity="0.8"/><circle cx="424.3" cy="499.1" r="4.2" fill="#00FFA3" fill-opacity="0.8"/><circle cx="781.2" cy="322.8" r="4.2" fill="#00FFA3" fill-opacity="0.8"/><circle cx="728.3" cy="360.0" r="4.2" fill="#00FFA3" fill-opacity="0.8"/><circle cx="766.2" cy="442.9" r="4.2" fill="#00FFA3" fill-opacity="0.8"/><circle cx="488.3" cy="442.9" r="4.2" fill="#00FFA3" fill-opacity="0.8"/><circle cx="753.6" cy="396.4" r="4.2" fill="#00FFA3" fill-opacity="0.8"/><circle cx="1028.7" cy="322.0" r="4.2" fill="#00FFA3" fill-opacity="0.8"/><circle cx="734.8" cy="436.1" r="4.2" fill="#00FFA3" fill-opacity="0.8"/><circle cx="707.1" cy="382.4" r="4.2" fill="#00FFA3" fill-opacity="0.8"/><circle cx="975.0" cy="317.8" r="4.2" fill="#00FFA3" fill-opacity="0.8"/><circle cx="1095.1" cy="379.9" r="4.2" fill="#00FFA3" fill-opacity="0.8"/><circle cx="485.4" cy="406.8" r="4.2" fill="#00FFA3" fill-opacity="0.8"/><circle cx="793.5" cy="299.9" r="4.2" fill="#00FFA3" fill-opacity="0.8"/><circle cx="521.9" cy="403.1" r="4.2" fill="#00FFA3" fill-opacity="0.8"/><circle cx="940.5" cy="424.6" r="4.2" fill="#00FFA3" fill-opacity="0.8"/><circle cx="767.1" cy="317.0" r="4.2" fill="#00FFA3" fill-opacity="0.8"/><circle cx="892.7" cy="353.6" r="4.2" fill="#00FFA3" fill-opacity="0.8"/><circle cx="500.7" cy="393.3" r="4.2" fill="#00FFA3" fill-opacity="0.8"/><polyline points="166.0,396.4 196.7,396.4 236.2,393.3 258.8,393.3 293.0,393.3 303.8,393.3 328.8,393.3 338.7,393.3 344.3,393.3 352.5,393.3 373.6,393.3 391.2,393.3 409.2,390.4 410.4,390.4 411.6,390.4 424.3,390.4 439.9,390.4 439.9,390.4 440.9,390.4 444.2,390.4 461.2,387.6 473.4,387.6 480.4,387.6 485.4,387.6 487.3,387.6 487.3,387.6 488.3,387.6 497.9,387.6 498.8,384.9 500.7,384.9 505.4,384.9 505.4,384.9 511.0,382.4 511.9,382.4 512.8,382.4 515.6,382.4 516.5,382.4 518.3,379.9 518.3,382.4 519.2,379.9 519.2,382.4 521.9,379.9 524.6,379.9 526.3,379.9 527.2,379.9 529.9,379.9 534.2,379.9 536.8,379.9 538.6,379.9 542.8,379.9 548.8,379.9 549.6,379.9 557.9,379.9 561.2,379.9 562.0,379.9 573.2,379.9 574.0,377.6 577.1,377.6 577.9,377.6 579.5,377.6 580.3,375.3 586.4,375.3 588.0,375.3 591.8,375.3 597.0,375.3 600.0,375.3 601.5,375.3 605.9,375.3 609.5,371.1 610.3,371.1 627.3,371.1 627.3,371.1 628.0,371.1 636.2,371.1 641.6,371.1 644.3,371.1 644.3,371.1 647.6,371.1 647.6,371.1 649.5,371.1 650.2,371.1 652.2,371.1 652.8,371.1 657.4,371.1 658.0,371.1 658.0,371.1 659.3,371.1 666.3,371.1 668.2,369.1 671.9,369.1 673.2,365.2 675.7,365.2 676.3,361.7 680.6,361.7 684.2,361.7 685.4,361.7 694.9,361.7 697.9,361.7 702.5,361.7 704.3,361.7 707.1,361.7 707.1,361.7 708.8,361.7 710.5,360.0 711.1,360.0 712.2,360.0 712.8,358.3 715.6,358.3 718.4,355.1 719.0,355.1 720.1,355.1 722.3,355.1 722.8,355.1 726.7,355.1 728.3,355.1 728.3,355.1 734.2,353.6 734.8,353.6 736.4,352.1 738.0,350.6 741.1,350.6 742.7,350.6 743.2,350.6 744.8,350.6 753.6,350.6 754.6,350.6 762.7,349.2 764.7,347.8 766.2,349.2 767.1,349.2 768.1,349.2 769.1,350.6 775.9,349.2 778.8,347.8 781.2,347.8 783.1,347.8 785.5,347.8 786.9,343.9 793.5,343.9 794.9,347.8 795.3,343.9 795.3,343.9 795.8,342.6 797.6,342.6 799.0,341.4 801.3,339.0 804.0,339.0 807.6,339.0 811.6,337.9 813.4,337.9 820.0,337.9 821.7,339.0 824.3,337.9 825.1,337.9 832.8,336.7 833.6,337.9 835.3,336.7 837.8,336.7 842.0,332.4 845.3,336.7 848.9,332.4 850.9,332.4 851.3,332.4 851.7,332.4 857.7,332.4 864.8,332.4 866.0,332.4 875.2,336.7 875.6,336.7 877.5,336.7 883.9,332.4 890.2,332.4 892.7,332.4 902.1,332.4 903.2,332.4 903.9,330.4 903.9,332.4 905.3,322.0 917.8,322.0 918.2,322.0 918.5,320.2 924.6,320.2 927.0,317.8 929.3,313.9 929.3,317.8 936.3,313.9 937.6,313.9 938.2,313.9 940.5,313.9 956.1,313.1 958.9,313.1 958.9,313.1 959.2,313.1 960.8,313.1 969.0,313.1 969.9,313.1 970.2,313.1 975.0,310.9 980.4,310.9 983.3,310.9 983.6,306.8 984.8,306.8 985.4,295.4 988.5,295.4 990.6,292.2 992.9,292.2 994.3,292.2 996.3,292.2 998.5,292.2 1004.1,295.4 1006.6,295.4 1009.4,306.8 1011.6,295.4 1016.5,295.4 1020.2,306.8 1022.9,310.9 1027.6,295.4 1028.7,295.4 1034.7,291.7 1035.7,295.4 1049.6,291.7 1054.4,275.3 1059.2,275.3 1061.9,241.4 1090.4,241.4 1095.1,241.4 1109.4,241.0 1113.4,225.6 1120.8,225.6 1128.9,225.6 1154.4,225.6 1159.4,225.6 1171.5,225.6 1172.8,241.0 1201.3,241.0 1210.3,241.0 1215.0,225.6 1215.7,225.6 1222.5,218.9 1240.7,218.9 1257.5,191.9 1297.7,218.9 1301.0,218.9 1348.1,218.9 1364.0,151.4 1376.7,218.9 1396.2,151.4 1423.7,218.9 1428.5,108.1 1431.3,225.6 1516.4,108.1" fill="none" stroke="#00FFA3" stroke-width="3" stroke-linejoin="round"/><rect x="946.6" y="78.3" width="410.4" height="18" fill="#0B0B12" opacity="0.85"/><text x="1354.0" y="91.3" font-size="13" fill="#00FFA3" text-anchor="end">2000-03 top: -35.5%, 4107 sessions to back above it</text><rect x="1011.1" y="97.3" width="410.4" height="18" fill="#0B0B12" opacity="0.85"/><text x="1418.5" y="110.3" font-size="13" fill="#00FFA3" text-anchor="end">2000-09 top: -41.5%, 3500 sessions to back above it</text><rect x="1099.0" y="116.3" width="410.4" height="18" fill="#0B0B12" opacity="0.85"/><text x="1506.4" y="129.3" font-size="13" fill="#00FFA3" text-anchor="end">2001-01 top: -51.3%, 2760 sessions to back above it</text><rect x="1021.8" y="218.6" width="402.5" height="18" fill="#0B0B12" opacity="0.85"/><text x="1421.3" y="231.6" font-size="13" fill="#00FFA3" text-anchor="end">2008-08 top: -41.8%, 355 sessions to back above it</text></svg>