<svg xmlns="http://www.w3.org/2000/svg" viewBox="0 0 1600 620" width="1600" height="620" font-family="ui-monospace,SFMono-Regular,Menlo,monospace"><rect width="1600" height="620" fill="#0B0B12"/><text x="74" y="26" font-size="18" fill="#C8C8D2" font-weight="600">XLK Technology: every pullback — how deep, and how long until a new high</text><text x="74" y="48" font-size="14" fill="#8E8EA0">131 pullbacks 2004–2026 · green dot = back above the old top · red ring = still under it (wait so far) · line = middle wait, all pullbacks at least this deep</text><line x1="74" x2="1574" y1="562.0" y2="562.0" stroke="#1C1C26"/><text x="66" y="567.0" font-size="14" fill="#8E8EA0" text-anchor="end">1</text><line x1="74" x2="1574" y1="515.0" y2="515.0" stroke="#1C1C26"/><text x="66" y="520.0" font-size="14" fill="#8E8EA0" text-anchor="end">2</text><line x1="74" x2="1574" y1="487.4" y2="487.4" stroke="#1C1C26"/><text x="66" y="492.4" font-size="14" fill="#8E8EA0" text-anchor="end">3</text><line x1="74" x2="1574" y1="452.8" y2="452.8" stroke="#1C1C26"/><text x="66" y="457.8" font-size="14" fill="#8E8EA0" text-anchor="end">5</text><line x1="74" x2="1574" y1="405.7" y2="405.7" stroke="#1C1C26"/><text x="66" y="410.7" font-size="14" fill="#8E8EA0" text-anchor="end">10</text><line x1="74" x2="1574" y1="358.7" y2="358.7" stroke="#1C1C26"/><text x="66" y="363.7" font-size="14" fill="#8E8EA0" text-anchor="end">20</text><line x1="74" x2="1574" y1="331.2" y2="331.2" stroke="#1C1C26"/><text x="66" y="336.2" font-size="14" fill="#8E8EA0" text-anchor="end">30</text><line x1="74" x2="1574" y1="296.5" y2="296.5" stroke="#1C1C26"/><text x="66" y="301.5" font-size="14" fill="#8E8EA0" text-anchor="end">50</text><line x1="74" x2="1574" y1="249.4" y2="249.4" stroke="#1C1C26"/><text x="66" y="254.4" font-size="14" fill="#8E8EA0" text-anchor="end">100</text><line x1="74" x2="1574" y1="202.4" y2="202.4" stroke="#1C1C26"/><text x="66" y="207.4" font-size="14" fill="#8E8EA0" text-anchor="end">200</text><line x1="74" x2="1574" y1="174.9" y2="174.9" stroke="#1C1C26"/><text x="66" y="179.9" font-size="14" fill="#8E8EA0" text-anchor="end">300</text><line x1="74" x2="1574" y1="140.2" y2="140.2" stroke="#1C1C26"/><text x="66" y="145.2" font-size="14" fill="#8E8EA0" text-anchor="end">500</text><line x1="74" x2="1574" y1="93.2" y2="93.2" stroke="#1C1C26"/><text x="66" y="98.2" font-size="14" fill="#8E8EA0" text-anchor="end">1000</text><line y1="66" y2="562" x1="90.0" x2="90.0" stroke="#1C1C26"/><text y="582" x="90.0" font-size="14" fill="#8E8EA0" text-anchor="middle">2%</text><line y1="66" y2="562" x1="289.1" x2="289.1" stroke="#1C1C26"/><text y="582" x="289.1" font-size="14" fill="#8E8EA0" text-anchor="middle">3%</text><line y1="66" y2="562" x1="539.9" x2="539.9" stroke="#1C1C26"/><text y="582" x="539.9" font-size="14" fill="#8E8EA0" text-anchor="middle">5%</text><line y1="66" y2="562" x1="880.2" x2="880.2" stroke="#1C1C26"/><text y="582" x="880.2" font-size="14" fill="#8E8EA0" text-anchor="middle">10%</text><line y1="66" y2="562" x1="1220.6" x2="1220.6" stroke="#1C1C26"/><text y="582" x="1220.6" font-size="14" fill="#8E8EA0" text-anchor="middle">20%</text><line y1="66" y2="562" x1="1419.7" x2="1419.7" stroke="#1C1C26"/><text y="582" x="1419.7" font-size="14" fill="#8E8EA0" text-anchor="middle">30%</text><rect x="74" y="66" width="1500" height="496" fill="none" stroke="#34343F"/><text x="824" y="608" font-size="14" fill="#B4B4C6" text-anchor="middle">pullback depth, top to low (%, log scale)</text><text transform="translate(18 314) rotate(-90)" font-size="14" fill="#B4B4C6" text-anchor="middle">sessions from the low to a new high (log)</text><line x1="728.4" x2="728.4" y1="66" y2="562" stroke="#FF2D55" stroke-opacity="0.45" stroke-dasharray="3 5"/><rect x="730.4" y="538.0" width="172.5" height="18" fill="#0B0B12" opacity="0.85"/><text x="733.4" y="551.0" font-size="13" fill="#FF2D55" text-anchor="start">deeper than 50%: 7.3%</text><line x1="967.7" x2="967.7" y1="66" y2="562" stroke="#FF2D55" stroke-opacity="0.45" stroke-dasharray="3 5"/><rect x="969.7" y="518.0" width="164.6" height="18" fill="#0B0B12" opacity="0.85"/><text x="972.7" y="531.0" font-size="13" fill="#FF2D55" text-anchor="start">deeper than 75%: 12%</text><line x1="1123.4" x2="1123.4" y1="66" y2="562" stroke="#FF2D55" stroke-opacity="0.45" stroke-dasharray="3 5"/><rect x="1125.4" y="538.0" width="180.5" height="18" fill="#0B0B12" opacity="0.85"/><text x="1128.4" y="551.0" font-size="13" fill="#FF2D55" text-anchor="start">deeper than 90%: 16.4%</text><line x1="1455.0" x2="1455.0" y1="66" y2="562" stroke="#FF2D55" stroke-opacity="0.45" stroke-dasharray="3 5"/><rect x="1272.6" y="518.0" width="180.5" height="18" fill="#0B0B12" opacity="0.85"/><text x="1450.0" y="531.0" font-size="13" fill="#FF2D55" text-anchor="end">deeper than 99%: 32.2%</text><circle cx="631.0" cy="440.4" r="4.2" fill="#00FFA3" fill-opacity="0.8"/><circle cx="614.5" cy="378.2" r="4.2" fill="#00FFA3" fill-opacity="0.8"/><circle cx="705.8" cy="142.0" r="4.2" fill="#00FFA3" fill-opacity="0.8"/><circle cx="912.1" cy="210.7" r="4.2" fill="#00FFA3" fill-opacity="0.8"/><circle cx="858.7" cy="233.8" r="4.2" fill="#00FFA3" fill-opacity="0.8"/><circle cx="1045.8" cy="281.9" r="4.2" fill="#00FFA3" fill-opacity="0.8"/><circle cx="390.7" cy="515.0" r="4.2" fill="#00FFA3" fill-opacity="0.8"/><circle cx="915.3" cy="198.5" r="4.2" fill="#00FFA3" fill-opacity="0.8"/><circle cx="449.6" cy="274.6" r="4.2" fill="#00FFA3" fill-opacity="0.8"/><circle cx="673.2" cy="299.3" r="4.2" fill="#00FFA3" fill-opacity="0.8"/><circle cx="681.4" cy="349.2" r="4.2" fill="#00FFA3" fill-opacity="0.8"/><circle cx="415.4" cy="412.9" r="4.2" fill="#00FFA3" fill-opacity="0.8"/><circle cx="590.2" cy="275.6" r="4.2" fill="#00FFA3" fill-opacity="0.8"/><circle cx="779.8" cy="349.2" r="4.2" fill="#00FFA3" fill-opacity="0.8"/><circle cx="618.7" cy="440.4" r="4.2" fill="#00FFA3" fill-opacity="0.8"/><circle cx="678.4" cy="212.2" r="4.2" fill="#00FFA3" fill-opacity="0.8"/><circle cx="1034.8" cy="261.3" r="4.2" fill="#00FFA3" fill-opacity="0.8"/><circle cx="773.7" cy="346.3" r="4.2" fill="#00FFA3" fill-opacity="0.8"/><circle cx="331.4" cy="333.5" r="4.2" fill="#00FFA3" fill-opacity="0.8"/><circle cx="320.8" cy="452.8" r="4.2" fill="#00FFA3" fill-opacity="0.8"/><circle cx="434.0" cy="352.2" r="4.2" fill="#00FFA3" fill-opacity="0.8"/><circle cx="706.5" cy="328.9" r="4.2" fill="#00FFA3" fill-opacity="0.8"/><circle cx="951.0" cy="335.8" r="4.2" fill="#00FFA3" fill-opacity="0.8"/><circle cx="966.5" cy="88.8" r="4.2" fill="#00FFA3" fill-opacity="0.8"/><circle cx="1394.2" cy="92.0" r="4.2" fill="#00FFA3" fill-opacity="0.8"/><circle cx="933.7" cy="349.2" r="4.2" fill="#00FFA3" fill-opacity="0.8"/><circle cx="1111.0" cy="125.1" r="4.2" fill="#00FFA3" fill-opacity="0.8"/><circle cx="1243.1" cy="156.2" r="4.2" fill="#00FFA3" fill-opacity="0.8"/><circle cx="1505.4" cy="182.5" r="4.2" fill="#00FFA3" fill-opacity="0.8"/><circle cx="1346.6" cy="244.2" r="4.2" fill="#00FFA3" fill-opacity="0.8"/><circle cx="1011.7" cy="295.1" r="4.2" fill="#00FFA3" fill-opacity="0.8"/><circle cx="1194.4" cy="387.9" r="4.2" fill="#00FFA3" fill-opacity="0.8"/><circle cx="712.1" cy="393.4" r="4.2" fill="#00FFA3" fill-opacity="0.8"/><circle cx="767.0" cy="440.4" r="4.2" fill="#00FFA3" fill-opacity="0.8"/><circle cx="464.7" cy="467.9" r="4.2" fill="#00FFA3" fill-opacity="0.8"/><circle cx="578.6" cy="420.9" r="4.2" fill="#00FFA3" fill-opacity="0.8"/><circle cx="605.1" cy="467.9" r="4.2" fill="#00FFA3" fill-opacity="0.8"/><circle cx="932.4" cy="324.7" r="4.2" fill="#00FFA3" fill-opacity="0.8"/><circle cx="1065.1" cy="240.6" r="4.2" fill="#00FFA3" fill-opacity="0.8"/><circle cx="1045.8" cy="284.1" r="4.2" fill="#00FFA3" fill-opacity="0.8"/><circle cx="795.2" cy="387.9" r="4.2" fill="#00FFA3" fill-opacity="0.8"/><circle cx="636.7" cy="365.8" r="4.2" fill="#00FFA3" fill-opacity="0.8"/><circle cx="854.5" cy="196.9" r="4.2" fill="#00FFA3" fill-opacity="0.8"/><circle cx="425.4" cy="487.4" r="4.2" fill="#00FFA3" fill-opacity="0.8"/><circle cx="854.0" cy="222.4" r="4.2" fill="#00FFA3" fill-opacity="0.8"/><circle cx="1123.4" cy="245.5" r="4.2" fill="#00FFA3" fill-opacity="0.8"/><circle cx="910.7" cy="440.4" r="4.2" fill="#00FFA3" fill-opacity="0.8"/><circle cx="860.2" cy="320.7" r="4.2" fill="#00FFA3" fill-opacity="0.8"/><circle cx="627.0" cy="382.9" r="4.2" fill="#00FFA3" fill-opacity="0.8"/><circle cx="624.5" cy="263.8" r="4.2" fill="#00FFA3" fill-opacity="0.8"/><circle cx="905.1" cy="297.9" r="4.2" fill="#00FFA3" fill-opacity="0.8"/><circle cx="209.3" cy="487.4" r="4.2" fill="#00FFA3" fill-opacity="0.8"/><circle cx="1054.8" cy="235.4" r="4.2" fill="#00FFA3" fill-opacity="0.8"/><circle cx="237.3" cy="452.8" r="4.2" fill="#00FFA3" fill-opacity="0.8"/><circle cx="539.9" cy="429.9" r="4.2" fill="#00FFA3" fill-opacity="0.8"/><circle cx="728.4" cy="333.5" r="4.2" fill="#00FFA3" fill-opacity="0.8"/><circle cx="382.7" cy="387.9" r="4.2" fill="#00FFA3" fill-opacity="0.8"/><circle cx="504.3" cy="429.9" r="4.2" fill="#00FFA3" fill-opacity="0.8"/><circle cx="622.0" cy="429.9" r="4.2" fill="#00FFA3" fill-opacity="0.8"/><circle cx="527.0" cy="362.2" r="4.2" fill="#00FFA3" fill-opacity="0.8"/><circle cx="488.2" cy="412.9" r="4.2" fill="#00FFA3" fill-opacity="0.8"/><circle cx="877.8" cy="387.9" r="4.2" fill="#00FFA3" fill-opacity="0.8"/><circle cx="665.7" cy="311.6" r="4.2" fill="#00FFA3" fill-opacity="0.8"/><circle cx="711.4" cy="420.9" r="4.2" fill="#00FFA3" fill-opacity="0.8"/><circle cx="612.8" cy="352.2" r="4.2" fill="#00FFA3" fill-opacity="0.8"/><circle cx="415.4" cy="429.9" r="4.2" fill="#00FFA3" fill-opacity="0.8"/><circle cx="697.3" cy="269.0" r="4.2" fill="#00FFA3" fill-opacity="0.8"/><circle cx="1394.7" cy="306.7" r="4.2" fill="#00FFA3" fill-opacity="0.8"/><circle cx="714.1" cy="420.9" r="4.2" fill="#00FFA3" fill-opacity="0.8"/><circle cx="554.4" cy="387.9" r="4.2" fill="#00FFA3" fill-opacity="0.8"/><circle cx="1073.4" cy="299.3" r="4.2" fill="#00FFA3" fill-opacity="0.8"/><circle cx="771.3" cy="405.7" r="4.2" fill="#00FFA3" fill-opacity="0.8"/><circle cx="679.2" cy="303.6" r="4.2" fill="#00FFA3" fill-opacity="0.8"/><circle cx="704.4" cy="412.9" r="4.2" fill="#00FFA3" fill-opacity="0.8"/><circle cx="417.9" cy="420.9" r="4.2" fill="#00FFA3" fill-opacity="0.8"/><circle cx="226.3" cy="335.8" r="4.2" fill="#00FFA3" fill-opacity="0.8"/><circle cx="509.5" cy="440.4" r="4.2" fill="#00FFA3" fill-opacity="0.8"/><circle cx="183.6" cy="467.9" r="4.2" fill="#00FFA3" fill-opacity="0.8"/><circle cx="195.6" cy="429.9" r="4.2" fill="#00FFA3" fill-opacity="0.8"/><circle cx="213.1" cy="420.9" r="4.2" fill="#00FFA3" fill-opacity="0.8"/><circle cx="535.0" cy="333.5" r="4.2" fill="#00FFA3" fill-opacity="0.8"/><circle cx="471.5" cy="440.4" r="4.2" fill="#00FFA3" fill-opacity="0.8"/><circle cx="443.6" cy="420.9" r="4.2" fill="#00FFA3" fill-opacity="0.8"/><circle cx="964.8" cy="405.7" r="4.2" fill="#00FFA3" fill-opacity="0.8"/><circle cx="948.0" cy="305.2" r="4.2" fill="#00FFA3" fill-opacity="0.8"/><circle cx="651.8" cy="420.9" r="4.2" fill="#00FFA3" fill-opacity="0.8"/><circle cx="571.3" cy="412.9" r="4.2" fill="#00FFA3" fill-opacity="0.8"/><circle cx="566.6" cy="362.2" r="4.2" fill="#00FFA3" fill-opacity="0.8"/><circle cx="1045.5" cy="242.4" r="4.2" fill="#00FFA3" fill-opacity="0.8"/><circle cx="923.9" cy="280.8" r="4.2" fill="#00FFA3" fill-opacity="0.8"/><circle cx="1152.8" cy="316.9" r="4.2" fill="#00FFA3" fill-opacity="0.8"/><circle cx="969.4" cy="358.7" r="4.2" fill="#00FFA3" fill-opacity="0.8"/><circle cx="840.9" cy="286.4" r="4.2" fill="#00FFA3" fill-opacity="0.8"/><circle cx="648.7" cy="420.9" r="4.2" fill="#00FFA3" fill-opacity="0.8"/><circle cx="1478.8" cy="290.0" r="4.2" fill="#00FFA3" fill-opacity="0.8"/><circle cx="1065.1" cy="283.0" r="4.2" fill="#00FFA3" fill-opacity="0.8"/><circle cx="962.8" cy="440.4" r="4.2" fill="#00FFA3" fill-opacity="0.8"/><circle cx="901.4" cy="349.2" r="4.2" fill="#00FFA3" fill-opacity="0.8"/><circle cx="823.6" cy="343.5" r="4.2" fill="#00FFA3" fill-opacity="0.8"/><circle cx="787.0" cy="373.8" r="4.2" fill="#00FFA3" fill-opacity="0.8"/><circle cx="663.4" cy="452.8" r="4.2" fill="#00FFA3" fill-opacity="0.8"/><circle cx="1152.2" cy="160.8" r="4.2" fill="#00FFA3" fill-opacity="0.8"/><circle cx="1048.6" cy="174.2" r="4.2" fill="#00FFA3" fill-opacity="0.8"/><circle cx="1275.6" cy="185.9" r="4.2" fill="#00FFA3" fill-opacity="0.8"/><circle cx="1066.7" cy="333.5" r="4.2" fill="#00FFA3" fill-opacity="0.8"/><circle cx="1342.0" cy="225.2" r="4.2" fill="#00FFA3" fill-opacity="0.8"/><circle cx="1019.9" cy="369.7" r="4.2" fill="#00FFA3" fill-opacity="0.8"/><circle cx="723.7" cy="467.9" r="4.2" fill="#00FFA3" fill-opacity="0.8"/><circle cx="540.9" cy="467.9" r="4.2" fill="#00FFA3" fill-opacity="0.8"/><circle cx="890.4" cy="283.0" r="4.2" fill="#00FFA3" fill-opacity="0.8"/><circle cx="852.5" cy="326.8" r="4.2" fill="#00FFA3" fill-opacity="0.8"/><circle cx="752.5" cy="429.9" r="4.2" fill="#00FFA3" fill-opacity="0.8"/><circle cx="570.3" cy="420.9" r="4.2" fill="#00FFA3" fill-opacity="0.8"/><circle cx="584.0" cy="429.9" r="4.2" fill="#00FFA3" fill-opacity="0.8"/><circle cx="858.1" cy="365.8" r="4.2" fill="#00FFA3" fill-opacity="0.8"/><circle cx="592.0" cy="429.9" r="4.2" fill="#00FFA3" fill-opacity="0.8"/><circle cx="1218.1" cy="260.5" r="4.2" fill="#00FFA3" fill-opacity="0.8"/><circle cx="914.8" cy="382.9" r="4.2" fill="#00FFA3" fill-opacity="0.8"/><circle cx="567.6" cy="452.8" r="4.2" fill="#00FFA3" fill-opacity="0.8"/><circle cx="719.6" cy="440.4" r="4.2" fill="#00FFA3" fill-opacity="0.8"/><circle cx="736.4" cy="399.3" r="4.2" fill="#00FFA3" fill-opacity="0.8"/><circle cx="1084.5" cy="276.6" r="4.2" fill="#00FFA3" fill-opacity="0.8"/><circle cx="1247.6" cy="352.2" r="4.2" fill="#00FFA3" fill-opacity="0.8"/><circle cx="494.7" cy="429.9" r="4.2" fill="#00FFA3" fill-opacity="0.8"/><circle cx="564.8" cy="382.9" r="4.2" fill="#00FFA3" fill-opacity="0.8"/><circle cx="993.3" cy="250.1" r="4.2" fill="#00FFA3" fill-opacity="0.8"/><circle cx="678.4" cy="338.3" r="4.2" fill="#00FFA3" fill-opacity="0.8"/><circle cx="1095.1" cy="399.3" r="4.2" fill="#00FFA3" fill-opacity="0.8"/><circle cx="1009.4" cy="269.0" r="6" fill="none" stroke="#FF2D55" stroke-width="2.2"/><circle cx="1056.9" cy="316.9" r="4.2" fill="#00FFA3" fill-opacity="0.8"/><circle cx="687.2" cy="362.2" r="4.2" fill="#00FFA3" fill-opacity="0.8"/><polyline points="183.6,352.2 195.6,352.2 209.3,352.2 213.1,352.2 226.3,349.2 237.3,352.2 320.8,349.2 331.4,349.2 382.7,349.2 390.7,349.2 415.4,349.2 415.4,349.2 417.9,349.2 425.4,349.2 434.0,349.2 443.6,349.2 449.6,346.3 464.7,349.2 471.5,346.3 488.2,346.3 494.7,343.5 504.3,343.5 509.5,338.3 527.0,338.3 535.0,335.8 539.9,338.3 540.9,335.8 554.4,333.5 564.8,333.5 566.6,333.5 567.6,333.5 570.3,333.5 571.3,328.9 578.6,328.9 584.0,326.8 590.2,324.7 592.0,326.8 605.1,326.8 612.8,324.7 614.5,324.7 618.7,320.7 622.0,316.9 624.5,316.9 627.0,316.9 631.0,316.9 636.7,316.9 648.7,316.9 651.8,316.9 663.4,311.6 665.7,311.6 673.2,306.7 678.4,306.7 678.4,316.9 679.2,316.9 681.4,316.9 687.2,316.9 697.3,306.7 704.4,316.9 705.8,306.7 706.5,316.9 711.4,306.7 712.1,306.7 714.1,305.2 719.6,305.2 723.7,299.3 728.4,297.9 736.4,297.9 752.5,297.9 767.0,295.1 771.3,290.0 773.7,290.0 779.8,290.0 787.0,286.4 795.2,286.4 823.6,284.1 840.9,284.1 852.5,283.0 854.0,283.0 854.5,283.0 858.1,283.0 858.7,283.0 860.2,284.1 877.8,283.0 890.4,283.0 901.4,283.0 905.1,281.9 910.7,281.9 912.1,280.8 914.8,281.9 915.3,281.9 923.9,281.9 932.4,283.0 933.7,281.9 948.0,276.6 951.0,276.6 962.8,276.6 964.8,261.3 966.5,261.3 969.4,261.3 993.3,261.3 1009.4,261.3 1011.7,261.3 1019.9,261.3 1034.8,261.3 1045.5,260.5 1045.8,260.5 1045.8,276.6 1048.6,245.5 1054.8,260.5 1056.9,276.6 1065.1,260.5 1065.1,260.5 1066.7,260.5 1073.4,260.5 1084.5,245.5 1095.1,245.5 1111.0,244.2 1123.4,245.5 1152.2,244.2 1152.8,260.5 1194.4,244.2 1218.1,244.2 1243.1,225.2 1247.6,244.2 1275.6,225.2 1342.0,244.2 1346.6,244.2 1394.2,290.0 1394.7,290.0 1478.8,290.0 1505.4,182.5" fill="none" stroke="#00FFA3" stroke-width="3" stroke-linejoin="round"/><rect x="572.8" y="81.8" width="386.6" height="18" fill="#0B0B12" opacity="0.85"/><text x="956.5" y="94.8" font-size="13" fill="#00FFA3" text-anchor="end">2007-11 top: -11.9%, 1066 sessions to a new high</text><rect x="1119.7" y="175.5" width="378.7" height="18" fill="#0B0B12" opacity="0.85"/><text x="1495.4" y="188.5" font-size="13" fill="#00FFA3" text-anchor="end">2008-09 top: -35.7%, 268 sessions to a new high</text><rect x="1101.0" y="283.0" width="370.8" height="18" fill="#0B0B12" opacity="0.85"/><text x="1468.8" y="296.0" font-size="13" fill="#00FFA3" text-anchor="end">2020-02 top: -33.8%, 55 sessions to a new high</text><rect x="1016.9" y="302.0" width="370.8" height="18" fill="#0B0B12" opacity="0.85"/><text x="1384.7" y="315.0" font-size="13" fill="#00FFA3" text-anchor="end">2015-07 top: -28.5%, 43 sessions to a new high</text></svg>