<svg xmlns="http://www.w3.org/2000/svg" viewBox="0 0 1600 620" width="1600" height="620" font-family="ui-monospace,SFMono-Regular,Menlo,monospace"><rect width="1600" height="620" fill="#0B0B12"/><text x="74" y="26" font-size="18" fill="#C8C8D2" font-weight="600">XLK Technology: every decline from a record high — how deep, and how long until a NEW RECORD</text><text x="74" y="48" font-size="14" fill="#8E8EA0">271 declines 2004–2026, record to lowest low before the next record · green = new record · red ring = not yet · line = middle wait, at least this deep</text><line x1="74" x2="1574" y1="562.0" y2="562.0" stroke="#1C1C26"/><text x="66" y="567.0" font-size="14" fill="#8E8EA0" text-anchor="end">1</text><line x1="74" x2="1574" y1="513.2" y2="513.2" stroke="#1C1C26"/><text x="66" y="518.2" font-size="14" fill="#8E8EA0" text-anchor="end">2</text><line x1="74" x2="1574" y1="484.6" y2="484.6" stroke="#1C1C26"/><text x="66" y="489.6" font-size="14" fill="#8E8EA0" text-anchor="end">3</text><line x1="74" x2="1574" y1="448.6" y2="448.6" stroke="#1C1C26"/><text x="66" y="453.6" font-size="14" fill="#8E8EA0" text-anchor="end">5</text><line x1="74" x2="1574" y1="399.8" y2="399.8" stroke="#1C1C26"/><text x="66" y="404.8" font-size="14" fill="#8E8EA0" text-anchor="end">10</text><line x1="74" x2="1574" y1="350.9" y2="350.9" stroke="#1C1C26"/><text x="66" y="355.9" font-size="14" fill="#8E8EA0" text-anchor="end">20</text><line x1="74" x2="1574" y1="322.4" y2="322.4" stroke="#1C1C26"/><text x="66" y="327.4" font-size="14" fill="#8E8EA0" text-anchor="end">30</text><line x1="74" x2="1574" y1="286.4" y2="286.4" stroke="#1C1C26"/><text x="66" y="291.4" font-size="14" fill="#8E8EA0" text-anchor="end">50</text><line x1="74" x2="1574" y1="237.5" y2="237.5" stroke="#1C1C26"/><text x="66" y="242.5" font-size="14" fill="#8E8EA0" text-anchor="end">100</text><line x1="74" x2="1574" y1="188.7" y2="188.7" stroke="#1C1C26"/><text x="66" y="193.7" font-size="14" fill="#8E8EA0" text-anchor="end">200</text><line x1="74" x2="1574" y1="160.1" y2="160.1" stroke="#1C1C26"/><text x="66" y="165.1" font-size="14" fill="#8E8EA0" text-anchor="end">300</text><line x1="74" x2="1574" y1="124.1" y2="124.1" stroke="#1C1C26"/><text x="66" y="129.1" font-size="14" fill="#8E8EA0" text-anchor="end">500</text><line x1="74" x2="1574" y1="75.3" y2="75.3" stroke="#1C1C26"/><text x="66" y="80.3" font-size="14" fill="#8E8EA0" text-anchor="end">1000</text><line y1="66" y2="562" x1="217.3" x2="217.3" stroke="#1C1C26"/><text y="582" x="217.3" font-size="14" fill="#8E8EA0" text-anchor="middle">0.5%</text><line y1="66" y2="562" x1="411.8" x2="411.8" stroke="#1C1C26"/><text y="582" x="411.8" font-size="14" fill="#8E8EA0" text-anchor="middle">1%</text><line y1="66" y2="562" x1="606.2" x2="606.2" stroke="#1C1C26"/><text y="582" x="606.2" font-size="14" fill="#8E8EA0" text-anchor="middle">2%</text><line y1="66" y2="562" x1="720.0" x2="720.0" stroke="#1C1C26"/><text y="582" x="720.0" font-size="14" fill="#8E8EA0" text-anchor="middle">3%</text><line y1="66" y2="562" x1="863.3" x2="863.3" stroke="#1C1C26"/><text y="582" x="863.3" font-size="14" fill="#8E8EA0" text-anchor="middle">5%</text><line y1="66" y2="562" x1="1057.8" x2="1057.8" stroke="#1C1C26"/><text y="582" x="1057.8" font-size="14" fill="#8E8EA0" text-anchor="middle">10%</text><line y1="66" y2="562" x1="1252.2" x2="1252.2" stroke="#1C1C26"/><text y="582" x="1252.2" font-size="14" fill="#8E8EA0" text-anchor="middle">20%</text><line y1="66" y2="562" x1="1366.0" x2="1366.0" stroke="#1C1C26"/><text y="582" x="1366.0" font-size="14" fill="#8E8EA0" text-anchor="middle">30%</text><line y1="66" y2="562" x1="1509.3" x2="1509.3" stroke="#1C1C26"/><text y="582" x="1509.3" font-size="14" fill="#8E8EA0" text-anchor="middle">50%</text><rect x="74" y="66" width="1500" height="496" fill="none" stroke="#34343F"/><text x="824" y="608" font-size="14" fill="#B4B4C6" text-anchor="middle">decline, record to low (%, log scale; under 0.3% drawn at 0.3%)</text><text transform="translate(18 314) rotate(-90)" font-size="14" fill="#B4B4C6" text-anchor="middle">sessions from the low to a new record (log)</text><line x1="570.4" x2="570.4" y1="66" y2="562" stroke="#FF2D55" stroke-opacity="0.45" stroke-dasharray="3 5"/><rect x="572.4" y="538.0" width="172.5" height="18" fill="#0B0B12" opacity="0.85"/><text x="575.4" y="551.0" font-size="13" fill="#FF2D55" text-anchor="start">deeper than 50%: 1.8%</text><line x1="801.4" x2="801.4" y1="66" y2="562" stroke="#FF2D55" stroke-opacity="0.45" stroke-dasharray="3 5"/><rect x="803.4" y="518.0" width="156.7" height="18" fill="#0B0B12" opacity="0.85"/><text x="806.4" y="531.0" font-size="13" fill="#FF2D55" text-anchor="start">deeper than 75%: 4%</text><line x1="976.7" x2="976.7" y1="66" y2="562" stroke="#FF2D55" stroke-opacity="0.45" stroke-dasharray="3 5"/><rect x="978.7" y="538.0" width="172.5" height="18" fill="#0B0B12" opacity="0.85"/><text x="981.7" y="551.0" font-size="13" fill="#FF2D55" text-anchor="start">deeper than 90%: 7.5%</text><line x1="1370.6" x2="1370.6" y1="66" y2="562" stroke="#FF2D55" stroke-opacity="0.45" stroke-dasharray="3 5"/><rect x="1188.1" y="518.0" width="180.5" height="18" fill="#0B0B12" opacity="0.85"/><text x="1365.6" y="531.0" font-size="13" fill="#FF2D55" text-anchor="end">deeper than 99%: 30.5%</text><circle cx="619.9" cy="562.0" r="4.2" fill="#00FFA3" fill-opacity="0.8"/><circle cx="965.2" cy="424.9" r="4.2" fill="#00FFA3" fill-opacity="0.8"/><circle cx="588.9" cy="562.0" r="4.2" fill="#00FFA3" fill-opacity="0.8"/><circle cx="555.6" cy="562.0" r="4.2" fill="#00FFA3" fill-opacity="0.8"/><circle cx="915.4" cy="435.8" r="4.2" fill="#00FFA3" fill-opacity="0.8"/><circle cx="597.7" cy="562.0" r="4.2" fill="#00FFA3" fill-opacity="0.8"/><circle cx="905.9" cy="371.2" r="4.2" fill="#00FFA3" fill-opacity="0.8"/><circle cx="750.9" cy="415.5" r="4.2" fill="#00FFA3" fill-opacity="0.8"/><circle cx="582.8" cy="562.0" r="4.2" fill="#00FFA3" fill-opacity="0.8"/><circle cx="536.5" cy="562.0" r="4.2" fill="#00FFA3" fill-opacity="0.8"/><circle cx="1247.8" cy="147.9" r="4.2" fill="#00FFA3" fill-opacity="0.8"/><circle cx="476.6" cy="562.0" r="4.2" fill="#00FFA3" fill-opacity="0.8"/><circle cx="1201.1" cy="269.0" r="4.2" fill="#00FFA3" fill-opacity="0.8"/><circle cx="657.4" cy="513.2" r="4.2" fill="#00FFA3" fill-opacity="0.8"/><circle cx="504.2" cy="513.2" r="4.2" fill="#00FFA3" fill-opacity="0.8"/><circle cx="665.4" cy="513.2" r="4.2" fill="#00FFA3" fill-opacity="0.8"/><circle cx="502.1" cy="562.0" r="4.2" fill="#00FFA3" fill-opacity="0.8"/><circle cx="631.7" cy="562.0" r="4.2" fill="#00FFA3" fill-opacity="0.8"/><circle cx="334.8" cy="562.0" r="4.2" fill="#00FFA3" fill-opacity="0.8"/><circle cx="263.7" cy="562.0" r="4.2" fill="#00FFA3" fill-opacity="0.8"/><circle cx="768.8" cy="399.8" r="4.2" fill="#00FFA3" fill-opacity="0.8"/><circle cx="802.8" cy="344.2" r="4.2" fill="#00FFA3" fill-opacity="0.8"/><circle cx="958.5" cy="320.0" r="4.2" fill="#00FFA3" fill-opacity="0.8"/><circle cx="462.9" cy="562.0" r="4.2" fill="#00FFA3" fill-opacity="0.8"/><circle cx="382.2" cy="562.0" r="4.2" fill="#00FFA3" fill-opacity="0.8"/><circle cx="525.5" cy="562.0" r="4.2" fill="#00FFA3" fill-opacity="0.8"/><circle cx="504.2" cy="562.0" r="4.2" fill="#00FFA3" fill-opacity="0.8"/><circle cx="460.6" cy="562.0" r="4.2" fill="#00FFA3" fill-opacity="0.8"/><circle cx="677.7" cy="484.6" r="4.2" fill="#00FFA3" fill-opacity="0.8"/><circle cx="761.6" cy="435.8" r="4.2" fill="#00FFA3" fill-opacity="0.8"/><circle cx="400.3" cy="562.0" r="4.2" fill="#00FFA3" fill-opacity="0.8"/><circle cx="701.6" cy="464.3" r="4.2" fill="#00FFA3" fill-opacity="0.8"/><circle cx="766.4" cy="513.2" r="4.2" fill="#00FFA3" fill-opacity="0.8"/><circle cx="640.5" cy="562.0" r="4.2" fill="#00FFA3" fill-opacity="0.8"/><circle cx="1098.2" cy="327.2" r="4.2" fill="#00FFA3" fill-opacity="0.8"/><circle cx="472.1" cy="562.0" r="4.2" fill="#00FFA3" fill-opacity="0.8"/><circle cx="481.0" cy="562.0" r="4.2" fill="#00FFA3" fill-opacity="0.8"/><circle cx="579.8" cy="513.2" r="4.2" fill="#00FFA3" fill-opacity="0.8"/><circle cx="807.6" cy="513.2" r="4.2" fill="#00FFA3" fill-opacity="0.8"/><circle cx="481.0" cy="562.0" r="4.2" fill="#00FFA3" fill-opacity="0.8"/><circle cx="1534.8" cy="89.7" r="4.2" fill="#00FFA3" fill-opacity="0.8"/><circle cx="517.9" cy="562.0" r="4.2" fill="#00FFA3" fill-opacity="0.8"/><circle cx="701.6" cy="464.3" r="4.2" fill="#00FFA3" fill-opacity="0.8"/><circle cx="338.4" cy="562.0" r="4.2" fill="#00FFA3" fill-opacity="0.8"/><circle cx="435.9" cy="562.0" r="4.2" fill="#00FFA3" fill-opacity="0.8"/><circle cx="504.2" cy="562.0" r="4.2" fill="#00FFA3" fill-opacity="0.8"/><circle cx="555.6" cy="484.6" r="4.2" fill="#00FFA3" fill-opacity="0.8"/><circle cx="1101.6" cy="283.6" r="4.2" fill="#00FFA3" fill-opacity="0.8"/><circle cx="674.4" cy="484.6" r="4.2" fill="#00FFA3" fill-opacity="0.8"/><circle cx="474.4" cy="484.6" r="4.2" fill="#00FFA3" fill-opacity="0.8"/><circle cx="315.7" cy="513.2" r="4.2" fill="#00FFA3" fill-opacity="0.8"/><circle cx="1157.5" cy="222.9" r="4.2" fill="#00FFA3" fill-opacity="0.8"/><circle cx="971.0" cy="324.7" r="4.2" fill="#00FFA3" fill-opacity="0.8"/><circle cx="550.6" cy="562.0" r="4.2" fill="#00FFA3" fill-opacity="0.8"/><circle cx="773.5" cy="381.3" r="4.2" fill="#00FFA3" fill-opacity="0.8"/><circle cx="349.2" cy="562.0" r="4.2" fill="#00FFA3" fill-opacity="0.8"/><circle cx="842.9" cy="424.9" r="4.2" fill="#00FFA3" fill-opacity="0.8"/><circle cx="506.2" cy="513.2" r="4.2" fill="#00FFA3" fill-opacity="0.8"/><circle cx="263.7" cy="562.0" r="4.2" fill="#00FFA3" fill-opacity="0.8"/><circle cx="451.0" cy="484.6" r="4.2" fill="#00FFA3" fill-opacity="0.8"/><circle cx="565.5" cy="484.6" r="4.2" fill="#00FFA3" fill-opacity="0.8"/><circle cx="356.1" cy="513.2" r="4.2" fill="#00FFA3" fill-opacity="0.8"/><circle cx="521.8" cy="448.6" r="4.2" fill="#00FFA3" fill-opacity="0.8"/><circle cx="397.4" cy="562.0" r="4.2" fill="#00FFA3" fill-opacity="0.8"/><circle cx="349.2" cy="562.0" r="4.2" fill="#00FFA3" fill-opacity="0.8"/><circle cx="705.6" cy="513.2" r="4.2" fill="#00FFA3" fill-opacity="0.8"/><circle cx="299.4" cy="562.0" r="4.2" fill="#00FFA3" fill-opacity="0.8"/><circle cx="679.8" cy="513.2" r="4.2" fill="#00FFA3" fill-opacity="0.8"/><circle cx="910.2" cy="424.9" r="4.2" fill="#00FFA3" fill-opacity="0.8"/><circle cx="417.3" cy="562.0" r="4.2" fill="#00FFA3" fill-opacity="0.8"/><circle cx="433.4" cy="562.0" r="4.2" fill="#00FFA3" fill-opacity="0.8"/><circle cx="625.2" cy="562.0" r="4.2" fill="#00FFA3" fill-opacity="0.8"/><circle cx="706.6" cy="464.3" r="4.2" fill="#00FFA3" fill-opacity="0.8"/><circle cx="695.6" cy="484.6" r="4.2" fill="#00FFA3" fill-opacity="0.8"/><circle cx="855.9" cy="354.5" r="4.2" fill="#00FFA3" fill-opacity="0.8"/><circle cx="565.5" cy="513.2" r="4.2" fill="#00FFA3" fill-opacity="0.8"/><circle cx="303.6" cy="562.0" r="4.2" fill="#00FFA3" fill-opacity="0.8"/><circle cx="406.1" cy="562.0" r="4.2" fill="#00FFA3" fill-opacity="0.8"/><circle cx="273.1" cy="562.0" r="4.2" fill="#00FFA3" fill-opacity="0.8"/><circle cx="430.8" cy="484.6" r="4.2" fill="#00FFA3" fill-opacity="0.8"/><circle cx="536.5" cy="464.3" r="4.2" fill="#00FFA3" fill-opacity="0.8"/><circle cx="125.1" cy="562.0" r="4.2" fill="#00FFA3" fill-opacity="0.8"/><circle cx="613.2" cy="513.2" r="4.2" fill="#00FFA3" fill-opacity="0.8"/><circle cx="582.8" cy="484.6" r="4.2" fill="#00FFA3" fill-opacity="0.8"/><circle cx="441.0" cy="562.0" r="4.2" fill="#00FFA3" fill-opacity="0.8"/><circle cx="833.7" cy="407.2" r="4.2" fill="#00FFA3" fill-opacity="0.8"/><circle cx="379.1" cy="513.2" r="4.2" fill="#00FFA3" fill-opacity="0.8"/><circle cx="476.6" cy="513.2" r="4.2" fill="#00FFA3" fill-opacity="0.8"/><circle cx="584.4" cy="513.2" r="4.2" fill="#00FFA3" fill-opacity="0.8"/><circle cx="1056.3" cy="381.3" r="4.2" fill="#00FFA3" fill-opacity="0.8"/><circle cx="425.5" cy="513.2" r="4.2" fill="#00FFA3" fill-opacity="0.8"/><circle cx="193.9" cy="562.0" r="4.2" fill="#00FFA3" fill-opacity="0.8"/><circle cx="299.4" cy="562.0" r="4.2" fill="#00FFA3" fill-opacity="0.8"/><circle cx="504.2" cy="562.0" r="4.2" fill="#00FFA3" fill-opacity="0.8"/><circle cx="345.6" cy="562.0" r="4.2" fill="#00FFA3" fill-opacity="0.8"/><circle cx="976.7" cy="407.2" r="4.2" fill="#00FFA3" fill-opacity="0.8"/><circle cx="258.9" cy="562.0" r="4.2" fill="#00FFA3" fill-opacity="0.8"/><circle cx="403.2" cy="513.2" r="4.2" fill="#00FFA3" fill-opacity="0.8"/><circle cx="904.9" cy="344.2" r="4.2" fill="#00FFA3" fill-opacity="0.8"/><circle cx="792.1" cy="424.9" r="4.2" fill="#00FFA3" fill-opacity="0.8"/><circle cx="604.8" cy="562.0" r="4.2" fill="#00FFA3" fill-opacity="0.8"/><circle cx="1351.7" cy="297.0" r="4.2" fill="#00FFA3" fill-opacity="0.8"/><circle cx="516.0" cy="562.0" r="4.2" fill="#00FFA3" fill-opacity="0.8"/><circle cx="411.8" cy="562.0" r="4.2" fill="#00FFA3" fill-opacity="0.8"/><circle cx="871.6" cy="381.3" r="4.2" fill="#00FFA3" fill-opacity="0.8"/><circle cx="1168.1" cy="289.2" r="4.2" fill="#00FFA3" fill-opacity="0.8"/><circle cx="372.7" cy="562.0" r="4.2" fill="#00FFA3" fill-opacity="0.8"/><circle cx="986.6" cy="399.8" r="4.2" fill="#00FFA3" fill-opacity="0.8"/><circle cx="205.9" cy="562.0" r="4.2" fill="#00FFA3" fill-opacity="0.8"/><circle cx="406.1" cy="513.2" r="4.2" fill="#00FFA3" fill-opacity="0.8"/><circle cx="510.1" cy="484.6" r="4.2" fill="#00FFA3" fill-opacity="0.8"/><circle cx="311.7" cy="562.0" r="4.2" fill="#00FFA3" fill-opacity="0.8"/><circle cx="263.7" cy="562.0" r="4.2" fill="#00FFA3" fill-opacity="0.8"/><circle cx="532.9" cy="386.9" r="4.2" fill="#00FFA3" fill-opacity="0.8"/><circle cx="793.6" cy="415.5" r="4.2" fill="#00FFA3" fill-opacity="0.8"/><circle cx="570.4" cy="399.8" r="4.2" fill="#00FFA3" fill-opacity="0.8"/><circle cx="845.9" cy="435.8" r="4.2" fill="#00FFA3" fill-opacity="0.8"/><circle cx="385.3" cy="513.2" r="4.2" fill="#00FFA3" fill-opacity="0.8"/><circle cx="800.7" cy="464.3" r="4.2" fill="#00FFA3" fill-opacity="0.8"/><circle cx="277.7" cy="562.0" r="4.2" fill="#00FFA3" fill-opacity="0.8"/><circle cx="420.1" cy="562.0" r="4.2" fill="#00FFA3" fill-opacity="0.8"/><circle cx="659.7" cy="464.3" r="4.2" fill="#00FFA3" fill-opacity="0.8"/><circle cx="460.6" cy="562.0" r="4.2" fill="#00FFA3" fill-opacity="0.8"/><circle cx="342.1" cy="513.2" r="4.2" fill="#00FFA3" fill-opacity="0.8"/><circle cx="342.1" cy="562.0" r="4.2" fill="#00FFA3" fill-opacity="0.8"/><circle cx="593.3" cy="448.6" r="4.2" fill="#00FFA3" fill-opacity="0.8"/><circle cx="319.6" cy="562.0" r="4.2" fill="#00FFA3" fill-opacity="0.8"/><circle cx="451.0" cy="464.3" r="4.2" fill="#00FFA3" fill-opacity="0.8"/><circle cx="319.6" cy="562.0" r="4.2" fill="#00FFA3" fill-opacity="0.8"/><circle cx="311.7" cy="562.0" r="4.2" fill="#00FFA3" fill-opacity="0.8"/><circle cx="666.6" cy="424.9" r="4.2" fill="#00FFA3" fill-opacity="0.8"/><circle cx="676.6" cy="415.5" r="4.2" fill="#00FFA3" fill-opacity="0.8"/><circle cx="342.1" cy="484.6" r="4.2" fill="#00FFA3" fill-opacity="0.8"/><circle cx="338.4" cy="562.0" r="4.2" fill="#00FFA3" fill-opacity="0.8"/><circle cx="732.8" cy="448.6" r="4.2" fill="#00FFA3" fill-opacity="0.8"/><circle cx="228.3" cy="562.0" r="4.2" fill="#00FFA3" fill-opacity="0.8"/><circle cx="394.4" cy="562.0" r="4.2" fill="#00FFA3" fill-opacity="0.8"/><circle cx="315.7" cy="562.0" r="4.2" fill="#00FFA3" fill-opacity="0.8"/><circle cx="907.3" cy="386.9" r="4.2" fill="#00FFA3" fill-opacity="0.8"/><circle cx="315.7" cy="562.0" r="4.2" fill="#00FFA3" fill-opacity="0.8"/><circle cx="590.4" cy="435.8" r="4.2" fill="#00FFA3" fill-opacity="0.8"/><circle cx="704.6" cy="464.3" r="4.2" fill="#00FFA3" fill-opacity="0.8"/><circle cx="729.2" cy="424.9" r="4.2" fill="#00FFA3" fill-opacity="0.8"/><circle cx="602.0" cy="448.6" r="4.2" fill="#00FFA3" fill-opacity="0.8"/><circle cx="478.8" cy="513.2" r="4.2" fill="#00FFA3" fill-opacity="0.8"/><circle cx="690.4" cy="448.6" r="4.2" fill="#00FFA3" fill-opacity="0.8"/><circle cx="117.2" cy="562.0" r="4.2" fill="#00FFA3" fill-opacity="0.8"/><circle cx="117.2" cy="562.0" r="4.2" fill="#00FFA3" fill-opacity="0.8"/><circle cx="433.4" cy="562.0" r="4.2" fill="#00FFA3" fill-opacity="0.8"/><circle cx="548.8" cy="513.2" r="4.2" fill="#00FFA3" fill-opacity="0.8"/><circle cx="483.2" cy="562.0" r="4.2" fill="#00FFA3" fill-opacity="0.8"/><circle cx="613.2" cy="464.3" r="4.2" fill="#00FFA3" fill-opacity="0.8"/><circle cx="168.4" cy="562.0" r="4.2" fill="#00FFA3" fill-opacity="0.8"/><circle cx="808.3" cy="415.5" r="4.2" fill="#00FFA3" fill-opacity="0.8"/><circle cx="610.4" cy="448.6" r="4.2" fill="#00FFA3" fill-opacity="0.8"/><circle cx="485.4" cy="513.2" r="4.2" fill="#00FFA3" fill-opacity="0.8"/><circle cx="547.1" cy="562.0" r="4.2" fill="#00FFA3" fill-opacity="0.8"/><circle cx="1106.1" cy="399.8" r="4.2" fill="#00FFA3" fill-opacity="0.8"/><circle cx="872.7" cy="448.6" r="4.2" fill="#00FFA3" fill-opacity="0.8"/><circle cx="1096.5" cy="295.4" r="4.2" fill="#00FFA3" fill-opacity="0.8"/><circle cx="568.8" cy="484.6" r="4.2" fill="#00FFA3" fill-opacity="0.8"/><circle cx="881.2" cy="407.2" r="4.2" fill="#00FFA3" fill-opacity="0.8"/><circle cx="299.4" cy="562.0" r="4.2" fill="#00FFA3" fill-opacity="0.8"/><circle cx="474.4" cy="562.0" r="4.2" fill="#00FFA3" fill-opacity="0.8"/><circle cx="878.6" cy="354.5" r="4.2" fill="#00FFA3" fill-opacity="0.8"/><circle cx="775.8" cy="358.4" r="4.2" fill="#00FFA3" fill-opacity="0.8"/><circle cx="1309.3" cy="259.7" r="4.2" fill="#00FFA3" fill-opacity="0.8"/><circle cx="630.4" cy="484.6" r="4.2" fill="#00FFA3" fill-opacity="0.8"/><circle cx="1108.7" cy="350.9" r="4.2" fill="#00FFA3" fill-opacity="0.8"/><circle cx="435.9" cy="562.0" r="4.2" fill="#00FFA3" fill-opacity="0.8"/><circle cx="545.4" cy="562.0" r="4.2" fill="#00FFA3" fill-opacity="0.8"/><circle cx="545.4" cy="562.0" r="4.2" fill="#00FFA3" fill-opacity="0.8"/><circle cx="435.9" cy="562.0" r="4.2" fill="#00FFA3" fill-opacity="0.8"/><circle cx="1035.3" cy="275.9" r="4.2" fill="#00FFA3" fill-opacity="0.8"/><circle cx="500.1" cy="513.2" r="4.2" fill="#00FFA3" fill-opacity="0.8"/><circle cx="406.1" cy="562.0" r="4.2" fill="#00FFA3" fill-opacity="0.8"/><circle cx="465.2" cy="562.0" r="4.2" fill="#00FFA3" fill-opacity="0.8"/><circle cx="356.1" cy="562.0" r="4.2" fill="#00FFA3" fill-opacity="0.8"/><circle cx="593.3" cy="513.2" r="4.2" fill="#00FFA3" fill-opacity="0.8"/><circle cx="778.1" cy="424.9" r="4.2" fill="#00FFA3" fill-opacity="0.8"/><circle cx="315.7" cy="513.2" r="4.2" fill="#00FFA3" fill-opacity="0.8"/><circle cx="187.8" cy="562.0" r="4.2" fill="#00FFA3" fill-opacity="0.8"/><circle cx="568.8" cy="513.2" r="4.2" fill="#00FFA3" fill-opacity="0.8"/><circle cx="644.2" cy="513.2" r="4.2" fill="#00FFA3" fill-opacity="0.8"/><circle cx="385.3" cy="562.0" r="4.2" fill="#00FFA3" fill-opacity="0.8"/><circle cx="417.3" cy="562.0" r="4.2" fill="#00FFA3" fill-opacity="0.8"/><circle cx="812.4" cy="435.8" r="4.2" fill="#00FFA3" fill-opacity="0.8"/><circle cx="485.4" cy="562.0" r="4.2" fill="#00FFA3" fill-opacity="0.8"/><circle cx="428.1" cy="562.0" r="4.2" fill="#00FFA3" fill-opacity="0.8"/><circle cx="433.4" cy="562.0" r="4.2" fill="#00FFA3" fill-opacity="0.8"/><circle cx="1399.8" cy="279.7" r="4.2" fill="#00FFA3" fill-opacity="0.8"/><circle cx="967.9" cy="435.8" r="4.2" fill="#00FFA3" fill-opacity="0.8"/><circle cx="875.4" cy="484.6" r="4.2" fill="#00FFA3" fill-opacity="0.8"/><circle cx="555.6" cy="562.0" r="4.2" fill="#00FFA3" fill-opacity="0.8"/><circle cx="557.3" cy="562.0" r="4.2" fill="#00FFA3" fill-opacity="0.8"/><circle cx="880.7" cy="464.3" r="4.2" fill="#00FFA3" fill-opacity="0.8"/><circle cx="926.3" cy="448.6" r="4.2" fill="#00FFA3" fill-opacity="0.8"/><circle cx="400.3" cy="562.0" r="4.2" fill="#00FFA3" fill-opacity="0.8"/><circle cx="787.8" cy="435.8" r="4.2" fill="#00FFA3" fill-opacity="0.8"/><circle cx="406.1" cy="562.0" r="4.2" fill="#00FFA3" fill-opacity="0.8"/><circle cx="1163.3" cy="272.4" r="4.2" fill="#00FFA3" fill-opacity="0.8"/><circle cx="713.4" cy="562.0" r="4.2" fill="#00FFA3" fill-opacity="0.8"/><circle cx="496.0" cy="513.2" r="4.2" fill="#00FFA3" fill-opacity="0.8"/><circle cx="802.1" cy="407.2" r="4.2" fill="#00FFA3" fill-opacity="0.8"/><circle cx="397.4" cy="562.0" r="4.2" fill="#00FFA3" fill-opacity="0.8"/><circle cx="855.9" cy="464.3" r="4.2" fill="#00FFA3" fill-opacity="0.8"/><circle cx="1069.8" cy="341.1" r="4.2" fill="#00FFA3" fill-opacity="0.8"/><circle cx="411.8" cy="562.0" r="4.2" fill="#00FFA3" fill-opacity="0.8"/><circle cx="491.8" cy="562.0" r="4.2" fill="#00FFA3" fill-opacity="0.8"/><circle cx="668.8" cy="513.2" r="4.2" fill="#00FFA3" fill-opacity="0.8"/><circle cx="1025.4" cy="335.2" r="4.2" fill="#00FFA3" fill-opacity="0.8"/><circle cx="619.9" cy="562.0" r="4.2" fill="#00FFA3" fill-opacity="0.8"/><circle cx="258.9" cy="562.0" r="4.2" fill="#00FFA3" fill-opacity="0.8"/><circle cx="331.1" cy="562.0" r="4.2" fill="#00FFA3" fill-opacity="0.8"/><circle cx="635.5" cy="513.2" r="4.2" fill="#00FFA3" fill-opacity="0.8"/><circle cx="815.0" cy="464.3" r="4.2" fill="#00FFA3" fill-opacity="0.8"/><circle cx="653.9" cy="424.9" r="4.2" fill="#00FFA3" fill-opacity="0.8"/><circle cx="161.6" cy="562.0" r="4.2" fill="#00FFA3" fill-opacity="0.8"/><circle cx="581.3" cy="513.2" r="4.2" fill="#00FFA3" fill-opacity="0.8"/><circle cx="709.5" cy="562.0" r="4.2" fill="#00FFA3" fill-opacity="0.8"/><circle cx="476.6" cy="513.2" r="4.2" fill="#00FFA3" fill-opacity="0.8"/><circle cx="359.5" cy="562.0" r="4.2" fill="#00FFA3" fill-opacity="0.8"/><circle cx="1004.5" cy="366.6" r="4.2" fill="#00FFA3" fill-opacity="0.8"/><circle cx="409.0" cy="562.0" r="4.2" fill="#00FFA3" fill-opacity="0.8"/><circle cx="319.6" cy="562.0" r="4.2" fill="#00FFA3" fill-opacity="0.8"/><circle cx="679.8" cy="464.3" r="4.2" fill="#00FFA3" fill-opacity="0.8"/><circle cx="933.9" cy="448.6" r="4.2" fill="#00FFA3" fill-opacity="0.8"/><circle cx="932.1" cy="464.3" r="4.2" fill="#00FFA3" fill-opacity="0.8"/><circle cx="1418.6" cy="193.4" r="4.2" fill="#00FFA3" fill-opacity="0.8"/><circle cx="1111.2" cy="381.3" r="4.2" fill="#00FFA3" fill-opacity="0.8"/><circle cx="512.1" cy="562.0" r="4.2" fill="#00FFA3" fill-opacity="0.8"/><circle cx="510.1" cy="484.6" r="4.2" fill="#00FFA3" fill-opacity="0.8"/><circle cx="719.0" cy="448.6" r="4.2" fill="#00FFA3" fill-opacity="0.8"/><circle cx="469.8" cy="513.2" r="4.2" fill="#00FFA3" fill-opacity="0.8"/><circle cx="521.8" cy="513.2" r="4.2" fill="#00FFA3" fill-opacity="0.8"/><circle cx="282.1" cy="562.0" r="4.2" fill="#00FFA3" fill-opacity="0.8"/><circle cx="880.7" cy="415.5" r="4.2" fill="#00FFA3" fill-opacity="0.8"/><circle cx="435.9" cy="562.0" r="4.2" fill="#00FFA3" fill-opacity="0.8"/><circle cx="811.0" cy="424.9" r="4.2" fill="#00FFA3" fill-opacity="0.8"/><circle cx="888.5" cy="424.9" r="4.2" fill="#00FFA3" fill-opacity="0.8"/><circle cx="774.2" cy="484.6" r="4.2" fill="#00FFA3" fill-opacity="0.8"/><circle cx="1045.1" cy="358.4" r="4.2" fill="#00FFA3" fill-opacity="0.8"/><circle cx="521.8" cy="562.0" r="4.2" fill="#00FFA3" fill-opacity="0.8"/><circle cx="893.1" cy="424.9" r="4.2" fill="#00FFA3" fill-opacity="0.8"/><circle cx="827.4" cy="415.5" r="4.2" fill="#00FFA3" fill-opacity="0.8"/><circle cx="1250.8" cy="249.0" r="4.2" fill="#00FFA3" fill-opacity="0.8"/><circle cx="307.7" cy="562.0" r="4.2" fill="#00FFA3" fill-opacity="0.8"/><circle cx="966.0" cy="435.8" r="4.2" fill="#00FFA3" fill-opacity="0.8"/><circle cx="438.5" cy="562.0" r="4.2" fill="#00FFA3" fill-opacity="0.8"/><circle cx="975.5" cy="393.0" r="4.2" fill="#00FFA3" fill-opacity="0.8"/><circle cx="1357.1" cy="289.2" r="4.2" fill="#00FFA3" fill-opacity="0.8"/><circle cx="614.5" cy="562.0" r="4.2" fill="#00FFA3" fill-opacity="0.8"/><circle cx="582.8" cy="513.2" r="4.2" fill="#00FFA3" fill-opacity="0.8"/><circle cx="531.1" cy="513.2" r="4.2" fill="#00FFA3" fill-opacity="0.8"/><circle cx="627.8" cy="562.0" r="4.2" fill="#00FFA3" fill-opacity="0.8"/><circle cx="562.3" cy="562.0" r="4.2" fill="#00FFA3" fill-opacity="0.8"/><circle cx="645.4" cy="464.3" r="4.2" fill="#00FFA3" fill-opacity="0.8"/><circle cx="568.8" cy="562.0" r="4.2" fill="#00FFA3" fill-opacity="0.8"/><circle cx="837.5" cy="424.9" r="4.2" fill="#00FFA3" fill-opacity="0.8"/><circle cx="877.5" cy="376.1" r="4.2" fill="#00FFA3" fill-opacity="0.8"/><circle cx="315.7" cy="562.0" r="4.2" fill="#00FFA3" fill-opacity="0.8"/><circle cx="607.6" cy="562.0" r="4.2" fill="#00FFA3" fill-opacity="0.8"/><circle cx="724.6" cy="464.3" r="4.2" fill="#00FFA3" fill-opacity="0.8"/><circle cx="833.7" cy="415.5" r="4.2" fill="#00FFA3" fill-opacity="0.8"/><circle cx="1209.9" cy="381.3" r="4.2" fill="#00FFA3" fill-opacity="0.8"/><circle cx="448.5" cy="562.0" r="4.2" fill="#00FFA3" fill-opacity="0.8"/><circle cx="686.2" cy="562.0" r="4.2" fill="#00FFA3" fill-opacity="0.8"/><circle cx="698.6" cy="484.6" r="4.2" fill="#00FFA3" fill-opacity="0.8"/><circle cx="799.3" cy="513.2" r="4.2" fill="#00FFA3" fill-opacity="0.8"/><circle cx="874.8" cy="484.6" r="4.2" fill="#00FFA3" fill-opacity="0.8"/><circle cx="1193.8" cy="300.3" r="6" fill="none" stroke="#FF2D55" stroke-width="2.2"/><polyline points="117.2,513.2 117.2,513.2 125.1,513.2 161.6,513.2 168.4,513.2 187.8,513.2 193.9,513.2 205.9,513.2 228.3,513.2 258.9,513.2 258.9,513.2 263.7,513.2 263.7,513.2 263.7,513.2 273.1,513.2 277.7,513.2 282.1,513.2 299.4,513.2 299.4,513.2 299.4,513.2 303.6,513.2 307.7,513.2 311.7,513.2 311.7,513.2 315.7,513.2 315.7,513.2 315.7,513.2 315.7,513.2 315.7,513.2 319.6,513.2 319.6,513.2 319.6,513.2 331.1,513.2 334.8,513.2 338.4,513.2 338.4,513.2 342.1,484.6 342.1,513.2 342.1,484.6 345.6,484.6 349.2,484.6 349.2,484.6 356.1,484.6 356.1,484.6 359.5,484.6 372.7,484.6 379.1,484.6 382.2,484.6 385.3,484.6 385.3,484.6 394.4,484.6 397.4,484.6 397.4,484.6 400.3,484.6 400.3,484.6 403.2,484.6 406.1,484.6 406.1,484.6 406.1,484.6 406.1,484.6 409.0,484.6 411.8,484.6 411.8,484.6 417.3,484.6 417.3,484.6 420.1,484.6 425.5,484.6 428.1,484.6 430.8,484.6 433.4,484.6 433.4,484.6 433.4,484.6 435.9,464.3 435.9,464.3 435.9,464.3 435.9,464.3 438.5,464.3 441.0,464.3 448.5,464.3 451.0,464.3 451.0,464.3 460.6,464.3 460.6,464.3 462.9,464.3 465.2,464.3 469.8,464.3 472.1,464.3 474.4,464.3 474.4,464.3 476.6,464.3 476.6,464.3 476.6,464.3 478.8,464.3 481.0,464.3 481.0,464.3 483.2,464.3 485.4,464.3 485.4,464.3 491.8,464.3 496.0,464.3 500.1,464.3 502.1,464.3 504.2,448.6 504.2,448.6 504.2,464.3 504.2,464.3 506.2,448.6 510.1,448.6 510.1,448.6 512.1,448.6 516.0,448.6 517.9,448.6 521.8,448.6 521.8,448.6 521.8,448.6 525.5,448.6 531.1,448.6 532.9,448.6 536.5,448.6 536.5,448.6 545.4,448.6 545.4,448.6 547.1,448.6 548.8,448.6 550.6,448.6 555.6,435.8 555.6,435.8 555.6,448.6 557.3,435.8 562.3,435.8 565.5,435.8 565.5,435.8 568.8,435.8 568.8,435.8 568.8,435.8 570.4,435.8 579.8,435.8 581.3,435.8 582.8,435.8 582.8,435.8 582.8,435.8 584.4,435.8 588.9,435.8 590.4,435.8 593.3,424.9 593.3,424.9 597.7,424.9 602.0,424.9 604.8,424.9 607.6,424.9 610.4,424.9 613.2,424.9 613.2,424.9 614.5,424.9 619.9,424.9 619.9,424.9 625.2,424.9 627.8,424.9 630.4,424.9 631.7,424.9 635.5,424.9 640.5,424.9 644.2,424.9 645.4,424.9 653.9,424.9 657.4,424.9 659.7,424.9 665.4,424.9 666.6,415.5 668.8,415.5 674.4,415.5 676.6,415.5 677.7,415.5 679.8,415.5 679.8,415.5 686.2,415.5 690.4,415.5 695.6,415.5 698.6,415.5 701.6,415.5 701.6,415.5 704.6,407.2 705.6,407.2 706.6,407.2 709.5,407.2 713.4,407.2 719.0,407.2 724.6,407.2 729.2,407.2 732.8,407.2 750.9,399.8 761.6,399.8 766.4,399.8 768.8,399.8 773.5,399.8 774.2,399.8 775.8,399.8 778.1,399.8 787.8,399.8 792.1,399.8 793.6,393.0 799.3,393.0 800.7,386.9 802.1,386.9 802.8,381.3 807.6,381.3 808.3,381.3 811.0,381.3 812.4,381.3 815.0,381.3 827.4,381.3 833.7,381.3 833.7,381.3 837.5,381.3 842.9,376.1 845.9,376.1 855.9,366.6 855.9,371.2 871.6,371.2 872.7,366.6 874.8,366.6 875.4,366.6 877.5,358.4 878.6,358.4 880.7,350.9 880.7,358.4 881.2,350.9 888.5,344.2 893.1,344.2 904.9,344.2 905.9,341.1 907.3,341.1 910.2,335.2 915.4,335.2 926.3,327.2 932.1,327.2 933.9,324.7 958.5,324.7 965.2,324.7 966.0,324.7 967.9,297.0 971.0,297.0 975.5,295.4 976.7,295.4 986.6,289.2 1004.5,289.2 1025.4,289.2 1035.3,289.2 1045.1,289.2 1056.3,289.2 1069.8,283.6 1096.5,283.6 1098.2,279.7 1101.6,279.7 1106.1,272.4 1108.7,272.4 1111.2,269.0 1157.5,269.0 1163.3,269.0 1168.1,269.0 1193.8,259.7 1201.1,269.0 1209.9,259.7 1247.8,259.7 1250.8,259.7 1309.3,279.7 1351.7,279.7 1357.1,279.7 1399.8,193.4 1418.6,193.4 1534.8,89.7" fill="none" stroke="#00FFA3" stroke-width="3" stroke-linejoin="round"/><rect x="1109.4" y="82.7" width="418.4" height="18" fill="#0B0B12" opacity="0.85"/><text x="1524.8" y="95.7" font-size="13" fill="#00FFA3" text-anchor="end">2007-11 record: -54.8%, 815 sessions to a new record</text><rect x="993.2" y="186.4" width="418.4" height="18" fill="#0B0B12" opacity="0.85"/><text x="1408.6" y="199.4" font-size="13" fill="#00FFA3" text-anchor="end">2021-12 record: -36.2%, 187 sessions to a new record</text><rect x="982.3" y="272.7" width="410.4" height="18" fill="#0B0B12" opacity="0.85"/><text x="1389.8" y="285.7" font-size="13" fill="#00FFA3" text-anchor="end">2020-02 record: -33.8%, 55 sessions to a new record</text></svg>