<svg xmlns="http://www.w3.org/2000/svg" viewBox="0 0 1600 620" width="1600" height="620" font-family="ui-monospace,SFMono-Regular,Menlo,monospace"><rect width="1600" height="620" fill="#0B0B12"/><text x="74" y="26" font-size="18" fill="#C8C8D2" font-weight="600">QQQ (Nasdaq 100 fund): every decline from a record high — how deep, and how long until a NEW RECORD</text><text x="74" y="48" font-size="14" fill="#8E8EA0">214 declines 2011–2026, record to lowest low before the next record · green = new record · red ring = not yet · line = middle wait, at least this deep</text><line x1="74" x2="1574" y1="562.0" y2="562.0" stroke="#1C1C26"/><text x="66" y="567.0" font-size="14" fill="#8E8EA0" text-anchor="end">1</text><line x1="74" x2="1574" y1="505.0" y2="505.0" stroke="#1C1C26"/><text x="66" y="510.0" font-size="14" fill="#8E8EA0" text-anchor="end">2</text><line x1="74" x2="1574" y1="471.6" y2="471.6" stroke="#1C1C26"/><text x="66" y="476.6" font-size="14" fill="#8E8EA0" text-anchor="end">3</text><line x1="74" x2="1574" y1="429.6" y2="429.6" stroke="#1C1C26"/><text x="66" y="434.6" font-size="14" fill="#8E8EA0" text-anchor="end">5</text><line x1="74" x2="1574" y1="372.6" y2="372.6" stroke="#1C1C26"/><text x="66" y="377.6" font-size="14" fill="#8E8EA0" text-anchor="end">10</text><line x1="74" x2="1574" y1="315.6" y2="315.6" stroke="#1C1C26"/><text x="66" y="320.6" font-size="14" fill="#8E8EA0" text-anchor="end">20</text><line x1="74" x2="1574" y1="282.2" y2="282.2" stroke="#1C1C26"/><text x="66" y="287.2" font-size="14" fill="#8E8EA0" text-anchor="end">30</text><line x1="74" x2="1574" y1="240.2" y2="240.2" stroke="#1C1C26"/><text x="66" y="245.2" font-size="14" fill="#8E8EA0" text-anchor="end">50</text><line x1="74" x2="1574" y1="183.2" y2="183.2" stroke="#1C1C26"/><text x="66" y="188.2" font-size="14" fill="#8E8EA0" text-anchor="end">100</text><line x1="74" x2="1574" y1="126.2" y2="126.2" stroke="#1C1C26"/><text x="66" y="131.2" font-size="14" fill="#8E8EA0" text-anchor="end">200</text><line x1="74" x2="1574" y1="92.8" y2="92.8" stroke="#1C1C26"/><text x="66" y="97.8" font-size="14" fill="#8E8EA0" text-anchor="end">300</text><line y1="66" y2="562" x1="228.0" x2="228.0" stroke="#1C1C26"/><text y="582" x="228.0" font-size="14" fill="#8E8EA0" text-anchor="middle">0.5%</text><line y1="66" y2="562" x1="437.0" x2="437.0" stroke="#1C1C26"/><text y="582" x="437.0" font-size="14" fill="#8E8EA0" text-anchor="middle">1%</text><line y1="66" y2="562" x1="645.9" x2="645.9" stroke="#1C1C26"/><text y="582" x="645.9" font-size="14" fill="#8E8EA0" text-anchor="middle">2%</text><line y1="66" y2="562" x1="768.1" x2="768.1" stroke="#1C1C26"/><text y="582" x="768.1" font-size="14" fill="#8E8EA0" text-anchor="middle">3%</text><line y1="66" y2="562" x1="922.1" x2="922.1" stroke="#1C1C26"/><text y="582" x="922.1" font-size="14" fill="#8E8EA0" text-anchor="middle">5%</text><line y1="66" y2="562" x1="1131.1" x2="1131.1" stroke="#1C1C26"/><text y="582" x="1131.1" font-size="14" fill="#8E8EA0" text-anchor="middle">10%</text><line y1="66" y2="562" x1="1340.0" x2="1340.0" stroke="#1C1C26"/><text y="582" x="1340.0" font-size="14" fill="#8E8EA0" text-anchor="middle">20%</text><line y1="66" y2="562" x1="1462.3" x2="1462.3" stroke="#1C1C26"/><text y="582" x="1462.3" font-size="14" fill="#8E8EA0" text-anchor="middle">30%</text><rect x="74" y="66" width="1500" height="496" fill="none" stroke="#34343F"/><text x="824" y="608" font-size="14" fill="#B4B4C6" text-anchor="middle">decline, record to low (%, log scale; under 0.3% drawn at 0.3%)</text><text transform="translate(18 314) rotate(-90)" font-size="14" fill="#B4B4C6" text-anchor="middle">sessions from the low to a new record (log)</text><line x1="612.5" x2="612.5" y1="66" y2="562" stroke="#FF2D55" stroke-opacity="0.45" stroke-dasharray="3 5"/><rect x="614.5" y="538.0" width="172.5" height="18" fill="#0B0B12" opacity="0.85"/><text x="617.5" y="551.0" font-size="13" fill="#FF2D55" text-anchor="start">deeper than 50%: 1.8%</text><line x1="836.2" x2="836.2" y1="66" y2="562" stroke="#FF2D55" stroke-opacity="0.45" stroke-dasharray="3 5"/><rect x="838.2" y="518.0" width="172.5" height="18" fill="#0B0B12" opacity="0.85"/><text x="841.2" y="531.0" font-size="13" fill="#FF2D55" text-anchor="start">deeper than 75%: 3.8%</text><line x1="1073.8" x2="1073.8" y1="66" y2="562" stroke="#FF2D55" stroke-opacity="0.45" stroke-dasharray="3 5"/><rect x="1075.8" y="538.0" width="172.5" height="18" fill="#0B0B12" opacity="0.85"/><text x="1078.8" y="551.0" font-size="13" fill="#FF2D55" text-anchor="start">deeper than 90%: 8.3%</text><line x1="1417.7" x2="1417.7" y1="66" y2="562" stroke="#FF2D55" stroke-opacity="0.45" stroke-dasharray="3 5"/><rect x="1235.3" y="518.0" width="180.5" height="18" fill="#0B0B12" opacity="0.85"/><text x="1412.7" y="531.0" font-size="13" fill="#FF2D55" text-anchor="end">deeper than 99%: 25.9%</text><circle cx="602.2" cy="562.0" r="4.2" fill="#00FFA3" fill-opacity="0.8"/><circle cx="887.7" cy="505.0" r="4.2" fill="#00FFA3" fill-opacity="0.8"/><circle cx="325.1" cy="505.0" r="4.2" fill="#00FFA3" fill-opacity="0.8"/><circle cx="1120.3" cy="344.9" r="4.2" fill="#00FFA3" fill-opacity="0.8"/><circle cx="868.9" cy="414.6" r="4.2" fill="#00FFA3" fill-opacity="0.8"/><circle cx="1283.0" cy="173.9" r="4.2" fill="#00FFA3" fill-opacity="0.8"/><circle cx="320.7" cy="562.0" r="4.2" fill="#00FFA3" fill-opacity="0.8"/><circle cx="522.9" cy="562.0" r="4.2" fill="#00FFA3" fill-opacity="0.8"/><circle cx="627.3" cy="562.0" r="4.2" fill="#00FFA3" fill-opacity="0.8"/><circle cx="346.2" cy="562.0" r="4.2" fill="#00FFA3" fill-opacity="0.8"/><circle cx="481.7" cy="562.0" r="4.2" fill="#00FFA3" fill-opacity="0.8"/><circle cx="635.2" cy="505.0" r="4.2" fill="#00FFA3" fill-opacity="0.8"/><circle cx="504.2" cy="562.0" r="4.2" fill="#00FFA3" fill-opacity="0.8"/><circle cx="751.6" cy="471.6" r="4.2" fill="#00FFA3" fill-opacity="0.8"/><circle cx="302.4" cy="562.0" r="4.2" fill="#00FFA3" fill-opacity="0.8"/><circle cx="325.1" cy="562.0" r="4.2" fill="#00FFA3" fill-opacity="0.8"/><circle cx="534.0" cy="562.0" r="4.2" fill="#00FFA3" fill-opacity="0.8"/><circle cx="632.0" cy="471.6" r="4.2" fill="#00FFA3" fill-opacity="0.8"/><circle cx="1196.2" cy="232.4" r="4.2" fill="#00FFA3" fill-opacity="0.8"/><circle cx="663.5" cy="505.0" r="4.2" fill="#00FFA3" fill-opacity="0.8"/><circle cx="635.2" cy="562.0" r="4.2" fill="#00FFA3" fill-opacity="0.8"/><circle cx="316.2" cy="505.0" r="4.2" fill="#00FFA3" fill-opacity="0.8"/><circle cx="1213.2" cy="174.6" r="4.2" fill="#00FFA3" fill-opacity="0.8"/><circle cx="302.4" cy="562.0" r="4.2" fill="#00FFA3" fill-opacity="0.8"/><circle cx="342.1" cy="562.0" r="4.2" fill="#00FFA3" fill-opacity="0.8"/><circle cx="1053.9" cy="357.6" r="4.2" fill="#00FFA3" fill-opacity="0.8"/><circle cx="650.4" cy="429.6" r="4.2" fill="#00FFA3" fill-opacity="0.8"/><circle cx="572.9" cy="448.0" r="4.2" fill="#00FFA3" fill-opacity="0.8"/><circle cx="743.0" cy="471.6" r="4.2" fill="#00FFA3" fill-opacity="0.8"/><circle cx="768.1" cy="401.9" r="4.2" fill="#00FFA3" fill-opacity="0.8"/><circle cx="415.1" cy="471.6" r="4.2" fill="#00FFA3" fill-opacity="0.8"/><circle cx="418.3" cy="562.0" r="4.2" fill="#00FFA3" fill-opacity="0.8"/><circle cx="662.0" cy="562.0" r="4.2" fill="#00FFA3" fill-opacity="0.8"/><circle cx="875.3" cy="471.6" r="4.2" fill="#00FFA3" fill-opacity="0.8"/><circle cx="584.2" cy="505.0" r="4.2" fill="#00FFA3" fill-opacity="0.8"/><circle cx="398.4" cy="505.0" r="4.2" fill="#00FFA3" fill-opacity="0.8"/><circle cx="716.8" cy="448.0" r="4.2" fill="#00FFA3" fill-opacity="0.8"/><circle cx="639.8" cy="471.6" r="4.2" fill="#00FFA3" fill-opacity="0.8"/><circle cx="531.9" cy="505.0" r="4.2" fill="#00FFA3" fill-opacity="0.8"/><circle cx="754.8" cy="505.0" r="4.2" fill="#00FFA3" fill-opacity="0.8"/><circle cx="391.5" cy="562.0" r="4.2" fill="#00FFA3" fill-opacity="0.8"/><circle cx="725.0" cy="505.0" r="4.2" fill="#00FFA3" fill-opacity="0.8"/><circle cx="430.9" cy="562.0" r="4.2" fill="#00FFA3" fill-opacity="0.8"/><circle cx="972.5" cy="429.6" r="4.2" fill="#00FFA3" fill-opacity="0.8"/><circle cx="496.9" cy="562.0" r="4.2" fill="#00FFA3" fill-opacity="0.8"/><circle cx="398.4" cy="562.0" r="4.2" fill="#00FFA3" fill-opacity="0.8"/><circle cx="496.9" cy="562.0" r="4.2" fill="#00FFA3" fill-opacity="0.8"/><circle cx="688.0" cy="562.0" r="4.2" fill="#00FFA3" fill-opacity="0.8"/><circle cx="1093.9" cy="279.5" r="4.2" fill="#00FFA3" fill-opacity="0.8"/><circle cx="401.8" cy="505.0" r="4.2" fill="#00FFA3" fill-opacity="0.8"/><circle cx="196.2" cy="562.0" r="4.2" fill="#00FFA3" fill-opacity="0.8"/><circle cx="536.2" cy="448.0" r="4.2" fill="#00FFA3" fill-opacity="0.8"/><circle cx="333.7" cy="562.0" r="4.2" fill="#00FFA3" fill-opacity="0.8"/><circle cx="481.7" cy="505.0" r="4.2" fill="#00FFA3" fill-opacity="0.8"/><circle cx="670.5" cy="505.0" r="4.2" fill="#00FFA3" fill-opacity="0.8"/><circle cx="654.8" cy="471.6" r="4.2" fill="#00FFA3" fill-opacity="0.8"/><circle cx="833.0" cy="414.6" r="4.2" fill="#00FFA3" fill-opacity="0.8"/><circle cx="283.0" cy="562.0" r="4.2" fill="#00FFA3" fill-opacity="0.8"/><circle cx="518.4" cy="505.0" r="4.2" fill="#00FFA3" fill-opacity="0.8"/><circle cx="700.9" cy="471.6" r="4.2" fill="#00FFA3" fill-opacity="0.8"/><circle cx="1139.1" cy="357.6" r="4.2" fill="#00FFA3" fill-opacity="0.8"/><circle cx="509.0" cy="562.0" r="4.2" fill="#00FFA3" fill-opacity="0.8"/><circle cx="462.9" cy="505.0" r="4.2" fill="#00FFA3" fill-opacity="0.8"/><circle cx="380.8" cy="562.0" r="4.2" fill="#00FFA3" fill-opacity="0.8"/><circle cx="462.9" cy="562.0" r="4.2" fill="#00FFA3" fill-opacity="0.8"/><circle cx="1000.3" cy="319.8" r="4.2" fill="#00FFA3" fill-opacity="0.8"/><circle cx="307.1" cy="562.0" r="4.2" fill="#00FFA3" fill-opacity="0.8"/><circle cx="905.4" cy="319.8" r="4.2" fill="#00FFA3" fill-opacity="0.8"/><circle cx="909.2" cy="401.9" r="4.2" fill="#00FFA3" fill-opacity="0.8"/><circle cx="1418.2" cy="241.9" r="4.2" fill="#00FFA3" fill-opacity="0.8"/><circle cx="933.4" cy="364.8" r="4.2" fill="#00FFA3" fill-opacity="0.8"/><circle cx="1309.3" cy="167.5" r="4.2" fill="#00FFA3" fill-opacity="0.8"/><circle cx="879.5" cy="391.0" r="4.2" fill="#00FFA3" fill-opacity="0.8"/><circle cx="603.9" cy="381.3" r="4.2" fill="#00FFA3" fill-opacity="0.8"/><circle cx="764.1" cy="401.9" r="4.2" fill="#00FFA3" fill-opacity="0.8"/><circle cx="933.4" cy="294.0" r="4.2" fill="#00FFA3" fill-opacity="0.8"/><circle cx="546.9" cy="414.6" r="4.2" fill="#00FFA3" fill-opacity="0.8"/><circle cx="745.2" cy="448.0" r="4.2" fill="#00FFA3" fill-opacity="0.8"/><circle cx="468.4" cy="562.0" r="4.2" fill="#00FFA3" fill-opacity="0.8"/><circle cx="354.2" cy="505.0" r="4.2" fill="#00FFA3" fill-opacity="0.8"/><circle cx="442.9" cy="562.0" r="4.2" fill="#00FFA3" fill-opacity="0.8"/><circle cx="586.1" cy="429.6" r="4.2" fill="#00FFA3" fill-opacity="0.8"/><circle cx="439.9" cy="471.6" r="4.2" fill="#00FFA3" fill-opacity="0.8"/><circle cx="484.3" cy="448.0" r="4.2" fill="#00FFA3" fill-opacity="0.8"/><circle cx="333.7" cy="562.0" r="4.2" fill="#00FFA3" fill-opacity="0.8"/><circle cx="686.7" cy="471.6" r="4.2" fill="#00FFA3" fill-opacity="0.8"/><circle cx="333.7" cy="562.0" r="4.2" fill="#00FFA3" fill-opacity="0.8"/><circle cx="690.6" cy="414.6" r="4.2" fill="#00FFA3" fill-opacity="0.8"/><circle cx="320.7" cy="562.0" r="4.2" fill="#00FFA3" fill-opacity="0.8"/><circle cx="405.2" cy="562.0" r="4.2" fill="#00FFA3" fill-opacity="0.8"/><circle cx="736.4" cy="448.0" r="4.2" fill="#00FFA3" fill-opacity="0.8"/><circle cx="137.2" cy="562.0" r="4.2" fill="#00FFA3" fill-opacity="0.8"/><circle cx="365.9" cy="562.0" r="4.2" fill="#00FFA3" fill-opacity="0.8"/><circle cx="957.9" cy="381.3" r="4.2" fill="#00FFA3" fill-opacity="0.8"/><circle cx="350.2" cy="562.0" r="4.2" fill="#00FFA3" fill-opacity="0.8"/><circle cx="277.9" cy="562.0" r="4.2" fill="#00FFA3" fill-opacity="0.8"/><circle cx="851.8" cy="391.0" r="4.2" fill="#00FFA3" fill-opacity="0.8"/><circle cx="651.9" cy="391.0" r="4.2" fill="#00FFA3" fill-opacity="0.8"/><circle cx="774.1" cy="391.0" r="4.2" fill="#00FFA3" fill-opacity="0.8"/><circle cx="251.2" cy="562.0" r="4.2" fill="#00FFA3" fill-opacity="0.8"/><circle cx="635.2" cy="505.0" r="4.2" fill="#00FFA3" fill-opacity="0.8"/><circle cx="527.4" cy="562.0" r="4.2" fill="#00FFA3" fill-opacity="0.8"/><circle cx="612.5" cy="562.0" r="4.2" fill="#00FFA3" fill-opacity="0.8"/><circle cx="380.8" cy="562.0" r="4.2" fill="#00FFA3" fill-opacity="0.8"/><circle cx="763.1" cy="401.9" r="4.2" fill="#00FFA3" fill-opacity="0.8"/><circle cx="635.2" cy="505.0" r="4.2" fill="#00FFA3" fill-opacity="0.8"/><circle cx="486.8" cy="562.0" r="4.2" fill="#00FFA3" fill-opacity="0.8"/><circle cx="549.0" cy="505.0" r="4.2" fill="#00FFA3" fill-opacity="0.8"/><circle cx="544.8" cy="562.0" r="4.2" fill="#00FFA3" fill-opacity="0.8"/><circle cx="1190.5" cy="319.8" r="4.2" fill="#00FFA3" fill-opacity="0.8"/><circle cx="1190.3" cy="247.1" r="4.2" fill="#00FFA3" fill-opacity="0.8"/><circle cx="571.0" cy="505.0" r="4.2" fill="#00FFA3" fill-opacity="0.8"/><circle cx="694.5" cy="562.0" r="4.2" fill="#00FFA3" fill-opacity="0.8"/><circle cx="919.1" cy="381.3" r="4.2" fill="#00FFA3" fill-opacity="0.8"/><circle cx="580.5" cy="562.0" r="4.2" fill="#00FFA3" fill-opacity="0.8"/><circle cx="905.4" cy="315.6" r="4.2" fill="#00FFA3" fill-opacity="0.8"/><circle cx="837.8" cy="333.9" r="4.2" fill="#00FFA3" fill-opacity="0.8"/><circle cx="1388.7" cy="203.6" r="4.2" fill="#00FFA3" fill-opacity="0.8"/><circle cx="395.0" cy="562.0" r="4.2" fill="#00FFA3" fill-opacity="0.8"/><circle cx="534.0" cy="562.0" r="4.2" fill="#00FFA3" fill-opacity="0.8"/><circle cx="1174.0" cy="307.8" r="4.2" fill="#00FFA3" fill-opacity="0.8"/><circle cx="551.0" cy="562.0" r="4.2" fill="#00FFA3" fill-opacity="0.8"/><circle cx="614.1" cy="448.0" r="4.2" fill="#00FFA3" fill-opacity="0.8"/><circle cx="476.4" cy="562.0" r="4.2" fill="#00FFA3" fill-opacity="0.8"/><circle cx="1077.1" cy="228.0" r="4.2" fill="#00FFA3" fill-opacity="0.8"/><circle cx="511.4" cy="505.0" r="4.2" fill="#00FFA3" fill-opacity="0.8"/><circle cx="398.4" cy="562.0" r="4.2" fill="#00FFA3" fill-opacity="0.8"/><circle cx="460.2" cy="505.0" r="4.2" fill="#00FFA3" fill-opacity="0.8"/><circle cx="430.9" cy="562.0" r="4.2" fill="#00FFA3" fill-opacity="0.8"/><circle cx="574.8" cy="471.6" r="4.2" fill="#00FFA3" fill-opacity="0.8"/><circle cx="974.6" cy="401.9" r="4.2" fill="#00FFA3" fill-opacity="0.8"/><circle cx="234.0" cy="562.0" r="4.2" fill="#00FFA3" fill-opacity="0.8"/><circle cx="574.8" cy="505.0" r="4.2" fill="#00FFA3" fill-opacity="0.8"/><circle cx="615.8" cy="505.0" r="4.2" fill="#00FFA3" fill-opacity="0.8"/><circle cx="369.7" cy="562.0" r="4.2" fill="#00FFA3" fill-opacity="0.8"/><circle cx="462.9" cy="562.0" r="4.2" fill="#00FFA3" fill-opacity="0.8"/><circle cx="843.3" cy="414.6" r="4.2" fill="#00FFA3" fill-opacity="0.8"/><circle cx="433.9" cy="562.0" r="4.2" fill="#00FFA3" fill-opacity="0.8"/><circle cx="277.9" cy="562.0" r="4.2" fill="#00FFA3" fill-opacity="0.8"/><circle cx="1467.8" cy="238.6" r="4.2" fill="#00FFA3" fill-opacity="0.8"/><circle cx="1005.8" cy="414.6" r="4.2" fill="#00FFA3" fill-opacity="0.8"/><circle cx="950.3" cy="505.0" r="4.2" fill="#00FFA3" fill-opacity="0.8"/><circle cx="593.3" cy="562.0" r="4.2" fill="#00FFA3" fill-opacity="0.8"/><circle cx="1017.0" cy="414.6" r="4.2" fill="#00FFA3" fill-opacity="0.8"/><circle cx="836.2" cy="448.0" r="4.2" fill="#00FFA3" fill-opacity="0.8"/><circle cx="433.9" cy="562.0" r="4.2" fill="#00FFA3" fill-opacity="0.8"/><circle cx="1238.9" cy="240.2" r="4.2" fill="#00FFA3" fill-opacity="0.8"/><circle cx="572.9" cy="562.0" r="4.2" fill="#00FFA3" fill-opacity="0.8"/><circle cx="346.2" cy="562.0" r="4.2" fill="#00FFA3" fill-opacity="0.8"/><circle cx="806.8" cy="448.0" r="4.2" fill="#00FFA3" fill-opacity="0.8"/><circle cx="735.3" cy="448.0" r="4.2" fill="#00FFA3" fill-opacity="0.8"/><circle cx="415.1" cy="562.0" r="4.2" fill="#00FFA3" fill-opacity="0.8"/><circle cx="763.1" cy="562.0" r="4.2" fill="#00FFA3" fill-opacity="0.8"/><circle cx="743.0" cy="505.0" r="4.2" fill="#00FFA3" fill-opacity="0.8"/><circle cx="346.2" cy="562.0" r="4.2" fill="#00FFA3" fill-opacity="0.8"/><circle cx="940.8" cy="448.0" r="4.2" fill="#00FFA3" fill-opacity="0.8"/><circle cx="437.0" cy="562.0" r="4.2" fill="#00FFA3" fill-opacity="0.8"/><circle cx="1187.3" cy="294.0" r="4.2" fill="#00FFA3" fill-opacity="0.8"/><circle cx="576.7" cy="562.0" r="4.2" fill="#00FFA3" fill-opacity="0.8"/><circle cx="702.1" cy="414.6" r="4.2" fill="#00FFA3" fill-opacity="0.8"/><circle cx="1057.0" cy="307.8" r="4.2" fill="#00FFA3" fill-opacity="0.8"/><circle cx="653.4" cy="562.0" r="4.2" fill="#00FFA3" fill-opacity="0.8"/><circle cx="614.1" cy="562.0" r="4.2" fill="#00FFA3" fill-opacity="0.8"/><circle cx="350.2" cy="562.0" r="4.2" fill="#00FFA3" fill-opacity="0.8"/><circle cx="337.9" cy="562.0" r="4.2" fill="#00FFA3" fill-opacity="0.8"/><circle cx="688.0" cy="505.0" r="4.2" fill="#00FFA3" fill-opacity="0.8"/><circle cx="829.7" cy="448.0" r="4.2" fill="#00FFA3" fill-opacity="0.8"/><circle cx="697.1" cy="401.9" r="4.2" fill="#00FFA3" fill-opacity="0.8"/><circle cx="735.3" cy="505.0" r="4.2" fill="#00FFA3" fill-opacity="0.8"/><circle cx="408.5" cy="562.0" r="4.2" fill="#00FFA3" fill-opacity="0.8"/><circle cx="297.7" cy="562.0" r="4.2" fill="#00FFA3" fill-opacity="0.8"/><circle cx="415.1" cy="505.0" r="4.2" fill="#00FFA3" fill-opacity="0.8"/><circle cx="1081.4" cy="329.0" r="4.2" fill="#00FFA3" fill-opacity="0.8"/><circle cx="802.3" cy="414.6" r="4.2" fill="#00FFA3" fill-opacity="0.8"/><circle cx="1531.9" cy="93.7" r="4.2" fill="#00FFA3" fill-opacity="0.8"/><circle cx="551.0" cy="505.0" r="4.2" fill="#00FFA3" fill-opacity="0.8"/><circle cx="873.8" cy="391.0" r="4.2" fill="#00FFA3" fill-opacity="0.8"/><circle cx="430.9" cy="562.0" r="4.2" fill="#00FFA3" fill-opacity="0.8"/><circle cx="772.1" cy="505.0" r="4.2" fill="#00FFA3" fill-opacity="0.8"/><circle cx="496.9" cy="505.0" r="4.2" fill="#00FFA3" fill-opacity="0.8"/><circle cx="854.1" cy="505.0" r="4.2" fill="#00FFA3" fill-opacity="0.8"/><circle cx="544.8" cy="505.0" r="4.2" fill="#00FFA3" fill-opacity="0.8"/><circle cx="757.9" cy="505.0" r="4.2" fill="#00FFA3" fill-opacity="0.8"/><circle cx="818.0" cy="448.0" r="4.2" fill="#00FFA3" fill-opacity="0.8"/><circle cx="1066.4" cy="324.3" r="4.2" fill="#00FFA3" fill-opacity="0.8"/><circle cx="473.8" cy="562.0" r="4.2" fill="#00FFA3" fill-opacity="0.8"/><circle cx="839.4" cy="471.6" r="4.2" fill="#00FFA3" fill-opacity="0.8"/><circle cx="405.2" cy="562.0" r="4.2" fill="#00FFA3" fill-opacity="0.8"/><circle cx="734.1" cy="448.0" r="4.2" fill="#00FFA3" fill-opacity="0.8"/><circle cx="681.4" cy="505.0" r="4.2" fill="#00FFA3" fill-opacity="0.8"/><circle cx="1270.9" cy="217.4" r="4.2" fill="#00FFA3" fill-opacity="0.8"/><circle cx="861.6" cy="372.6" r="4.2" fill="#00FFA3" fill-opacity="0.8"/><circle cx="546.9" cy="562.0" r="4.2" fill="#00FFA3" fill-opacity="0.8"/><circle cx="395.0" cy="562.0" r="4.2" fill="#00FFA3" fill-opacity="0.8"/><circle cx="1037.0" cy="300.6" r="4.2" fill="#00FFA3" fill-opacity="0.8"/><circle cx="1414.3" cy="233.9" r="4.2" fill="#00FFA3" fill-opacity="0.8"/><circle cx="553.1" cy="505.0" r="4.2" fill="#00FFA3" fill-opacity="0.8"/><circle cx="531.9" cy="505.0" r="4.2" fill="#00FFA3" fill-opacity="0.8"/><circle cx="460.2" cy="562.0" r="4.2" fill="#00FFA3" fill-opacity="0.8"/><circle cx="587.9" cy="562.0" r="4.2" fill="#00FFA3" fill-opacity="0.8"/><circle cx="520.6" cy="505.0" r="4.2" fill="#00FFA3" fill-opacity="0.8"/><circle cx="499.4" cy="562.0" r="4.2" fill="#00FFA3" fill-opacity="0.8"/><circle cx="854.1" cy="429.6" r="4.2" fill="#00FFA3" fill-opacity="0.8"/><circle cx="869.6" cy="344.9" r="4.2" fill="#00FFA3" fill-opacity="0.8"/><circle cx="544.8" cy="562.0" r="4.2" fill="#00FFA3" fill-opacity="0.8"/><circle cx="698.3" cy="448.0" r="4.2" fill="#00FFA3" fill-opacity="0.8"/><circle cx="329.4" cy="562.0" r="4.2" fill="#00FFA3" fill-opacity="0.8"/><circle cx="836.2" cy="391.0" r="4.2" fill="#00FFA3" fill-opacity="0.8"/><circle cx="1205.0" cy="364.8" r="4.2" fill="#00FFA3" fill-opacity="0.8"/><circle cx="479.1" cy="562.0" r="4.2" fill="#00FFA3" fill-opacity="0.8"/><circle cx="580.5" cy="505.0" r="4.2" fill="#00FFA3" fill-opacity="0.8"/><circle cx="714.4" cy="562.0" r="4.2" fill="#00FFA3" fill-opacity="0.8"/><circle cx="832.2" cy="471.6" r="4.2" fill="#00FFA3" fill-opacity="0.8"/><circle cx="1178.2" cy="256.5" r="6" fill="none" stroke="#FF2D55" stroke-width="2.2"/><polyline points="137.2,505.0 196.2,505.0 234.0,505.0 251.2,505.0 277.9,505.0 277.9,505.0 283.0,505.0 297.7,505.0 302.4,505.0 302.4,505.0 307.1,505.0 316.2,505.0 320.7,505.0 320.7,505.0 325.1,505.0 325.1,505.0 329.4,505.0 333.7,505.0 333.7,505.0 333.7,505.0 337.9,505.0 342.1,505.0 346.2,505.0 346.2,505.0 346.2,505.0 350.2,505.0 350.2,505.0 354.2,505.0 365.9,505.0 369.7,505.0 380.8,505.0 380.8,505.0 391.5,505.0 395.0,505.0 395.0,505.0 398.4,471.6 398.4,471.6 398.4,471.6 401.8,471.6 405.2,471.6 405.2,471.6 408.5,471.6 415.1,471.6 415.1,471.6 415.1,471.6 418.3,471.6 430.9,471.6 430.9,471.6 430.9,471.6 433.9,471.6 433.9,471.6 437.0,471.6 439.9,471.6 442.9,471.6 460.2,471.6 460.2,471.6 462.9,471.6 462.9,471.6 462.9,471.6 468.4,471.6 473.8,448.0 476.4,448.0 479.1,448.0 481.7,448.0 481.7,448.0 484.3,448.0 486.8,448.0 496.9,448.0 496.9,448.0 496.9,448.0 499.4,448.0 504.2,448.0 509.0,448.0 511.4,448.0 518.4,448.0 520.6,448.0 522.9,448.0 527.4,448.0 531.9,448.0 531.9,448.0 534.0,448.0 534.0,448.0 536.2,448.0 544.8,448.0 544.8,448.0 544.8,448.0 546.9,448.0 546.9,448.0 549.0,448.0 551.0,448.0 551.0,448.0 553.1,448.0 571.0,448.0 572.9,429.6 572.9,429.6 574.8,429.6 574.8,429.6 576.7,429.6 580.5,429.6 580.5,429.6 584.2,414.6 586.1,414.6 587.9,414.6 593.3,414.6 602.2,414.6 603.9,414.6 612.5,414.6 614.1,414.6 614.1,414.6 615.8,414.6 627.3,414.6 632.0,414.6 635.2,414.6 635.2,414.6 635.2,414.6 635.2,414.6 639.8,414.6 650.4,414.6 651.9,401.9 653.4,414.6 654.8,414.6 662.0,401.9 663.5,401.9 670.5,401.9 681.4,401.9 686.7,401.9 688.0,401.9 688.0,401.9 690.6,401.9 694.5,401.9 697.1,401.9 698.3,401.9 700.9,401.9 702.1,391.0 714.4,391.0 716.8,391.0 725.0,391.0 734.1,391.0 735.3,391.0 735.3,391.0 736.4,391.0 743.0,391.0 743.0,391.0 745.2,381.3 751.6,381.3 754.8,381.3 757.9,372.6 763.1,372.6 763.1,372.6 764.1,364.8 768.1,364.8 772.1,364.8 774.1,357.6 802.3,357.6 806.8,357.6 818.0,357.6 829.7,357.6 832.2,344.9 833.0,344.9 836.2,333.9 836.2,344.9 837.8,333.9 839.4,344.9 843.3,329.0 851.8,329.0 854.1,319.8 854.1,324.3 861.6,319.8 868.9,319.8 869.6,319.8 873.8,319.8 875.3,319.8 879.5,319.8 887.7,315.6 905.4,307.8 905.4,315.6 909.2,307.8 919.1,307.8 933.4,307.8 933.4,307.8 940.8,307.8 950.3,300.6 957.9,300.6 972.5,294.0 974.6,279.5 1000.3,279.5 1005.8,247.1 1017.0,247.1 1037.0,247.1 1053.9,241.9 1057.0,241.9 1066.4,240.2 1077.1,240.2 1081.4,240.2 1093.9,240.2 1120.3,238.6 1139.1,238.6 1174.0,233.9 1178.2,233.9 1187.3,233.9 1190.3,233.9 1190.5,232.4 1196.2,232.4 1205.0,217.4 1213.2,217.4 1238.9,217.4 1270.9,217.4 1283.0,203.6 1309.3,233.9 1388.7,233.9 1414.3,238.6 1418.2,238.6 1467.8,238.6 1531.9,93.7" fill="none" stroke="#00FFA3" stroke-width="3" stroke-linejoin="round"/><rect x="1106.5" y="86.7" width="418.4" height="18" fill="#0B0B12" opacity="0.85"/><text x="1521.9" y="99.7" font-size="13" fill="#00FFA3" text-anchor="end">2021-11 record: -37.8%, 297 sessions to a new record</text><rect x="1050.3" y="231.6" width="410.4" height="18" fill="#0B0B12" opacity="0.85"/><text x="1457.8" y="244.6" font-size="13" fill="#00FFA3" text-anchor="end">2020-02 record: -30.5%, 51 sessions to a new record</text><rect x="1000.8" y="250.6" width="410.4" height="18" fill="#0B0B12" opacity="0.85"/><text x="1408.2" y="263.6" font-size="13" fill="#00FFA3" text-anchor="end">2015-07 record: -25.9%, 49 sessions to a new record</text></svg>