<svg xmlns="http://www.w3.org/2000/svg" viewBox="0 0 1100 380" width="1100" height="380" font-family="ui-monospace,Menlo,monospace"><rect width="1100" height="380" fill="#0B0B12"/><text x="24" y="30" fill="#C8C8D2" font-size="20" font-weight="600">SPY · the same, only lows that ended a fall of 10% or more (28 lows)</text><rect x="250" y="62" width="14" height="14" fill="#00FFA3"/><text x="270" y="74" fill="#C8C8D2" font-size="13">turned BEFORE the price low</text><rect x="504.6" y="62" width="14" height="14" fill="#8A8A9E"/><text x="524.6" y="74" fill="#C8C8D2" font-size="13">same day</text><rect x="611" y="62" width="14" height="14" fill="#FF2D55"/><text x="631" y="74" fill="#C8C8D2" font-size="13">AFTER the price low</text><rect x="803.2" y="62" width="14" height="14" fill="#2A2A36"/><text x="823.2" y="74" fill="#C8C8D2" font-size="13">no turn in that swing</text><text x="240" y="109" fill="#C8C8D2" font-size="14" text-anchor="end">VIX peak</text><rect x="250" y="90" width="410" height="26" fill="#00FFA3"/><text x="455" y="109" fill="#07070C" font-size="13" font-weight="700" text-anchor="middle">50%</text><rect x="660" y="90" width="351.4" height="26" fill="#8A8A9E"/><text x="835.7" y="109" fill="#07070C" font-size="13" font-weight="700" text-anchor="middle">43%</text><rect x="1011.4" y="90" width="29.3" height="26" fill="#FF2D55"/><rect x="1040.7" y="90" width="29.3" height="26" fill="#2A2A36"/><text x="240" y="147" fill="#C8C8D2" font-size="14" text-anchor="end">VIX÷VIX3M peak</text><rect x="250" y="128" width="615" height="26" fill="#00FFA3"/><text x="557.5" y="147" fill="#07070C" font-size="13" font-weight="700" text-anchor="middle">75%</text><rect x="865" y="128" width="87.9" height="26" fill="#8A8A9E"/><text x="908.9" y="147" fill="#07070C" font-size="13" font-weight="700" text-anchor="middle">11%</text><rect x="952.9" y="128" width="29.3" height="26" fill="#FF2D55"/><rect x="982.1" y="128" width="87.9" height="26" fill="#2A2A36"/><text x="1026.1" y="147" fill="#07070C" font-size="13" font-weight="700" text-anchor="middle">11%</text><text x="240" y="185" fill="#C8C8D2" font-size="14" text-anchor="end">Put/call (PCC) peak</text><rect x="250" y="166" width="615" height="26" fill="#00FFA3"/><text x="557.5" y="185" fill="#07070C" font-size="13" font-weight="700" text-anchor="middle">75%</text><rect x="865" y="166" width="87.9" height="26" fill="#8A8A9E"/><text x="908.9" y="185" fill="#07070C" font-size="13" font-weight="700" text-anchor="middle">11%</text><rect x="952.9" y="166" width="58.6" height="26" fill="#FF2D55"/><text x="982.1" y="185" fill="#07070C" font-size="13" font-weight="700" text-anchor="middle">7%</text><rect x="1011.4" y="166" width="58.6" height="26" fill="#2A2A36"/><text x="1040.7" y="185" fill="#07070C" font-size="13" font-weight="700" text-anchor="middle">7%</text><text x="240" y="223" fill="#C8C8D2" font-size="14" text-anchor="end">Equity put/call peak</text><rect x="250" y="204" width="673.6" height="26" fill="#00FFA3"/><text x="586.8" y="223" fill="#07070C" font-size="13" font-weight="700" text-anchor="middle">82%</text><rect x="923.6" y="204" width="87.9" height="26" fill="#8A8A9E"/><text x="967.5" y="223" fill="#07070C" font-size="13" font-weight="700" text-anchor="middle">11%</text><rect x="1011.4" y="204" width="29.3" height="26" fill="#FF2D55"/><rect x="1040.7" y="204" width="29.3" height="26" fill="#2A2A36"/><text x="240" y="261" fill="#C8C8D2" font-size="14" text-anchor="end">Credit (HYG÷LQD) trough</text><rect x="250" y="242" width="468.6" height="26" fill="#00FFA3"/><text x="484.3" y="261" fill="#07070C" font-size="13" font-weight="700" text-anchor="middle">57%</text><rect x="718.6" y="242" width="205" height="26" fill="#8A8A9E"/><text x="821.1" y="261" fill="#07070C" font-size="13" font-weight="700" text-anchor="middle">25%</text><rect x="923.6" y="242" width="87.9" height="26" fill="#FF2D55"/><text x="967.5" y="261" fill="#07070C" font-size="13" font-weight="700" text-anchor="middle">11%</text><rect x="1011.4" y="242" width="58.6" height="26" fill="#2A2A36"/><text x="1040.7" y="261" fill="#07070C" font-size="13" font-weight="700" text-anchor="middle">7%</text><text x="240" y="299" fill="#C8C8D2" font-size="14" text-anchor="end">RSI trough</text><rect x="250" y="280" width="527.1" height="26" fill="#00FFA3"/><text x="513.6" y="299" fill="#07070C" font-size="13" font-weight="700" text-anchor="middle">64%</text><rect x="777.1" y="280" width="175.7" height="26" fill="#8A8A9E"/><text x="865" y="299" fill="#07070C" font-size="13" font-weight="700" text-anchor="middle">21%</text><rect x="952.9" y="280" width="117.1" height="26" fill="#FF2D55"/><text x="1011.4" y="299" fill="#07070C" font-size="13" font-weight="700" text-anchor="middle">14%</text><text x="240" y="337" fill="#C8C8D2" font-size="14" text-anchor="end">% above 50-day trough</text><rect x="250" y="318" width="410" height="26" fill="#00FFA3"/><text x="455" y="337" fill="#07070C" font-size="13" font-weight="700" text-anchor="middle">50%</text><rect x="660" y="318" width="234.3" height="26" fill="#8A8A9E"/><text x="777.1" y="337" fill="#07070C" font-size="13" font-weight="700" text-anchor="middle">29%</text><rect x="894.3" y="318" width="117.1" height="26" fill="#FF2D55"/><text x="952.9" y="337" fill="#07070C" font-size="13" font-weight="700" text-anchor="middle">14%</text><rect x="1011.4" y="318" width="58.6" height="26" fill="#2A2A36"/><text x="1040.7" y="337" fill="#07070C" font-size="13" font-weight="700" text-anchor="middle">7%</text></svg>