<svg xmlns="http://www.w3.org/2000/svg" viewBox="0 0 1100 460" width="1100" height="460" font-family="ui-monospace,Menlo,monospace"><rect width="1100" height="460" fill="#0B0B12"/><text x="74" y="30" fill="#C8C8D2" font-size="20" font-weight="600">Sessions back above the 200-day: what happened vs a random walk</text><text x="74" y="52" fill="#9C9CAE" font-size="14">the gap between solid and dashed = what depth adds beyond arithmetic</text><line x1="74" x2="1076" y1="385.6" y2="385.6" stroke="#24242E" stroke-width="1"/><text x="66" y="390.6" fill="#9C9CAE" font-size="13" text-anchor="end">0</text><line x1="74" x2="1076" y1="326.3" y2="326.3" stroke="#24242E" stroke-width="1"/><text x="66" y="331.3" fill="#9C9CAE" font-size="13" text-anchor="end">25</text><line x1="74" x2="1076" y1="267.1" y2="267.1" stroke="#24242E" stroke-width="1"/><text x="66" y="272.1" fill="#9C9CAE" font-size="13" text-anchor="end">50</text><line x1="74" x2="1076" y1="207.9" y2="207.9" stroke="#24242E" stroke-width="1"/><text x="66" y="212.9" fill="#9C9CAE" font-size="13" text-anchor="end">75</text><line x1="74" x2="1076" y1="148.6" y2="148.6" stroke="#24242E" stroke-width="1"/><text x="66" y="153.6" fill="#9C9CAE" font-size="13" text-anchor="end">100</text><text x="174.2" y="420" fill="#9C9CAE" font-size="13" text-anchor="middle">10</text><text x="307.8" y="420" fill="#9C9CAE" font-size="13" text-anchor="middle">20</text><text x="441.4" y="420" fill="#9C9CAE" font-size="13" text-anchor="middle">30</text><text x="575" y="420" fill="#9C9CAE" font-size="13" text-anchor="middle">40</text><text x="708.6" y="420" fill="#9C9CAE" font-size="13" text-anchor="middle">50</text><text x="842.2" y="420" fill="#9C9CAE" font-size="13" text-anchor="middle">60</text><text x="975.8" y="420" fill="#9C9CAE" font-size="13" text-anchor="middle">70</text><path d="M74 154.4 L140.8 248.2 L207.6 290.8 L274.4 314.5 L341.2 340.6 L408 354.8 L474.8 361.9 L541.6 366.6 L608.4 366.6 L675.2 366.6 L742 354.8 L808.8 300.3 L875.6 352.4 L942.4 364.3 L1009.2 350 L1076 383.2 L1076 383.2 L1009.2 383.2 L942.4 380.8 L875.6 380.8 L808.8 378.5 L742 373.7 L675.2 373.7 L608.4 373.7 L541.6 371.4 L474.8 369 L408 361.9 L341.2 350 L274.4 328.7 L207.6 305 L140.8 270.8 L74 197.3 Z" fill="#1C1C28" opacity="0.9"/><polyline points="74,177.1 140.8,260 207.6,297.9 274.4,321.6 341.2,345.3 408,359.5 474.8,364.3 541.6,369 608.4,371.4 675.2,371.4" fill="none" stroke="#FF2D55" stroke-width="3" stroke-linejoin="round" stroke-linecap="round"/><polyline points="675.2,371.4 742,366.6 808.8,354.8" fill="none" stroke="#00FFA3" stroke-width="3" stroke-linejoin="round" stroke-linecap="round"/><polyline points="808.8,354.8 875.6,373.7 942.4,378.5" fill="none" stroke="#FF2D55" stroke-width="3" stroke-linejoin="round" stroke-linecap="round"/><polyline points="942.4,378.5 1009.2,350" fill="none" stroke="#00FFA3" stroke-width="3" stroke-linejoin="round" stroke-linecap="round"/><polyline points="1009.2,350 1076,383.2" fill="none" stroke="#FF2D55" stroke-width="3" stroke-linejoin="round" stroke-linecap="round"/><polyline points="74,136.8 140.8,226.8 207.6,281.3 274.4,319.2 341.2,342.9 408,357.1 474.8,364.3 541.6,369 608.4,371.4 675.2,371.4 742,371.4" fill="none" stroke="#FF2D55" stroke-width="2.4" stroke-linejoin="round" stroke-linecap="round" stroke-dasharray="9 6"/><polyline points="742,371.4 808.8,361.9" fill="none" stroke="#00FFA3" stroke-width="2.4" stroke-linejoin="round" stroke-linecap="round" stroke-dasharray="9 6"/><polyline points="808.8,361.9 875.6,371.4 942.4,376.1" fill="none" stroke="#FF2D55" stroke-width="2.4" stroke-linejoin="round" stroke-linecap="round" stroke-dasharray="9 6"/><polyline points="942.4,376.1 1009.2,373.7" fill="none" stroke="#00FFA3" stroke-width="2.4" stroke-linejoin="round" stroke-linecap="round" stroke-dasharray="9 6"/><polyline points="1009.2,373.7 1076,380.8" fill="none" stroke="#FF2D55" stroke-width="2.4" stroke-linejoin="round" stroke-linecap="round" stroke-dasharray="9 6"/><polyline points="74,172.3 140.8,250.5 207.6,290.8 274.4,307.4 341.2,326.3 408,350 474.8,361.9 541.6,366.6 608.4,366.6 675.2,371.4" fill="none" stroke="#FF2D55" stroke-width="1.3" stroke-linejoin="round" stroke-linecap="round"/><polyline points="675.2,371.4 742,359.5 808.8,338.2" fill="none" stroke="#00FFA3" stroke-width="1.3" stroke-linejoin="round" stroke-linecap="round"/><polyline points="808.8,338.2 875.6,373.7 942.4,378.5" fill="none" stroke="#FF2D55" stroke-width="1.3" stroke-linejoin="round" stroke-linecap="round"/><polyline points="942.4,378.5 1009.2,350" fill="none" stroke="#00FFA3" stroke-width="1.3" stroke-linejoin="round" stroke-linecap="round"/><polyline points="1009.2,350 1076,383.2" fill="none" stroke="#FF2D55" stroke-width="1.3" stroke-linejoin="round" stroke-linecap="round"/><polyline points="74,139.2 140.8,226.8 207.6,281.3 274.4,312.1 341.2,331.1 408,350 474.8,361.9 541.6,364.3 608.4,369 675.2,371.4" fill="none" stroke="#FF2D55" stroke-width="1.6" stroke-linejoin="round" stroke-linecap="round" stroke-dasharray="2 5"/><polyline points="675.2,371.4 742,366.6 808.8,361.9" fill="none" stroke="#00FFA3" stroke-width="1.6" stroke-linejoin="round" stroke-linecap="round" stroke-dasharray="2 5"/><polyline points="808.8,361.9 875.6,371.4 942.4,376.1" fill="none" stroke="#FF2D55" stroke-width="1.6" stroke-linejoin="round" stroke-linecap="round" stroke-dasharray="2 5"/><polyline points="942.4,376.1 1009.2,373.7" fill="none" stroke="#00FFA3" stroke-width="1.6" stroke-linejoin="round" stroke-linecap="round" stroke-dasharray="2 5"/><polyline points="1009.2,373.7 1076,380.8" fill="none" stroke="#FF2D55" stroke-width="1.6" stroke-linejoin="round" stroke-linecap="round" stroke-dasharray="2 5"/><text x="575" y="446" fill="#9C9CAE" font-size="14" text-anchor="middle">distance to the 200-day as an own-history percentile (1 = the deepest below it has ever been)</text><text transform="translate(18 260) rotate(-90)" fill="#9C9CAE" font-size="14" text-anchor="middle">median sessions</text><line x1="74" x2="92" y1="72" y2="72" stroke="#00FFA3" stroke-width="3"/><line x1="92" x2="110" y1="72" y2="72" stroke="#FF2D55" stroke-width="3"/><text x="116" y="77" fill="#C8C8D2" font-size="13">what happened · pooled (band = 90% bootstrap)</text><line x1="510" x2="528" y1="72" y2="72" stroke="#00FFA3" stroke-width="2.4" stroke-dasharray="9 6"/><line x1="528" x2="546" y1="72" y2="72" stroke="#FF2D55" stroke-width="2.4" stroke-dasharray="9 6"/><text x="552" y="77" fill="#C8C8D2" font-size="13">random walk from the same closes · pooled</text><line x1="74" x2="92" y1="94" y2="94" stroke="#00FFA3" stroke-width="1.3"/><line x1="92" x2="110" y1="94" y2="94" stroke="#FF2D55" stroke-width="1.3"/><text x="116" y="99" fill="#C8C8D2" font-size="13">what happened · top 20 at the time</text><line x1="417.6" x2="435.6" y1="94" y2="94" stroke="#00FFA3" stroke-width="1.6" stroke-dasharray="2 5"/><line x1="435.6" x2="453.6" y1="94" y2="94" stroke="#FF2D55" stroke-width="1.6" stroke-dasharray="2 5"/><text x="459.6" y="99" fill="#C8C8D2" font-size="13">random walk · top 20 at the time</text></svg>